<svg xmlns="http://www.w3.org/2000/svg" xmlns:xlink="http://www.w3.org/1999/xlink" width="500" zoomAndPan="magnify" viewBox="0 0 375 374.999991" height="500" preserveAspectRatio="xMidYMid meet" version="1.2"><defs><clipPath id="aa5004a624"><path d="M 28.285156 28.238281 L 317.292969 28.238281 L 317.292969 219.488281 L 28.285156 219.488281 Z M 28.285156 28.238281 "/></clipPath><clipPath id="0e66303c45"><path d="M 288.5 178.355469 C 290.765625 176.957031 292.867188 175.464844 294.808594 173.789062 C 296.730469 172.09375 298.5 170.296875 300.0625 168.398438 C 305.644531 161.550781 308.691406 151.628906 306.59375 142.898438 C 306.117188 140.808594 305.347656 138.792969 304.308594 136.917969 C 303.292969 135.035156 302.066406 133.257812 300.59375 131.683594 C 294.816406 125.238281 286.160156 121.589844 277.257812 120.992188 C 268.308594 120.265625 259.078125 122.320312 250.5 126.089844 C 249.410156 126.507812 248.363281 127.070312 247.296875 127.566406 C 246.800781 127.808594 246.15625 128.105469 245.785156 128.300781 L 244.054688 129.21875 C 242.9375 129.835938 242.050781 130.335938 240.984375 130.972656 C 239.945312 131.582031 238.921875 132.214844 237.90625 132.863281 C 233.832031 135.457031 229.925781 138.371094 226.089844 141.441406 C 218.421875 147.597656 211.230469 154.628906 204.003906 161.929688 C 196.742188 169.210938 189.480469 176.820312 181.585938 184.21875 C 173.660156 191.5625 165.046875 198.710938 155.226562 204.695312 C 145.453125 210.710938 134.304688 215.230469 122.710938 217.542969 C 116.914062 218.683594 111.035156 219.335938 105.195312 219.453125 L 104.101562 219.476562 L 103.289062 219.480469 L 100.847656 219.433594 C 100.273438 219.4375 99.34375 219.367188 98.550781 219.320312 C 97.738281 219.265625 96.886719 219.222656 96.113281 219.144531 C 93.066406 218.832031 90.019531 218.421875 87.023438 217.75 C 75.015625 215.179688 63.527344 209.6875 54.132812 201.609375 C 44.710938 193.589844 37.339844 183.105469 33.046875 171.480469 C 30.84375 165.6875 29.503906 159.605469 28.863281 153.503906 L 28.714844 152.0625 L 28.65625 151.089844 L 28.539062 149.140625 L 28.511719 148.652344 L 28.496094 148.039062 L 28.476562 146.800781 L 28.457031 144.328125 C 28.546875 141.242188 28.753906 138.183594 29.203125 135.132812 C 30.082031 129.050781 31.667969 123.046875 34.042969 117.378906 C 36.4375 111.71875 39.519531 106.371094 43.183594 101.476562 C 46.851562 96.585938 51.15625 92.203125 55.886719 88.371094 C 60.632812 84.550781 65.894531 81.40625 71.414062 78.898438 C 76.941406 76.382812 82.78125 74.597656 88.734375 73.574219 C 90.21875 73.300781 91.714844 73.097656 93.214844 72.957031 C 94.710938 72.765625 96.214844 72.699219 97.714844 72.621094 C 99.214844 72.507812 100.714844 72.578125 102.214844 72.558594 L 103.03125 72.5625 L 103.519531 72.589844 L 104.492188 72.648438 L 106.445312 72.761719 L 97.675781 78.035156 C 101.515625 70.835938 106.222656 64.121094 111.742188 58.1875 C 117.246094 52.25 123.457031 47.003906 130.234375 42.683594 C 137.023438 38.382812 144.324219 34.964844 151.90625 32.523438 C 159.492188 30.089844 167.371094 28.75 175.222656 28.351562 C 179.152344 28.167969 183.085938 28.199219 186.972656 28.59375 L 189.738281 28.84375 L 192.722656 29.253906 C 194.734375 29.488281 196.632812 29.890625 198.53125 30.285156 C 202.335938 31.082031 206.058594 32.191406 209.699219 33.464844 C 211.527344 34.082031 213.292969 34.875 215.078125 35.570312 C 216.839844 36.34375 218.554688 37.214844 220.277344 38.046875 C 221.949219 38.992188 223.644531 39.871094 225.269531 40.863281 C 226.867188 41.914062 228.523438 42.84375 230.050781 43.980469 C 231.59375 45.097656 233.160156 46.152344 234.609375 47.375 L 236.8125 49.152344 C 237.535156 49.761719 238.21875 50.410156 238.921875 51.035156 C 240.335938 52.277344 241.652344 53.625 242.941406 54.988281 C 244.273438 56.300781 245.457031 57.761719 246.679688 59.164062 C 247.921875 60.550781 248.984375 62.097656 250.136719 63.542969 C 251.222656 65.046875 252.214844 66.621094 253.246094 68.140625 C 250.6875 65.472656 248.085938 62.886719 245.308594 60.511719 C 243.898438 59.351562 242.542969 58.144531 241.054688 57.09375 L 238.875 55.476562 C 238.140625 54.945312 237.363281 54.472656 236.621094 53.964844 C 235.867188 53.464844 235.136719 52.941406 234.375 52.464844 L 232.054688 51.082031 C 230.542969 50.125 228.917969 49.34375 227.34375 48.503906 C 225.777344 47.644531 224.101562 47 222.5 46.238281 C 220.867188 45.53125 219.183594 44.945312 217.542969 44.292969 L 212.492188 42.691406 C 210.777344 42.261719 209.105469 41.734375 207.382812 41.386719 C 203.953125 40.644531 200.503906 40.0625 197.035156 39.769531 C 195.296875 39.605469 193.5625 39.433594 191.898438 39.429688 L 189.390625 39.351562 L 186.648438 39.40625 C 183.183594 39.417969 179.75 39.824219 176.359375 40.300781 C 169.578125 41.3125 162.972656 43.15625 156.75 45.804688 C 150.515625 48.417969 144.65625 51.8125 139.332031 55.859375 C 133.984375 59.871094 129.1875 64.554688 125.058594 69.730469 C 120.949219 74.914062 117.425781 80.53125 114.703125 86.496094 L 112.304688 91.761719 L 105.933594 91.769531 L 103.980469 91.773438 L 103.003906 91.773438 L 102.515625 91.777344 C 102.992188 91.78125 102.589844 91.78125 102.667969 91.785156 L 102.5625 91.792969 L 102.355469 91.804688 C 101.253906 91.898438 100.144531 91.890625 99.050781 92.054688 C 97.957031 92.183594 96.863281 92.285156 95.78125 92.5 C 94.695312 92.660156 93.621094 92.890625 92.554688 93.136719 C 88.28125 94.078125 84.144531 95.566406 80.277344 97.558594 C 72.523438 101.5 65.824219 107.390625 60.859375 114.410156 C 58.402344 117.945312 56.378906 121.757812 54.84375 125.75 C 53.363281 129.753906 52.296875 133.90625 51.789062 138.140625 C 51.515625 140.253906 51.429688 142.398438 51.402344 144.519531 L 51.445312 145.953125 L 51.460938 146.667969 L 51.464844 147.03125 L 51.503906 147.519531 L 51.738281 150.4375 C 51.765625 150.757812 51.714844 150.144531 51.726562 150.242188 L 51.738281 150.339844 L 51.820312 150.9375 C 52.347656 155.183594 53.375 159.324219 54.882812 163.269531 C 57.859375 171.175781 62.90625 178.246094 69.382812 183.6875 C 75.824219 189.164062 83.632812 193.0625 91.984375 194.886719 C 94.066406 195.375 96.191406 195.664062 98.320312 195.90625 C 98.839844 195.960938 99.292969 195.976562 99.777344 196.019531 C 100.285156 196.050781 100.652344 196.109375 101.378906 196.117188 L 103.332031 196.167969 L 103.820312 196.179688 C 103.324219 196.175781 103.742188 196.179688 103.664062 196.175781 L 103.769531 196.175781 L 103.984375 196.171875 L 104.839844 196.164062 C 109.417969 196.160156 113.9375 195.734375 118.378906 194.957031 C 127.265625 193.378906 135.753906 190.054688 143.894531 185.453125 C 152.035156 180.847656 159.761719 174.894531 167.324219 168.332031 C 174.933594 161.808594 182.382812 154.660156 190.152344 147.511719 C 197.945312 140.390625 206.105469 133.277344 215.054688 126.859375 C 219.523438 123.644531 224.238281 120.671875 229.136719 117.980469 C 230.363281 117.304688 231.601562 116.652344 232.855469 116.023438 C 234.074219 115.402344 235.507812 114.722656 236.710938 114.164062 L 238.496094 113.367188 C 239.296875 113.007812 239.855469 112.796875 240.546875 112.507812 C 241.875 111.980469 243.167969 111.394531 244.535156 110.945312 C 255.257812 107.03125 267.152344 105.148438 278.949219 106.914062 C 290.664062 108.589844 302.269531 114.464844 309.722656 124.265625 C 311.589844 126.683594 313.125 129.375 314.328125 132.199219 C 315.554688 135.011719 316.394531 138.003906 316.808594 141.042969 C 317.25 144.074219 317.304688 147.164062 316.886719 150.171875 C 316.769531 151.609375 316.324219 153.363281 315.992188 154.773438 L 315.410156 156.640625 L 315.207031 157.296875 L 314.972656 157.8125 L 314.496094 158.84375 C 311.90625 164.3125 307.820312 168.65625 303.3125 171.902344 C 301.058594 173.539062 298.648438 174.894531 296.148438 175.945312 C 293.664062 177.011719 291.085938 177.859375 288.5 178.355469 Z M 288.5 178.355469 "/></clipPath><clipPath id="624913fca1"><path d="M 288.5 178.355469 C 290.765625 176.957031 292.867188 175.464844 294.808594 173.789062 C 296.730469 172.09375 298.5 170.296875 300.0625 168.398438 C 305.644531 161.550781 308.691406 151.628906 306.59375 142.898438 C 306.117188 140.808594 305.347656 138.792969 304.308594 136.917969 C 303.292969 135.035156 302.066406 133.257812 300.59375 131.683594 C 294.816406 125.238281 286.160156 121.589844 277.257812 120.992188 C 268.308594 120.265625 259.078125 122.320312 250.5 126.089844 C 249.410156 126.507812 248.363281 127.070312 247.296875 127.566406 C 246.800781 127.808594 246.15625 128.105469 245.785156 128.300781 L 244.054688 129.21875 C 242.9375 129.835938 242.050781 130.335938 240.984375 130.972656 C 239.945312 131.582031 238.921875 132.214844 237.90625 132.863281 C 233.832031 135.457031 229.925781 138.371094 226.089844 141.441406 C 218.421875 147.597656 211.230469 154.628906 204.003906 161.929688 C 196.742188 169.210938 189.480469 176.820312 181.585938 184.21875 C 173.660156 191.5625 165.046875 198.710938 155.226562 204.695312 C 145.453125 210.710938 134.304688 215.230469 122.710938 217.542969 C 116.914062 218.683594 111.035156 219.335938 105.195312 219.453125 L 104.101562 219.476562 L 103.289062 219.480469 L 100.847656 219.433594 C 100.273438 219.4375 99.34375 219.367188 98.550781 219.320312 C 97.738281 219.265625 96.886719 219.222656 96.113281 219.144531 C 93.066406 218.832031 90.019531 218.421875 87.023438 217.75 C 75.015625 215.179688 63.527344 209.6875 54.132812 201.609375 C 44.710938 193.589844 37.339844 183.105469 33.046875 171.480469 C 30.84375 165.6875 29.503906 159.605469 28.863281 153.503906 L 28.714844 152.0625 L 28.65625 151.089844 L 28.539062 149.140625 L 28.511719 148.652344 L 28.496094 148.039062 L 28.476562 146.800781 L 28.457031 144.328125 C 28.546875 141.242188 28.753906 138.183594 29.203125 135.132812 C 30.082031 129.050781 31.667969 123.046875 34.042969 117.378906 C 36.4375 111.71875 39.519531 106.371094 43.183594 101.476562 C 46.851562 96.585938 51.15625 92.203125 55.886719 88.371094 C 60.632812 84.550781 65.894531 81.40625 71.414062 78.898438 C 76.941406 76.382812 82.78125 74.597656 88.734375 73.574219 C 90.21875 73.300781 91.714844 73.097656 93.214844 72.957031 C 94.710938 72.765625 96.214844 72.699219 97.714844 72.621094 C 99.214844 72.507812 100.714844 72.578125 102.214844 72.558594 L 103.03125 72.5625 L 103.519531 72.589844 L 104.492188 72.648438 L 106.445312 72.761719 L 97.675781 78.035156 C 101.515625 70.835938 106.222656 64.121094 111.742188 58.1875 C 117.246094 52.25 123.457031 47.003906 130.234375 42.683594 C 137.023438 38.382812 144.324219 34.964844 151.90625 32.523438 C 159.492188 30.089844 167.371094 28.75 175.222656 28.351562 C 179.152344 28.167969 183.085938 28.199219 186.972656 28.59375 L 189.738281 28.84375 L 192.722656 29.253906 C 194.734375 29.488281 196.632812 29.890625 198.53125 30.285156 C 202.335938 31.082031 206.058594 32.191406 209.699219 33.464844 C 211.527344 34.082031 213.292969 34.875 215.078125 35.570312 C 216.839844 36.34375 218.554688 37.214844 220.277344 38.046875 C 221.949219 38.992188 223.644531 39.871094 225.269531 40.863281 C 226.867188 41.914062 228.523438 42.84375 230.050781 43.980469 C 231.59375 45.097656 233.160156 46.152344 234.609375 47.375 L 236.8125 49.152344 C 237.535156 49.761719 238.21875 50.410156 238.921875 51.035156 C 240.335938 52.277344 241.652344 53.625 242.941406 54.988281 C 244.273438 56.300781 245.457031 57.761719 246.679688 59.164062 C 247.921875 60.550781 248.984375 62.097656 250.136719 63.542969 C 251.222656 65.046875 252.214844 66.621094 253.246094 68.140625 C 250.6875 65.472656 248.085938 62.886719 245.308594 60.511719 C 243.898438 59.351562 242.542969 58.144531 241.054688 57.09375 L 238.875 55.476562 C 238.140625 54.945312 237.363281 54.472656 236.621094 53.964844 C 235.867188 53.464844 235.136719 52.941406 234.375 52.464844 L 232.054688 51.082031 C 230.542969 50.125 228.917969 49.34375 227.34375 48.503906 C 225.777344 47.644531 224.101562 47 222.5 46.238281 C 220.867188 45.53125 219.183594 44.945312 217.542969 44.292969 L 212.492188 42.691406 C 210.777344 42.261719 209.105469 41.734375 207.382812 41.386719 C 203.953125 40.644531 200.503906 40.0625 197.035156 39.769531 C 195.296875 39.605469 193.5625 39.433594 191.898438 39.429688 L 189.390625 39.351562 L 186.648438 39.40625 C 183.183594 39.417969 179.75 39.824219 176.359375 40.300781 C 169.578125 41.3125 162.972656 43.15625 156.75 45.804688 C 150.515625 48.417969 144.65625 51.8125 139.332031 55.859375 C 133.984375 59.871094 129.1875 64.554688 125.058594 69.730469 C 120.949219 74.914062 117.425781 80.53125 114.703125 86.496094 L 112.304688 91.761719 L 105.933594 91.769531 L 103.980469 91.773438 L 103.003906 91.773438 L 102.515625 91.777344 C 102.992188 91.78125 102.589844 91.78125 102.667969 91.785156 L 102.5625 91.792969 L 102.355469 91.804688 C 101.253906 91.898438 100.144531 91.890625 99.050781 92.054688 C 97.957031 92.183594 96.863281 92.285156 95.78125 92.5 C 94.695312 92.660156 93.621094 92.890625 92.554688 93.136719 C 88.28125 94.078125 84.144531 95.566406 80.277344 97.558594 C 72.523438 101.5 65.824219 107.390625 60.859375 114.410156 C 58.402344 117.945312 56.378906 121.757812 54.84375 125.75 C 53.363281 129.753906 52.296875 133.90625 51.789062 138.140625 C 51.515625 140.253906 51.429688 142.398438 51.402344 144.519531 L 51.445312 145.953125 L 51.460938 146.667969 L 51.464844 147.03125 L 51.503906 147.519531 L 51.738281 150.4375 C 51.765625 150.757812 51.714844 150.144531 51.726562 150.242188 L 51.738281 150.339844 L 51.820312 150.9375 C 52.347656 155.183594 53.375 159.324219 54.882812 163.269531 C 57.859375 171.175781 62.90625 178.246094 69.382812 183.6875 C 75.824219 189.164062 83.632812 193.0625 91.984375 194.886719 C 94.066406 195.375 96.191406 195.664062 98.320312 195.90625 C 98.839844 195.960938 99.292969 195.976562 99.777344 196.019531 C 100.285156 196.050781 100.652344 196.109375 101.378906 196.117188 L 103.332031 196.167969 L 103.820312 196.179688 C 103.324219 196.175781 103.742188 196.179688 103.664062 196.175781 L 103.769531 196.175781 L 103.984375 196.171875 L 104.839844 196.164062 C 109.417969 196.160156 113.9375 195.734375 118.378906 194.957031 C 127.265625 193.378906 135.753906 190.054688 143.894531 185.453125 C 152.035156 180.847656 159.761719 174.894531 167.324219 168.332031 C 174.933594 161.808594 182.382812 154.660156 190.152344 147.511719 C 197.945312 140.390625 206.105469 133.277344 215.054688 126.859375 C 219.523438 123.644531 224.238281 120.671875 229.136719 117.980469 C 230.363281 117.304688 231.601562 116.652344 232.855469 116.023438 C 234.074219 115.402344 235.507812 114.722656 236.710938 114.164062 L 238.496094 113.367188 C 239.296875 113.007812 239.855469 112.796875 240.546875 112.507812 C 241.875 111.980469 243.167969 111.394531 244.535156 110.945312 C 255.257812 107.03125 267.152344 105.148438 278.949219 106.914062 C 290.664062 108.589844 302.269531 114.464844 309.722656 124.265625 C 311.589844 126.683594 313.125 129.375 314.328125 132.199219 C 315.554688 135.011719 316.394531 138.003906 316.808594 141.042969 C 317.25 144.074219 317.304688 147.164062 316.886719 150.171875 C 316.769531 151.609375 316.324219 153.363281 315.992188 154.773438 L 315.410156 156.640625 L 315.207031 157.296875 L 314.972656 157.8125 L 314.496094 158.84375 C 311.90625 164.3125 307.820312 168.65625 303.3125 171.902344 C 301.058594 173.539062 298.648438 174.894531 296.148438 175.945312 C 293.664062 177.011719 291.085938 177.859375 288.5 178.355469 "/></clipPath><clipPath id="2028d7c2e8"><path d="M 404.9375 85.480469 L 114.988281 -104.144531 L -59.175781 162.167969 L 230.773438 351.792969 Z M 404.9375 85.480469 "/></clipPath><radialGradient gradientTransform="matrix(-0.547326,0.836922,-0.836912,-0.547333,235.716489,19.65381)" id="ed02b5c44e" gradientUnits="userSpaceOnUse" r="264.446933" cx="0" fx="0" cy="0" fy="0"><stop style="stop-color:#51ade5;stop-opacity:1;" offset="0"/><stop style="stop-color:#50ace5;stop-opacity:1;" offset="0.00390625"/><stop style="stop-color:#50ace4;stop-opacity:1;" offset="0.0078125"/><stop style="stop-color:#50abe4;stop-opacity:1;" offset="0.0117188"/><stop style="stop-color:#4fabe4;stop-opacity:1;" offset="0.015625"/><stop style="stop-color:#4faae3;stop-opacity:1;" offset="0.0195312"/><stop style="stop-color:#4fa9e2;stop-opacity:1;" offset="0.0234375"/><stop style="stop-color:#4fa8e2;stop-opacity:1;" offset="0.0273438"/><stop style="stop-color:#4fa7e1;stop-opacity:1;" offset="0.03125"/><stop style="stop-color:#4fa7e1;stop-opacity:1;" offset="0.0351562"/><stop style="stop-color:#4ea7e1;stop-opacity:1;" offset="0.0390625"/><stop style="stop-color:#4ea6e0;stop-opacity:1;" offset="0.0429688"/><stop style="stop-color:#4ea6e0;stop-opacity:1;" offset="0.046875"/><stop style="stop-color:#4ea5e0;stop-opacity:1;" offset="0.0507812"/><stop style="stop-color:#4ea5e0;stop-opacity:1;" offset="0.0546875"/><stop style="stop-color:#4ea4df;stop-opacity:1;" offset="0.0585938"/><stop style="stop-color:#4da3df;stop-opacity:1;" offset="0.0625"/><stop style="stop-color:#4da3df;stop-opacity:1;" offset="0.0664062"/><stop style="stop-color:#4ca2de;stop-opacity:1;" offset="0.0703125"/><stop style="stop-color:#4ca1de;stop-opacity:1;" offset="0.0742188"/><stop style="stop-color:#4ca1de;stop-opacity:1;" offset="0.078125"/><stop style="stop-color:#4ca0dd;stop-opacity:1;" offset="0.0820312"/><stop style="stop-color:#4ca0dd;stop-opacity:1;" offset="0.0859375"/><stop style="stop-color:#4c9fdd;stop-opacity:1;" offset="0.0898438"/><stop style="stop-color:#4b9fdc;stop-opacity:1;" offset="0.09375"/><stop style="stop-color:#4b9edc;stop-opacity:1;" offset="0.0976562"/><stop style="stop-color:#4b9edc;stop-opacity:1;" offset="0.101562"/><stop style="stop-color:#4b9ddb;stop-opacity:1;" offset="0.105469"/><stop style="stop-color:#4b9ddb;stop-opacity:1;" offset="0.109375"/><stop style="stop-color:#4b9cda;stop-opacity:1;" offset="0.113281"/><stop style="stop-color:#4a9cda;stop-opacity:1;" offset="0.117188"/><stop style="stop-color:#4a9bda;stop-opacity:1;" offset="0.121094"/><stop style="stop-color:#4a9bd9;stop-opacity:1;" offset="0.125"/><stop style="stop-color:#4a9ad9;stop-opacity:1;" offset="0.128906"/><stop style="stop-color:#4a9ad9;stop-opacity:1;" offset="0.132812"/><stop style="stop-color:#4a99d8;stop-opacity:1;" offset="0.136719"/><stop style="stop-color:#4999d8;stop-opacity:1;" offset="0.140625"/><stop style="stop-color:#4998d7;stop-opacity:1;" offset="0.144531"/><stop style="stop-color:#4997d7;stop-opacity:1;" offset="0.148438"/><stop style="stop-color:#4896d6;stop-opacity:1;" offset="0.152344"/><stop style="stop-color:#4895d6;stop-opacity:1;" offset="0.15625"/><stop style="stop-color:#4895d6;stop-opacity:1;" offset="0.160156"/><stop style="stop-color:#4894d6;stop-opacity:1;" offset="0.164062"/><stop style="stop-color:#4894d5;stop-opacity:1;" offset="0.167969"/><stop style="stop-color:#4893d5;stop-opacity:1;" offset="0.171875"/><stop style="stop-color:#4793d5;stop-opacity:1;" offset="0.175781"/><stop style="stop-color:#4793d4;stop-opacity:1;" offset="0.179688"/><stop style="stop-color:#4792d4;stop-opacity:1;" offset="0.183594"/><stop style="stop-color:#4792d4;stop-opacity:1;" offset="0.1875"/><stop style="stop-color:#4791d3;stop-opacity:1;" offset="0.191406"/><stop style="stop-color:#4791d3;stop-opacity:1;" offset="0.195312"/><stop style="stop-color:#4791d2;stop-opacity:1;" offset="0.199219"/><stop style="stop-color:#4790d2;stop-opacity:1;" offset="0.203125"/><stop style="stop-color:#478fd2;stop-opacity:1;" offset="0.207031"/><stop style="stop-color:#468fd2;stop-opacity:1;" offset="0.210938"/><stop style="stop-color:#468ed1;stop-opacity:1;" offset="0.214844"/><stop style="stop-color:#468ed1;stop-opacity:1;" offset="0.21875"/><stop style="stop-color:#468dd0;stop-opacity:1;" offset="0.222656"/><stop style="stop-color:#468cd0;stop-opacity:1;" offset="0.226562"/><stop style="stop-color:#458bd0;stop-opacity:1;" offset="0.230469"/><stop style="stop-color:#458bd0;stop-opacity:1;" offset="0.234375"/><stop style="stop-color:#458acf;stop-opacity:1;" offset="0.238281"/><stop style="stop-color:#448acf;stop-opacity:1;" offset="0.242188"/><stop style="stop-color:#4489cf;stop-opacity:1;" offset="0.246094"/><stop style="stop-color:#4489ce;stop-opacity:1;" offset="0.25"/><stop style="stop-color:#4488ce;stop-opacity:1;" offset="0.253906"/><stop style="stop-color:#4488ce;stop-opacity:1;" offset="0.257812"/><stop style="stop-color:#4487cd;stop-opacity:1;" offset="0.265625"/><stop style="stop-color:#4486cd;stop-opacity:1;" offset="0.269531"/><stop style="stop-color:#4386cc;stop-opacity:1;" offset="0.273438"/><stop style="stop-color:#4385cb;stop-opacity:1;" offset="0.277344"/><stop style="stop-color:#4385cb;stop-opacity:1;" offset="0.285156"/><stop style="stop-color:#4384ca;stop-opacity:1;" offset="0.289062"/><stop style="stop-color:#4284ca;stop-opacity:1;" offset="0.292969"/><stop style="stop-color:#4283c9;stop-opacity:1;" offset="0.296875"/><stop style="stop-color:#4282c9;stop-opacity:1;" offset="0.304688"/><stop style="stop-color:#4182c9;stop-opacity:1;" offset="0.308594"/><stop style="stop-color:#4181c9;stop-opacity:1;" offset="0.3125"/><stop style="stop-color:#4180c8;stop-opacity:1;" offset="0.316406"/><stop style="stop-color:#417fc8;stop-opacity:1;" offset="0.324219"/><stop style="stop-color:#417fc7;stop-opacity:1;" offset="0.328125"/><stop style="stop-color:#417ec7;stop-opacity:1;" offset="0.332031"/><stop style="stop-color:#417ec7;stop-opacity:1;" offset="0.335938"/><stop style="stop-color:#407dc7;stop-opacity:1;" offset="0.339844"/><stop style="stop-color:#407dc6;stop-opacity:1;" offset="0.34375"/><stop style="stop-color:#407cc6;stop-opacity:1;" offset="0.347656"/><stop style="stop-color:#407cc5;stop-opacity:1;" offset="0.351562"/><stop style="stop-color:#407bc5;stop-opacity:1;" offset="0.355469"/><stop style="stop-color:#407bc5;stop-opacity:1;" offset="0.359375"/><stop style="stop-color:#407ac4;stop-opacity:1;" offset="0.363281"/><stop style="stop-color:#3f7ac4;stop-opacity:1;" offset="0.367188"/><stop style="stop-color:#3f79c4;stop-opacity:1;" offset="0.371094"/><stop style="stop-color:#3e79c3;stop-opacity:1;" offset="0.378906"/><stop style="stop-color:#3e78c3;stop-opacity:1;" offset="0.382812"/><stop style="stop-color:#3e77c2;stop-opacity:1;" offset="0.390625"/><stop style="stop-color:#3e77c2;stop-opacity:1;" offset="0.394531"/><stop style="stop-color:#3e76c1;stop-opacity:1;" offset="0.398438"/><stop style="stop-color:#3e76c1;stop-opacity:1;" offset="0.40625"/><stop style="stop-color:#3e75c1;stop-opacity:1;" offset="0.410156"/><stop style="stop-color:#3d75c0;stop-opacity:1;" offset="0.414062"/><stop style="stop-color:#3d74c0;stop-opacity:1;" offset="0.417969"/><stop style="stop-color:#3d73c0;stop-opacity:1;" offset="0.421875"/><stop style="stop-color:#3d73bf;stop-opacity:1;" offset="0.425781"/><stop style="stop-color:#3d72bf;stop-opacity:1;" offset="0.429688"/><stop style="stop-color:#3d71be;stop-opacity:1;" offset="0.4375"/><stop style="stop-color:#3d71bd;stop-opacity:1;" offset="0.441406"/><stop style="stop-color:#3c70bd;stop-opacity:1;" offset="0.445312"/><stop style="stop-color:#3c6fbd;stop-opacity:1;" offset="0.453125"/><stop style="stop-color:#3b6fbc;stop-opacity:1;" offset="0.457031"/><stop style="stop-color:#3b6ebc;stop-opacity:1;" offset="0.460938"/><stop style="stop-color:#3b6ebb;stop-opacity:1;" offset="0.464844"/><stop style="stop-color:#3b6dbb;stop-opacity:1;" offset="0.472656"/><stop style="stop-color:#3b6dbb;stop-opacity:1;" offset="0.476562"/><stop style="stop-color:#3b6cba;stop-opacity:1;" offset="0.480469"/><stop style="stop-color:#3b6cba;stop-opacity:1;" offset="0.484375"/><stop style="stop-color:#3b6bb9;stop-opacity:1;" offset="0.492188"/><stop style="stop-color:#3a6ab9;stop-opacity:1;" offset="0.496094"/><stop style="stop-color:#3a6ab9;stop-opacity:1;" offset="0.503906"/><stop style="stop-color:#3a69b9;stop-opacity:1;" offset="0.507812"/><stop style="stop-color:#3a69b8;stop-opacity:1;" offset="0.511719"/><stop style="stop-color:#3a68b8;stop-opacity:1;" offset="0.515625"/><stop style="stop-color:#3968b7;stop-opacity:1;" offset="0.519531"/><stop style="stop-color:#3967b7;stop-opacity:1;" offset="0.523438"/><stop style="stop-color:#3967b7;stop-opacity:1;" offset="0.527344"/><stop style="stop-color:#3966b6;stop-opacity:1;" offset="0.53125"/><stop style="stop-color:#3966b6;stop-opacity:1;" offset="0.535156"/><stop style="stop-color:#3965b6;stop-opacity:1;" offset="0.539062"/><stop style="stop-color:#3965b6;stop-opacity:1;" offset="0.542969"/><stop style="stop-color:#3864b5;stop-opacity:1;" offset="0.546875"/><stop style="stop-color:#3864b5;stop-opacity:1;" offset="0.550781"/><stop style="stop-color:#3864b4;stop-opacity:1;" offset="0.554688"/><stop style="stop-color:#3863b4;stop-opacity:1;" offset="0.558594"/><stop style="stop-color:#3862b4;stop-opacity:1;" offset="0.5625"/><stop style="stop-color:#3862b3;stop-opacity:1;" offset="0.566406"/><stop style="stop-color:#3861b3;stop-opacity:1;" offset="0.570312"/><stop style="stop-color:#3860b3;stop-opacity:1;" offset="0.582031"/><stop style="stop-color:#3760b2;stop-opacity:1;" offset="0.585938"/><stop style="stop-color:#375fb1;stop-opacity:1;" offset="0.597656"/><stop style="stop-color:#365fb0;stop-opacity:1;" offset="0.601562"/><stop style="stop-color:#365eb0;stop-opacity:1;" offset="0.605469"/><stop style="stop-color:#365eb0;stop-opacity:1;" offset="0.609375"/><stop style="stop-color:#365daf;stop-opacity:1;" offset="0.613281"/><stop style="stop-color:#365daf;stop-opacity:1;" offset="0.617188"/><stop style="stop-color:#365caf;stop-opacity:1;" offset="0.621094"/><stop style="stop-color:#365cae;stop-opacity:1;" offset="0.625"/><stop style="stop-color:#365bae;stop-opacity:1;" offset="0.628906"/><stop style="stop-color:#365bae;stop-opacity:1;" offset="0.636719"/><stop style="stop-color:#365aad;stop-opacity:1;" offset="0.640625"/><stop style="stop-color:#355aad;stop-opacity:1;" offset="0.644531"/><stop style="stop-color:#3559ad;stop-opacity:1;" offset="0.648438"/><stop style="stop-color:#3558ac;stop-opacity:1;" offset="0.65625"/><stop style="stop-color:#3557ac;stop-opacity:1;" offset="0.664062"/><stop style="stop-color:#3557ac;stop-opacity:1;" offset="0.667969"/><stop style="stop-color:#3456ab;stop-opacity:1;" offset="0.671875"/><stop style="stop-color:#3456ab;stop-opacity:1;" offset="0.679688"/><stop style="stop-color:#3455aa;stop-opacity:1;" offset="0.683594"/><stop style="stop-color:#3455aa;stop-opacity:1;" offset="0.6875"/><stop style="stop-color:#3454a9;stop-opacity:1;" offset="0.691406"/><stop style="stop-color:#3453a9;stop-opacity:1;" offset="0.699219"/><stop style="stop-color:#3352a9;stop-opacity:1;" offset="0.703125"/><stop style="stop-color:#3352a8;stop-opacity:1;" offset="0.71875"/><stop style="stop-color:#3352a7;stop-opacity:1;" offset="0.722656"/><stop style="stop-color:#3351a7;stop-opacity:1;" offset="0.726562"/><stop style="stop-color:#3351a6;stop-opacity:1;" offset="0.730469"/><stop style="stop-color:#3250a6;stop-opacity:1;" offset="0.734375"/><stop style="stop-color:#3250a5;stop-opacity:1;" offset="0.742188"/><stop style="stop-color:#324fa4;stop-opacity:1;" offset="0.75"/><stop style="stop-color:#324ea4;stop-opacity:1;" offset="0.753906"/><stop style="stop-color:#324ea4;stop-opacity:1;" offset="0.757812"/><stop style="stop-color:#324da4;stop-opacity:1;" offset="0.761719"/><stop style="stop-color:#324da4;stop-opacity:1;" offset="0.765625"/><stop style="stop-color:#314ca3;stop-opacity:1;" offset="0.769531"/><stop style="stop-color:#314ca3;stop-opacity:1;" offset="0.773438"/><stop style="stop-color:#314ca3;stop-opacity:1;" offset="0.777344"/><stop style="stop-color:#314ba2;stop-opacity:1;" offset="0.78125"/><stop style="stop-color:#314ba2;stop-opacity:1;" offset="0.785156"/><stop style="stop-color:#314aa2;stop-opacity:1;" offset="0.789062"/><stop style="stop-color:#314aa1;stop-opacity:1;" offset="0.792969"/><stop style="stop-color:#314aa1;stop-opacity:1;" offset="0.796875"/><stop style="stop-color:#3149a1;stop-opacity:1;" offset="0.800781"/><stop style="stop-color:#3149a1;stop-opacity:1;" offset="0.804688"/><stop style="stop-color:#3149a0;stop-opacity:1;" offset="0.808594"/><stop style="stop-color:#3048a0;stop-opacity:1;" offset="0.8125"/><stop style="stop-color:#30489f;stop-opacity:1;" offset="0.816406"/><stop style="stop-color:#30479f;stop-opacity:1;" offset="0.820312"/><stop style="stop-color:#30469f;stop-opacity:1;" offset="0.828125"/><stop style="stop-color:#30469e;stop-opacity:1;" offset="0.835938"/><stop style="stop-color:#2f459e;stop-opacity:1;" offset="0.84375"/><stop style="stop-color:#2f459d;stop-opacity:1;" offset="0.847656"/><stop style="stop-color:#2f459d;stop-opacity:1;" offset="0.851562"/><stop style="stop-color:#2f449d;stop-opacity:1;" offset="0.855469"/><stop style="stop-color:#2f449d;stop-opacity:1;" offset="0.859375"/><stop style="stop-color:#2f449c;stop-opacity:1;" offset="0.863281"/><stop style="stop-color:#2f439c;stop-opacity:1;" offset="0.871094"/><stop style="stop-color:#2f429b;stop-opacity:1;" offset="0.878906"/><stop style="stop-color:#2f429b;stop-opacity:1;" offset="0.882812"/><stop style="stop-color:#2f419a;stop-opacity:1;" offset="0.886719"/><stop style="stop-color:#2f419a;stop-opacity:1;" offset="0.890625"/><stop style="stop-color:#2e419a;stop-opacity:1;" offset="0.894531"/><stop style="stop-color:#2e4099;stop-opacity:1;" offset="0.898438"/><stop style="stop-color:#2e4099;stop-opacity:1;" offset="0.902344"/><stop style="stop-color:#2e3f98;stop-opacity:1;" offset="0.90625"/><stop style="stop-color:#2e3e98;stop-opacity:1;" offset="0.917969"/><stop style="stop-color:#2e3e97;stop-opacity:1;" offset="0.921875"/><stop style="stop-color:#2e3e97;stop-opacity:1;" offset="0.925781"/><stop style="stop-color:#2d3d97;stop-opacity:1;" offset="0.933594"/><stop style="stop-color:#2d3c96;stop-opacity:1;" offset="0.9375"/><stop style="stop-color:#2d3c96;stop-opacity:1;" offset="0.941406"/><stop style="stop-color:#2d3b96;stop-opacity:1;" offset="0.945312"/><stop style="stop-color:#2d3b95;stop-opacity:1;" offset="0.949219"/><stop style="stop-color:#2d3a95;stop-opacity:1;" offset="0.960938"/><stop style="stop-color:#2d3a94;stop-opacity:1;" offset="0.964844"/><stop style="stop-color:#2c3a94;stop-opacity:1;" offset="0.96875"/><stop style="stop-color:#2c3993;stop-opacity:1;" offset="0.976562"/><stop style="stop-color:#2c3993;stop-opacity:1;" offset="0.980469"/><stop style="stop-color:#2c3992;stop-opacity:1;" offset="0.984375"/><stop style="stop-color:#2c3892;stop-opacity:1;" offset="1"/></radialGradient><clipPath id="e227cf9cf1"><path d="M 60.300781 67.085938 L 347 67.085938 L 347 208.730469 L 60.300781 208.730469 Z M 60.300781 67.085938 "/></clipPath><clipPath id="0a110959e8"><path d="M 234.101562 189.8125 C 234.101562 189.8125 234.554688 190.097656 235.433594 190.648438 C 236.296875 191.222656 237.640625 191.972656 239.351562 192.941406 C 242.820312 194.839844 248.128906 197.257812 255.117188 198.964844 C 262.070312 200.605469 270.894531 201.394531 280.324219 199.582031 C 281.574219 199.328125 282.964844 199.136719 284.152344 198.820312 C 285.285156 198.488281 286.4375 198.152344 287.605469 197.8125 C 288.753906 197.550781 289.972656 196.964844 291.175781 196.527344 C 292.382812 196.066406 293.613281 195.628906 294.785156 194.988281 C 299.597656 192.800781 304.273438 189.738281 308.535156 185.953125 C 317.082031 178.460938 324.046875 167.761719 326.628906 155.445312 C 326.882812 153.902344 327.136719 152.351562 327.394531 150.789062 C 327.578125 149.21875 327.632812 147.625 327.777344 146.042969 L 327.8125 145.59375 C 327.804688 145.761719 327.847656 145.011719 327.800781 145.933594 L 327.789062 145.226562 L 327.757812 143.816406 L 327.703125 140.976562 C 327.757812 138.878906 327.375 137.695312 327.207031 136.167969 L 326.902344 133.960938 L 326.316406 131.585938 L 325.761719 129.199219 C 325.605469 128.394531 325.246094 127.644531 325.003906 126.863281 C 324.035156 123.726562 322.636719 120.710938 321.0625 117.796875 C 317.828125 111.996094 313.503906 106.699219 308.269531 102.386719 C 303.027344 98.089844 296.925781 94.78125 290.402344 92.746094 C 288.746094 92.324219 287.085938 91.902344 285.425781 91.484375 L 280.332031 90.730469 C 278.621094 90.578125 276.886719 90.597656 275.167969 90.492188 L 274.523438 90.457031 C 274.105469 90.460938 274.910156 90.441406 274.75 90.449219 L 274.550781 90.457031 L 274.15625 90.472656 L 272.574219 90.535156 L 269.402344 90.65625 L 268.609375 90.6875 C 268.367188 90.703125 268.175781 90.738281 267.953125 90.761719 L 266.679688 90.914062 L 264.128906 91.195312 C 262.386719 91.417969 260.492188 91.820312 258.675781 92.113281 C 256.851562 92.496094 255.039062 92.988281 253.214844 93.40625 L 247.804688 95.050781 C 233.378906 99.804688 219.753906 108.136719 206.945312 117.609375 C 203.746094 119.992188 200.597656 122.460938 197.496094 124.992188 C 194.386719 127.480469 191.25 130.089844 188.226562 132.675781 C 182.105469 137.890625 176.117188 143.265625 170.058594 148.496094 C 164.03125 153.714844 157.980469 159.011719 151.878906 163.871094 C 145.671875 168.808594 139.238281 173.695312 132.035156 177.550781 C 124.917969 181.433594 116.945312 184.332031 108.78125 185.097656 C 107.769531 185.234375 106.738281 185.214844 105.726562 185.269531 L 104.214844 185.324219 C 104.519531 185.316406 103.578125 185.335938 103.621094 185.328125 L 103.460938 185.316406 L 102.507812 185.253906 C 101.667969 185.195312 100.824219 185.140625 99.988281 185.085938 C 99.03125 184.988281 97.855469 184.792969 96.816406 184.632812 C 94.582031 184.351562 92.824219 183.734375 90.925781 183.230469 C 89.09375 182.613281 87.300781 181.921875 85.605469 181.117188 C 78.832031 177.828125 73.269531 173.183594 69.210938 167.910156 C 65.199219 162.589844 62.570312 156.746094 61.363281 151.035156 C 60.144531 145.363281 60.273438 139.710938 61.132812 135.121094 C 61.933594 130.308594 63.417969 126.167969 65.105469 122.625 C 66.796875 119.082031 68.722656 116.175781 70.59375 113.847656 C 72.464844 111.511719 74.21875 109.699219 75.734375 108.339844 C 76.46875 107.644531 77.164062 107.078125 77.769531 106.601562 C 78.363281 106.109375 78.882812 105.726562 79.308594 105.429688 C 80.152344 104.824219 80.585938 104.511719 80.585938 104.511719 C 80.585938 104.511719 80.234375 104.914062 79.554688 105.691406 C 78.863281 106.457031 77.90625 107.65625 76.742188 109.246094 C 74.414062 112.410156 71.441406 117.457031 69.539062 124.296875 C 68.640625 127.710938 67.9375 131.59375 67.957031 135.722656 C 67.929688 140.035156 68.492188 144.242188 70.121094 148.535156 C 71.738281 152.777344 74.308594 156.933594 77.84375 160.460938 C 81.398438 163.949219 85.859375 166.820312 90.832031 168.5 C 91.429688 168.769531 92.097656 168.851562 92.726562 169.039062 C 93.367188 169.1875 93.984375 169.425781 94.640625 169.515625 C 95.921875 169.6875 97.324219 170.027344 98.410156 169.992188 C 99.019531 170.011719 99.492188 170.085938 100.199219 170.097656 C 101.039062 170.066406 101.878906 170.035156 102.722656 170 L 103.355469 169.976562 L 103.675781 169.964844 L 103.835938 169.957031 C 103.980469 169.957031 103.144531 169.960938 103.558594 169.949219 L 104.585938 169.789062 C 105.269531 169.667969 105.953125 169.640625 106.640625 169.453125 C 112.109375 168.324219 117.621094 165.90625 123.007812 162.277344 C 128.414062 158.722656 133.753906 154.1875 139.167969 149.140625 C 144.671875 143.96875 150.210938 138.710938 155.902344 133.128906 C 161.5625 127.5625 167.441406 121.902344 173.574219 116.210938 C 179.695312 110.503906 186.152344 104.84375 193.058594 99.453125 C 206.777344 88.640625 222.453125 78.777344 240.351562 72.703125 C 249.371094 69.761719 258.566406 67.863281 268.589844 67.324219 L 271.761719 67.226562 L 273.347656 67.179688 L 273.746094 67.167969 L 273.941406 67.160156 C 273.925781 67.160156 274.847656 67.148438 274.566406 67.15625 L 275.503906 67.207031 C 277.996094 67.375 280.492188 67.457031 282.964844 67.746094 C 285.425781 68.160156 287.890625 68.542969 290.320312 69.035156 C 292.71875 69.6875 295.113281 70.347656 297.484375 71.050781 C 316.347656 77.339844 331.644531 91.515625 339.601562 108.296875 C 341.582031 112.496094 343.25 116.804688 344.359375 121.21875 C 344.636719 122.320312 345.023438 123.394531 345.199219 124.511719 L 345.769531 127.84375 C 345.945312 128.949219 346.125 130.054688 346.296875 131.15625 C 346.40625 132.316406 346.464844 133.519531 346.535156 134.691406 C 346.644531 136.988281 346.859375 139.589844 346.667969 141.292969 L 346.519531 144.125 L 346.441406 145.535156 L 346.40625 146.238281 C 346.363281 147.277344 346.378906 146.644531 346.363281 146.925781 L 346.332031 147.125 L 346.273438 147.527344 C 345.949219 149.660156 345.6875 151.785156 345.277344 153.867188 C 344.769531 155.929688 344.273438 157.980469 343.707031 159.984375 C 341.261719 167.980469 337.460938 175.234375 332.789062 181.394531 C 328.105469 187.550781 322.65625 192.695312 316.84375 196.707031 C 311.03125 200.699219 304.949219 203.753906 298.859375 205.574219 C 297.371094 206.128906 295.835938 206.464844 294.335938 206.816406 C 292.8125 207.144531 291.417969 207.589844 289.839844 207.761719 C 288.3125 207.976562 286.808594 208.183594 285.324219 208.394531 C 283.886719 208.550781 282.640625 208.515625 281.320312 208.585938 C 270.101562 209.03125 260.699219 206.511719 253.613281 203.425781 C 246.5 200.3125 241.695312 196.613281 238.589844 194.054688 C 237.042969 192.734375 235.925781 191.671875 235.210938 190.925781 C 234.480469 190.191406 234.101562 189.8125 234.101562 189.8125 Z M 234.101562 189.8125 "/></clipPath><clipPath id="8f7592b4b4"><path d="M 234.101562 189.8125 C 234.101562 189.8125 234.554688 190.097656 235.433594 190.648438 C 236.296875 191.222656 237.640625 191.972656 239.351562 192.941406 C 242.820312 194.839844 248.128906 197.257812 255.117188 198.964844 C 262.070312 200.605469 270.894531 201.394531 280.324219 199.582031 C 281.574219 199.328125 282.964844 199.136719 284.152344 198.820312 C 285.285156 198.488281 286.4375 198.152344 287.605469 197.8125 C 288.753906 197.550781 289.972656 196.964844 291.175781 196.527344 C 292.382812 196.066406 293.613281 195.628906 294.785156 194.988281 C 299.597656 192.800781 304.273438 189.738281 308.535156 185.953125 C 317.082031 178.460938 324.046875 167.761719 326.628906 155.445312 C 326.882812 153.902344 327.136719 152.351562 327.394531 150.789062 C 327.578125 149.21875 327.632812 147.625 327.777344 146.042969 L 327.8125 145.59375 C 327.804688 145.761719 327.847656 145.011719 327.800781 145.933594 L 327.789062 145.226562 L 327.757812 143.816406 L 327.703125 140.976562 C 327.757812 138.878906 327.375 137.695312 327.207031 136.167969 L 326.902344 133.960938 L 326.316406 131.585938 L 325.761719 129.199219 C 325.605469 128.394531 325.246094 127.644531 325.003906 126.863281 C 324.035156 123.726562 322.636719 120.710938 321.0625 117.796875 C 317.828125 111.996094 313.503906 106.699219 308.269531 102.386719 C 303.027344 98.089844 296.925781 94.78125 290.402344 92.746094 C 288.746094 92.324219 287.085938 91.902344 285.425781 91.484375 L 280.332031 90.730469 C 278.621094 90.578125 276.886719 90.597656 275.167969 90.492188 L 274.523438 90.457031 C 274.105469 90.460938 274.910156 90.441406 274.75 90.449219 L 274.550781 90.457031 L 274.15625 90.472656 L 272.574219 90.535156 L 269.402344 90.65625 L 268.609375 90.6875 C 268.367188 90.703125 268.175781 90.738281 267.953125 90.761719 L 266.679688 90.914062 L 264.128906 91.195312 C 262.386719 91.417969 260.492188 91.820312 258.675781 92.113281 C 256.851562 92.496094 255.039062 92.988281 253.214844 93.40625 L 247.804688 95.050781 C 233.378906 99.804688 219.753906 108.136719 206.945312 117.609375 C 203.746094 119.992188 200.597656 122.460938 197.496094 124.992188 C 194.386719 127.480469 191.25 130.089844 188.226562 132.675781 C 182.105469 137.890625 176.117188 143.265625 170.058594 148.496094 C 164.03125 153.714844 157.980469 159.011719 151.878906 163.871094 C 145.671875 168.808594 139.238281 173.695312 132.035156 177.550781 C 124.917969 181.433594 116.945312 184.332031 108.78125 185.097656 C 107.769531 185.234375 106.738281 185.214844 105.726562 185.269531 L 104.214844 185.324219 C 104.519531 185.316406 103.578125 185.335938 103.621094 185.328125 L 103.460938 185.316406 L 102.507812 185.253906 C 101.667969 185.195312 100.824219 185.140625 99.988281 185.085938 C 99.03125 184.988281 97.855469 184.792969 96.816406 184.632812 C 94.582031 184.351562 92.824219 183.734375 90.925781 183.230469 C 89.09375 182.613281 87.300781 181.921875 85.605469 181.117188 C 78.832031 177.828125 73.269531 173.183594 69.210938 167.910156 C 65.199219 162.589844 62.570312 156.746094 61.363281 151.035156 C 60.144531 145.363281 60.273438 139.710938 61.132812 135.121094 C 61.933594 130.308594 63.417969 126.167969 65.105469 122.625 C 66.796875 119.082031 68.722656 116.175781 70.59375 113.847656 C 72.464844 111.511719 74.21875 109.699219 75.734375 108.339844 C 76.46875 107.644531 77.164062 107.078125 77.769531 106.601562 C 78.363281 106.109375 78.882812 105.726562 79.308594 105.429688 C 80.152344 104.824219 80.585938 104.511719 80.585938 104.511719 C 80.585938 104.511719 80.234375 104.914062 79.554688 105.691406 C 78.863281 106.457031 77.90625 107.65625 76.742188 109.246094 C 74.414062 112.410156 71.441406 117.457031 69.539062 124.296875 C 68.640625 127.710938 67.9375 131.59375 67.957031 135.722656 C 67.929688 140.035156 68.492188 144.242188 70.121094 148.535156 C 71.738281 152.777344 74.308594 156.933594 77.84375 160.460938 C 81.398438 163.949219 85.859375 166.820312 90.832031 168.5 C 91.429688 168.769531 92.097656 168.851562 92.726562 169.039062 C 93.367188 169.1875 93.984375 169.425781 94.640625 169.515625 C 95.921875 169.6875 97.324219 170.027344 98.410156 169.992188 C 99.019531 170.011719 99.492188 170.085938 100.199219 170.097656 C 101.039062 170.066406 101.878906 170.035156 102.722656 170 L 103.355469 169.976562 L 103.675781 169.964844 L 103.835938 169.957031 C 103.980469 169.957031 103.144531 169.960938 103.558594 169.949219 L 104.585938 169.789062 C 105.269531 169.667969 105.953125 169.640625 106.640625 169.453125 C 112.109375 168.324219 117.621094 165.90625 123.007812 162.277344 C 128.414062 158.722656 133.753906 154.1875 139.167969 149.140625 C 144.671875 143.96875 150.210938 138.710938 155.902344 133.128906 C 161.5625 127.5625 167.441406 121.902344 173.574219 116.210938 C 179.695312 110.503906 186.152344 104.84375 193.058594 99.453125 C 206.777344 88.640625 222.453125 78.777344 240.351562 72.703125 C 249.371094 69.761719 258.566406 67.863281 268.589844 67.324219 L 271.761719 67.226562 L 273.347656 67.179688 L 273.746094 67.167969 L 273.941406 67.160156 C 273.925781 67.160156 274.847656 67.148438 274.566406 67.15625 L 275.503906 67.207031 C 277.996094 67.375 280.492188 67.457031 282.964844 67.746094 C 285.425781 68.160156 287.890625 68.542969 290.320312 69.035156 C 292.71875 69.6875 295.113281 70.347656 297.484375 71.050781 C 316.347656 77.339844 331.644531 91.515625 339.601562 108.296875 C 341.582031 112.496094 343.25 116.804688 344.359375 121.21875 C 344.636719 122.320312 345.023438 123.394531 345.199219 124.511719 L 345.769531 127.84375 C 345.945312 128.949219 346.125 130.054688 346.296875 131.15625 C 346.40625 132.316406 346.464844 133.519531 346.535156 134.691406 C 346.644531 136.988281 346.859375 139.589844 346.667969 141.292969 L 346.519531 144.125 L 346.441406 145.535156 L 346.40625 146.238281 C 346.363281 147.277344 346.378906 146.644531 346.363281 146.925781 L 346.332031 147.125 L 346.273438 147.527344 C 345.949219 149.660156 345.6875 151.785156 345.277344 153.867188 C 344.769531 155.929688 344.273438 157.980469 343.707031 159.984375 C 341.261719 167.980469 337.460938 175.234375 332.789062 181.394531 C 328.105469 187.550781 322.65625 192.695312 316.84375 196.707031 C 311.03125 200.699219 304.949219 203.753906 298.859375 205.574219 C 297.371094 206.128906 295.835938 206.464844 294.335938 206.816406 C 292.8125 207.144531 291.417969 207.589844 289.839844 207.761719 C 288.3125 207.976562 286.808594 208.183594 285.324219 208.394531 C 283.886719 208.550781 282.640625 208.515625 281.320312 208.585938 C 270.101562 209.03125 260.699219 206.511719 253.613281 203.425781 C 246.5 200.3125 241.695312 196.613281 238.589844 194.054688 C 237.042969 192.734375 235.925781 191.671875 235.210938 190.925781 C 234.480469 190.191406 234.101562 189.8125 234.101562 189.8125 "/></clipPath><clipPath id="a8b168ce6b"><path d="M 411.851562 109.652344 L 146.035156 -64.191406 L -4.851562 166.527344 L 260.96875 340.371094 Z M 411.851562 109.652344 "/></clipPath><radialGradient gradientTransform="matrix(-0.547326,0.836922,-0.836912,-0.547333,235.716489,19.65381)" id="7db17dc56c" gradientUnits="userSpaceOnUse" r="264.446933" cx="0" fx="0" cy="0" fy="0"><stop style="stop-color:#00adef;stop-opacity:1;" offset="0"/><stop style="stop-color:#01adee;stop-opacity:1;" offset="0.0078125"/><stop style="stop-color:#01acee;stop-opacity:1;" offset="0.0117188"/><stop style="stop-color:#01acee;stop-opacity:1;" offset="0.015625"/><stop style="stop-color:#02acee;stop-opacity:1;" offset="0.0195312"/><stop style="stop-color:#02acee;stop-opacity:1;" offset="0.0234375"/><stop style="stop-color:#02acee;stop-opacity:1;" offset="0.0273438"/><stop style="stop-color:#02abed;stop-opacity:1;" offset="0.03125"/><stop style="stop-color:#03abed;stop-opacity:1;" offset="0.0351562"/><stop style="stop-color:#03abed;stop-opacity:1;" offset="0.046875"/><stop style="stop-color:#03aaed;stop-opacity:1;" offset="0.0507812"/><stop style="stop-color:#03aaec;stop-opacity:1;" offset="0.0546875"/><stop style="stop-color:#04aaec;stop-opacity:1;" offset="0.0585938"/><stop style="stop-color:#04aaec;stop-opacity:1;" offset="0.0625"/><stop style="stop-color:#04aaec;stop-opacity:1;" offset="0.0664062"/><stop style="stop-color:#05a9eb;stop-opacity:1;" offset="0.0703125"/><stop style="stop-color:#05a9eb;stop-opacity:1;" offset="0.0820312"/><stop style="stop-color:#06a9eb;stop-opacity:1;" offset="0.0859375"/><stop style="stop-color:#06a8eb;stop-opacity:1;" offset="0.0898438"/><stop style="stop-color:#06a8ea;stop-opacity:1;" offset="0.101562"/><stop style="stop-color:#07a7ea;stop-opacity:1;" offset="0.105469"/><stop style="stop-color:#07a7ea;stop-opacity:1;" offset="0.117188"/><stop style="stop-color:#07a7ea;stop-opacity:1;" offset="0.121094"/><stop style="stop-color:#08a7e9;stop-opacity:1;" offset="0.125"/><stop style="stop-color:#08a6e9;stop-opacity:1;" offset="0.128906"/><stop style="stop-color:#08a6e9;stop-opacity:1;" offset="0.140625"/><stop style="stop-color:#08a5e9;stop-opacity:1;" offset="0.144531"/><stop style="stop-color:#09a5e8;stop-opacity:1;" offset="0.148438"/><stop style="stop-color:#09a5e8;stop-opacity:1;" offset="0.152344"/><stop style="stop-color:#09a5e8;stop-opacity:1;" offset="0.15625"/><stop style="stop-color:#0aa5e8;stop-opacity:1;" offset="0.160156"/><stop style="stop-color:#0aa4e8;stop-opacity:1;" offset="0.164062"/><stop style="stop-color:#0aa4e8;stop-opacity:1;" offset="0.167969"/><stop style="stop-color:#0ba4e7;stop-opacity:1;" offset="0.171875"/><stop style="stop-color:#0ba4e7;stop-opacity:1;" offset="0.183594"/><stop style="stop-color:#0ba3e7;stop-opacity:1;" offset="0.1875"/><stop style="stop-color:#0ca3e6;stop-opacity:1;" offset="0.191406"/><stop style="stop-color:#0da2e6;stop-opacity:1;" offset="0.203125"/><stop style="stop-color:#0da2e6;stop-opacity:1;" offset="0.214844"/><stop style="stop-color:#0ea2e5;stop-opacity:1;" offset="0.21875"/><stop style="stop-color:#0ea1e5;stop-opacity:1;" offset="0.222656"/><stop style="stop-color:#0ea1e5;stop-opacity:1;" offset="0.226562"/><stop style="stop-color:#0ea1e5;stop-opacity:1;" offset="0.230469"/><stop style="stop-color:#0ea1e4;stop-opacity:1;" offset="0.234375"/><stop style="stop-color:#0fa0e4;stop-opacity:1;" offset="0.238281"/><stop style="stop-color:#10a0e4;stop-opacity:1;" offset="0.25"/><stop style="stop-color:#10a0e3;stop-opacity:1;" offset="0.253906"/><stop style="stop-color:#109fe3;stop-opacity:1;" offset="0.261719"/><stop style="stop-color:#109fe3;stop-opacity:1;" offset="0.269531"/><stop style="stop-color:#119ee3;stop-opacity:1;" offset="0.273438"/><stop style="stop-color:#119ee2;stop-opacity:1;" offset="0.28125"/><stop style="stop-color:#129ee2;stop-opacity:1;" offset="0.289062"/><stop style="stop-color:#129de2;stop-opacity:1;" offset="0.296875"/><stop style="stop-color:#139de1;stop-opacity:1;" offset="0.304688"/><stop style="stop-color:#139ce1;stop-opacity:1;" offset="0.3125"/><stop style="stop-color:#149ce1;stop-opacity:1;" offset="0.320312"/><stop style="stop-color:#149ce0;stop-opacity:1;" offset="0.328125"/><stop style="stop-color:#149ce0;stop-opacity:1;" offset="0.332031"/><stop style="stop-color:#149be0;stop-opacity:1;" offset="0.335938"/><stop style="stop-color:#149adf;stop-opacity:1;" offset="0.34375"/><stop style="stop-color:#159adf;stop-opacity:1;" offset="0.347656"/><stop style="stop-color:#1699df;stop-opacity:1;" offset="0.355469"/><stop style="stop-color:#1699de;stop-opacity:1;" offset="0.363281"/><stop style="stop-color:#1799de;stop-opacity:1;" offset="0.371094"/><stop style="stop-color:#1798de;stop-opacity:1;" offset="0.378906"/><stop style="stop-color:#1798dd;stop-opacity:1;" offset="0.386719"/><stop style="stop-color:#1897dd;stop-opacity:1;" offset="0.394531"/><stop style="stop-color:#1897dd;stop-opacity:1;" offset="0.402344"/><stop style="stop-color:#1996dc;stop-opacity:1;" offset="0.410156"/><stop style="stop-color:#1995db;stop-opacity:1;" offset="0.425781"/><stop style="stop-color:#1a95db;stop-opacity:1;" offset="0.433594"/><stop style="stop-color:#1a95db;stop-opacity:1;" offset="0.4375"/><stop style="stop-color:#1b95db;stop-opacity:1;" offset="0.441406"/><stop style="stop-color:#1b94da;stop-opacity:1;" offset="0.449219"/><stop style="stop-color:#1c94da;stop-opacity:1;" offset="0.457031"/><stop style="stop-color:#1c93da;stop-opacity:1;" offset="0.464844"/><stop style="stop-color:#1c93d9;stop-opacity:1;" offset="0.472656"/><stop style="stop-color:#1d92d9;stop-opacity:1;" offset="0.480469"/><stop style="stop-color:#1d91d8;stop-opacity:1;" offset="0.496094"/><stop style="stop-color:#1e91d8;stop-opacity:1;" offset="0.503906"/><stop style="stop-color:#1f90d8;stop-opacity:1;" offset="0.515625"/><stop style="stop-color:#1f90d7;stop-opacity:1;" offset="0.519531"/><stop style="stop-color:#2090d7;stop-opacity:1;" offset="0.53125"/><stop style="stop-color:#208fd7;stop-opacity:1;" offset="0.535156"/><stop style="stop-color:#208fd6;stop-opacity:1;" offset="0.539062"/><stop style="stop-color:#208fd6;stop-opacity:1;" offset="0.542969"/><stop style="stop-color:#208fd6;stop-opacity:1;" offset="0.546875"/><stop style="stop-color:#208ed6;stop-opacity:1;" offset="0.550781"/><stop style="stop-color:#208ed6;stop-opacity:1;" offset="0.554688"/><stop style="stop-color:#218ed6;stop-opacity:1;" offset="0.558594"/><stop style="stop-color:#218ed5;stop-opacity:1;" offset="0.5625"/><stop style="stop-color:#218dd5;stop-opacity:1;" offset="0.566406"/><stop style="stop-color:#228cd5;stop-opacity:1;" offset="0.578125"/><stop style="stop-color:#228cd4;stop-opacity:1;" offset="0.582031"/><stop style="stop-color:#228cd4;stop-opacity:1;" offset="0.585938"/><stop style="stop-color:#228cd4;stop-opacity:1;" offset="0.589844"/><stop style="stop-color:#238cd4;stop-opacity:1;" offset="0.59375"/><stop style="stop-color:#238cd4;stop-opacity:1;" offset="0.597656"/><stop style="stop-color:#238bd4;stop-opacity:1;" offset="0.601562"/><stop style="stop-color:#248bd3;stop-opacity:1;" offset="0.605469"/><stop style="stop-color:#248bd3;stop-opacity:1;" offset="0.609375"/><stop style="stop-color:#248ad3;stop-opacity:1;" offset="0.613281"/><stop style="stop-color:#248ad3;stop-opacity:1;" offset="0.617188"/><stop style="stop-color:#248ad2;stop-opacity:1;" offset="0.621094"/><stop style="stop-color:#2589d2;stop-opacity:1;" offset="0.632812"/><stop style="stop-color:#2689d2;stop-opacity:1;" offset="0.640625"/><stop style="stop-color:#2688d1;stop-opacity:1;" offset="0.648438"/><stop style="stop-color:#2788d1;stop-opacity:1;" offset="0.65625"/><stop style="stop-color:#2787d1;stop-opacity:1;" offset="0.664062"/><stop style="stop-color:#2787d0;stop-opacity:1;" offset="0.671875"/><stop style="stop-color:#2886d0;stop-opacity:1;" offset="0.679688"/><stop style="stop-color:#2886d0;stop-opacity:1;" offset="0.6875"/><stop style="stop-color:#2985cf;stop-opacity:1;" offset="0.695312"/><stop style="stop-color:#2984ce;stop-opacity:1;" offset="0.710938"/><stop style="stop-color:#2a84ce;stop-opacity:1;" offset="0.71875"/><stop style="stop-color:#2a83ce;stop-opacity:1;" offset="0.726562"/><stop style="stop-color:#2b83cd;stop-opacity:1;" offset="0.734375"/><stop style="stop-color:#2b82cd;stop-opacity:1;" offset="0.742188"/><stop style="stop-color:#2c82cd;stop-opacity:1;" offset="0.75"/><stop style="stop-color:#2c82cd;stop-opacity:1;" offset="0.757812"/><stop style="stop-color:#2c81cc;stop-opacity:1;" offset="0.761719"/><stop style="stop-color:#2d80cc;stop-opacity:1;" offset="0.773438"/><stop style="stop-color:#2d80cc;stop-opacity:1;" offset="0.777344"/><stop style="stop-color:#2d80cb;stop-opacity:1;" offset="0.78125"/><stop style="stop-color:#2d80cb;stop-opacity:1;" offset="0.785156"/><stop style="stop-color:#2d7fcb;stop-opacity:1;" offset="0.789062"/><stop style="stop-color:#2d7fcb;stop-opacity:1;" offset="0.792969"/><stop style="stop-color:#2e7fcb;stop-opacity:1;" offset="0.796875"/><stop style="stop-color:#2e7fcb;stop-opacity:1;" offset="0.800781"/><stop style="stop-color:#2e7fca;stop-opacity:1;" offset="0.804688"/><stop style="stop-color:#2e7eca;stop-opacity:1;" offset="0.808594"/><stop style="stop-color:#2f7eca;stop-opacity:1;" offset="0.8125"/><stop style="stop-color:#2f7dc9;stop-opacity:1;" offset="0.816406"/><stop style="stop-color:#307dc9;stop-opacity:1;" offset="0.824219"/><stop style="stop-color:#307cc9;stop-opacity:1;" offset="0.832031"/><stop style="stop-color:#307cc8;stop-opacity:1;" offset="0.839844"/><stop style="stop-color:#317cc8;stop-opacity:1;" offset="0.847656"/><stop style="stop-color:#317bc8;stop-opacity:1;" offset="0.851562"/><stop style="stop-color:#317bc8;stop-opacity:1;" offset="0.859375"/><stop style="stop-color:#327ac7;stop-opacity:1;" offset="0.867188"/><stop style="stop-color:#327ac7;stop-opacity:1;" offset="0.882812"/><stop style="stop-color:#3379c6;stop-opacity:1;" offset="0.886719"/><stop style="stop-color:#3379c6;stop-opacity:1;" offset="0.890625"/><stop style="stop-color:#3379c6;stop-opacity:1;" offset="0.894531"/><stop style="stop-color:#3479c5;stop-opacity:1;" offset="0.898438"/><stop style="stop-color:#3478c5;stop-opacity:1;" offset="0.910156"/><stop style="stop-color:#3577c5;stop-opacity:1;" offset="0.917969"/><stop style="stop-color:#3577c5;stop-opacity:1;" offset="0.925781"/><stop style="stop-color:#3576c4;stop-opacity:1;" offset="0.933594"/><stop style="stop-color:#3576c4;stop-opacity:1;" offset="0.941406"/><stop style="stop-color:#3575c4;stop-opacity:1;" offset="0.945312"/><stop style="stop-color:#3675c4;stop-opacity:1;" offset="0.949219"/><stop style="stop-color:#3675c4;stop-opacity:1;" offset="0.953125"/><stop style="stop-color:#3774c3;stop-opacity:1;" offset="0.957031"/><stop style="stop-color:#3774c3;stop-opacity:1;" offset="0.964844"/><stop style="stop-color:#3773c3;stop-opacity:1;" offset="0.972656"/><stop style="stop-color:#3873c2;stop-opacity:1;" offset="0.976562"/><stop style="stop-color:#3872c2;stop-opacity:1;" offset="0.980469"/><stop style="stop-color:#3872c2;stop-opacity:1;" offset="0.988281"/><stop style="stop-color:#3872c2;stop-opacity:1;" offset="0.992188"/><stop style="stop-color:#3872c1;stop-opacity:1;" offset="1"/></radialGradient></defs><g id="878a54a9f9"><g clip-rule="nonzero" clip-path="url(#aa5004a624)"><g clip-rule="nonzero" clip-path="url(#0e66303c45)"><g clip-rule="nonzero" clip-path="url(#624913fca1)"><g clip-rule="nonzero" clip-path="url(#2028d7c2e8)"><path style=" stroke:none;fill-rule:nonzero;fill:url(#ed02b5c44e);" d="M 404.894531 85.527344 L 114.984375 -104.070312 L -59.140625 162.191406 L 230.765625 351.785156 Z M 404.894531 85.527344 "/></g></g></g></g><g clip-rule="nonzero" clip-path="url(#e227cf9cf1)"><g clip-rule="nonzero" clip-path="url(#0a110959e8)"><g clip-rule="nonzero" clip-path="url(#8f7592b4b4)"><g clip-rule="nonzero" clip-path="url(#a8b168ce6b)"><path style=" stroke:none;fill-rule:nonzero;fill:url(#7db17dc56c);" d="M 411.714844 109.5625 L 146.148438 -64.117188 L -4.550781 166.316406 L 261.015625 339.996094 Z M 411.714844 109.5625 "/></g></g></g></g><g style="fill:#2c3892;fill-opacity:1;"><g transform="translate(11.612059, 316.824448)"><path style="stroke:none" d="M 43.125 1.421875 C 33.09375 1.421875 25.253906 -1.695312 19.609375 -7.9375 C 13.960938 -14.175781 11.140625 -22.785156 11.140625 -33.765625 L 11.140625 -82.921875 L 21.4375 -82.921875 L 21.4375 -34.46875 C 21.4375 -26.019531 23.289062 -19.625 27 -15.28125 C 30.71875 -10.9375 36.09375 -8.765625 43.125 -8.765625 C 57.570312 -8.765625 64.796875 -17.332031 64.796875 -34.46875 L 64.796875 -82.921875 L 75.234375 -82.921875 L 75.234375 -33.765625 C 75.234375 -22.785156 72.390625 -14.175781 66.703125 -7.9375 C 61.015625 -1.695312 53.15625 1.421875 43.125 1.421875 Z M 43.125 1.421875 "/></g></g><g style="fill:#2c3892;fill-opacity:1;"><g transform="translate(96.766765, 316.824448)"><path style="stroke:none" d="M 37.546875 0 C 30.753906 0 25.484375 -1.929688 21.734375 -5.796875 C 17.984375 -9.671875 16.109375 -15.125 16.109375 -22.15625 L 16.109375 -52.359375 L 3.203125 -52.359375 L 3.203125 -61.484375 L 9.359375 -61.484375 C 12.203125 -61.484375 14.175781 -61.957031 15.28125 -62.90625 C 16.382812 -63.851562 17.097656 -65.707031 17.421875 -68.46875 L 18.359375 -76.765625 L 26.0625 -76.765625 L 26.0625 -61.484375 L 45.96875 -61.484375 L 45.96875 -52.359375 L 26.0625 -52.359375 L 26.0625 -22.625 C 26.0625 -13.9375 30.050781 -9.59375 38.03125 -9.59375 L 46.796875 -9.59375 L 46.796875 0 Z M 37.546875 0 "/></g></g><g style="fill:#2c3892;fill-opacity:1;"><g transform="translate(148.167399, 316.824448)"><path style="stroke:none" d="M 11.015625 0 L 11.015625 -61.484375 L 20.96875 -61.484375 L 20.96875 0 Z M 7.9375 -79.375 C 7.9375 -81.664062 8.664062 -83.539062 10.125 -85 C 11.59375 -86.457031 13.550781 -87.1875 16 -87.1875 C 18.445312 -87.1875 20.378906 -86.457031 21.796875 -85 C 23.222656 -83.539062 23.9375 -81.664062 23.9375 -79.375 C 23.9375 -77.164062 23.222656 -75.328125 21.796875 -73.859375 C 20.378906 -72.398438 18.445312 -71.671875 16 -71.671875 C 13.550781 -71.671875 11.59375 -72.398438 10.125 -73.859375 C 8.664062 -75.328125 7.9375 -77.164062 7.9375 -79.375 Z M 7.9375 -79.375 "/></g></g><g style="fill:#2c3892;fill-opacity:1;"><g transform="translate(178.960267, 316.824448)"><path style="stroke:none" d="M 11.015625 0 L 11.015625 -87.671875 L 20.96875 -87.671875 L 20.96875 0 Z M 11.015625 0 "/></g></g><g style="fill:#2c3892;fill-opacity:1;"><g transform="translate(209.753135, 316.824448)"><path style="stroke:none" d="M 11.015625 0 L 11.015625 -61.484375 L 20.96875 -61.484375 L 20.96875 0 Z M 7.9375 -79.375 C 7.9375 -81.664062 8.664062 -83.539062 10.125 -85 C 11.59375 -86.457031 13.550781 -87.1875 16 -87.1875 C 18.445312 -87.1875 20.378906 -86.457031 21.796875 -85 C 23.222656 -83.539062 23.9375 -81.664062 23.9375 -79.375 C 23.9375 -77.164062 23.222656 -75.328125 21.796875 -73.859375 C 20.378906 -72.398438 18.445312 -71.671875 16 -71.671875 C 13.550781 -71.671875 11.59375 -72.398438 10.125 -73.859375 C 8.664062 -75.328125 7.9375 -77.164062 7.9375 -79.375 Z M 7.9375 -79.375 "/></g></g><g style="fill:#2c3892;fill-opacity:1;"><g transform="translate(240.546002, 316.824448)"><path style="stroke:none" d="M 4.03125 0 L 27.609375 -31.28125 L 5.21875 -61.484375 L 17.171875 -61.484375 L 26.78125 -48.453125 L 34.125 -38.265625 L 41.578125 -48.453125 L 51.171875 -61.484375 L 63.03125 -61.484375 L 40.640625 -31.28125 L 64.203125 0 L 52.125 0 L 41.703125 -13.984375 L 34.234375 -24.28125 L 26.65625 -13.984375 L 16.109375 0 Z M 4.03125 0 "/></g></g><g style="fill:#2c3892;fill-opacity:1;"><g transform="translate(307.698528, 316.824448)"><path style="stroke:none" d="M 8.890625 23.6875 L 8.890625 14.328125 L 14.921875 14.328125 C 18.867188 14.328125 21.75 13.753906 23.5625 12.609375 C 25.382812 11.472656 26.929688 9.207031 28.203125 5.8125 L 31.03125 -1.421875 L 1.890625 -61.484375 L 13.03125 -61.484375 L 26.890625 -32.453125 L 35.890625 -13.390625 L 43.359375 -32.453125 L 54.84375 -61.484375 L 65.390625 -61.484375 L 37.203125 9.59375 C 35.773438 13.300781 34.132812 16.179688 32.28125 18.234375 C 30.425781 20.296875 28.195312 21.71875 25.59375 22.5 C 22.988281 23.289062 19.75 23.6875 15.875 23.6875 Z M 8.890625 23.6875 "/></g></g></g></svg>