<svg xmlns="http://www.w3.org/2000/svg" xmlns:xlink="http://www.w3.org/1999/xlink" width="500" zoomAndPan="magnify" viewBox="0 0 375 374.999991" height="500" preserveAspectRatio="xMidYMid meet" version="1.2"><defs><clipPath id="11945b6c2d"><path d="M 19.269531 86.5625 L 324.59375 86.5625 L 324.59375 288.3125 L 19.269531 288.3125 Z M 19.269531 86.5625 "/></clipPath><clipPath id="bb98554ae5"><path d="M 294.175781 244.921875 C 296.570312 243.445312 298.789062 241.875 300.839844 240.101562 C 302.871094 238.316406 304.738281 236.421875 306.390625 234.417969 C 312.289062 227.195312 315.507812 216.730469 313.289062 207.519531 C 312.789062 205.3125 311.976562 203.1875 310.878906 201.207031 C 309.804688 199.222656 308.507812 197.351562 306.953125 195.6875 C 300.847656 188.890625 291.703125 185.039062 282.296875 184.40625 C 272.84375 183.640625 263.09375 185.8125 254.03125 189.785156 C 252.882812 190.226562 251.773438 190.824219 250.648438 191.34375 C 250.125 191.601562 249.441406 191.910156 249.046875 192.121094 L 247.222656 193.085938 C 246.042969 193.738281 245.105469 194.265625 243.976562 194.9375 C 242.882812 195.578125 241.800781 196.25 240.726562 196.933594 C 236.421875 199.667969 232.296875 202.742188 228.246094 205.980469 C 220.140625 212.476562 212.542969 219.894531 204.910156 227.59375 C 197.242188 235.273438 189.566406 243.300781 181.226562 251.105469 C 172.855469 258.851562 163.753906 266.394531 153.378906 272.707031 C 143.054688 279.050781 131.277344 283.824219 119.03125 286.261719 C 112.90625 287.464844 106.695312 288.152344 100.523438 288.277344 L 99.367188 288.300781 L 98.511719 288.304688 L 95.933594 288.253906 C 95.324219 288.257812 94.34375 288.1875 93.503906 288.136719 C 92.648438 288.078125 91.746094 288.035156 90.929688 287.953125 C 87.710938 287.621094 84.492188 287.1875 81.324219 286.480469 C 68.640625 283.769531 56.503906 277.976562 46.582031 269.453125 C 36.628906 260.992188 28.839844 249.933594 24.304688 237.671875 C 21.976562 231.558594 20.5625 225.140625 19.886719 218.707031 L 19.726562 217.183594 L 19.664062 216.15625 L 19.542969 214.101562 L 19.511719 213.585938 L 19.496094 212.941406 L 19.476562 211.636719 L 19.457031 209.027344 C 19.550781 205.773438 19.765625 202.542969 20.242188 199.328125 C 21.171875 192.910156 22.84375 186.578125 25.355469 180.597656 C 27.882812 174.628906 31.140625 168.984375 35.011719 163.824219 C 38.890625 158.664062 43.433594 154.039062 48.433594 150 C 53.445312 145.96875 59.003906 142.648438 64.835938 140.003906 C 70.675781 137.351562 76.847656 135.46875 83.132812 134.390625 C 84.699219 134.097656 86.28125 133.882812 87.867188 133.738281 C 89.445312 133.535156 91.035156 133.464844 92.621094 133.382812 C 94.207031 133.261719 95.792969 133.335938 97.375 133.316406 L 98.238281 133.320312 L 98.753906 133.351562 L 99.78125 133.410156 L 101.84375 133.53125 L 92.578125 139.09375 C 96.636719 131.496094 101.609375 124.414062 107.441406 118.15625 C 113.253906 111.894531 119.816406 106.359375 126.976562 101.800781 C 134.148438 97.261719 141.863281 93.65625 149.871094 91.082031 C 157.886719 88.519531 166.210938 87.101562 174.503906 86.683594 C 178.652344 86.492188 182.8125 86.523438 186.917969 86.9375 L 189.839844 87.199219 L 192.992188 87.632812 C 195.117188 87.882812 197.125 88.304688 199.128906 88.722656 C 203.148438 89.5625 207.082031 90.734375 210.925781 92.078125 C 212.855469 92.726562 214.722656 93.5625 216.609375 94.296875 C 218.46875 95.117188 220.285156 96.035156 222.101562 96.910156 C 223.867188 97.90625 225.65625 98.835938 227.375 99.882812 C 229.0625 100.988281 230.816406 101.96875 232.425781 103.171875 C 234.054688 104.347656 235.710938 105.460938 237.242188 106.753906 L 239.570312 108.625 C 240.332031 109.265625 241.058594 109.953125 241.800781 110.613281 C 243.292969 111.921875 244.683594 113.34375 246.042969 114.78125 C 247.453125 116.167969 248.703125 117.707031 249.996094 119.1875 C 251.308594 120.648438 252.429688 122.28125 253.644531 123.804688 C 254.796875 125.394531 255.839844 127.050781 256.929688 128.660156 C 254.230469 125.839844 251.480469 123.113281 248.546875 120.609375 C 247.058594 119.382812 245.625 118.113281 244.054688 117.003906 L 241.746094 115.296875 C 240.972656 114.738281 240.15625 114.238281 239.367188 113.703125 C 238.574219 113.175781 237.800781 112.625 236.996094 112.121094 L 234.546875 110.664062 C 232.945312 109.652344 231.230469 108.824219 229.566406 107.941406 C 227.914062 107.035156 226.140625 106.355469 224.449219 105.550781 C 222.726562 104.804688 220.945312 104.1875 219.214844 103.5 L 213.878906 101.808594 C 212.066406 101.359375 210.300781 100.800781 208.480469 100.433594 C 204.855469 99.648438 201.214844 99.035156 197.546875 98.726562 C 195.714844 98.554688 193.882812 98.375 192.121094 98.367188 L 189.472656 98.285156 L 186.574219 98.347656 C 182.914062 98.355469 179.289062 98.785156 175.703125 99.289062 C 168.539062 100.355469 161.5625 102.300781 154.988281 105.09375 C 148.402344 107.851562 142.210938 111.429688 136.589844 115.699219 C 130.941406 119.933594 125.871094 124.875 121.507812 130.332031 C 117.164062 135.800781 113.445312 141.726562 110.570312 148.019531 L 108.035156 153.574219 L 101.304688 153.582031 L 99.238281 153.585938 L 98.210938 153.585938 L 97.695312 153.589844 C 98.195312 153.597656 97.769531 153.59375 97.855469 153.597656 L 97.742188 153.605469 L 97.523438 153.617188 C 96.359375 153.71875 95.1875 153.710938 94.035156 153.882812 C 92.878906 154.015625 91.71875 154.128906 90.578125 154.355469 C 89.429688 154.523438 88.296875 154.761719 87.167969 155.023438 C 82.652344 156.015625 78.285156 157.585938 74.199219 159.6875 C 66.007812 163.847656 58.933594 170.058594 53.683594 177.46875 C 51.089844 181.195312 48.953125 185.21875 47.332031 189.425781 C 45.765625 193.652344 44.640625 198.03125 44.101562 202.5 C 43.8125 204.726562 43.722656 206.992188 43.691406 209.230469 L 43.738281 210.738281 L 43.753906 211.492188 L 43.761719 211.878906 L 43.800781 212.390625 L 43.96875 214.445312 L 44.050781 215.472656 C 44.078125 215.808594 44.027344 215.164062 44.035156 215.265625 L 44.050781 215.371094 L 44.082031 215.578125 L 44.136719 215.996094 C 44.691406 220.476562 45.78125 224.847656 47.371094 229.007812 C 50.515625 237.347656 55.847656 244.808594 62.6875 250.546875 C 69.492188 256.324219 77.746094 260.4375 86.566406 262.363281 C 88.765625 262.875 91.011719 263.179688 93.261719 263.4375 C 93.8125 263.496094 94.289062 263.507812 94.800781 263.554688 C 95.335938 263.589844 95.722656 263.652344 96.492188 263.660156 L 98.554688 263.710938 L 99.070312 263.726562 C 98.550781 263.71875 98.992188 263.722656 98.90625 263.722656 L 99.019531 263.71875 L 99.246094 263.714844 L 100.148438 263.707031 C 104.988281 263.703125 109.757812 263.257812 114.453125 262.433594 C 123.84375 260.769531 132.808594 257.265625 141.40625 252.410156 C 150.011719 247.554688 158.171875 241.273438 166.160156 234.351562 C 174.199219 227.46875 182.070312 219.925781 190.277344 212.386719 C 198.507812 204.871094 207.128906 197.371094 216.585938 190.597656 C 221.308594 187.207031 226.285156 184.074219 231.464844 181.230469 C 232.757812 180.523438 234.066406 179.832031 235.390625 179.167969 C 236.675781 178.515625 238.191406 177.796875 239.464844 177.207031 L 241.347656 176.367188 C 242.195312 175.988281 242.785156 175.765625 243.515625 175.460938 C 244.917969 174.902344 246.285156 174.285156 247.730469 173.8125 C 259.058594 169.679688 271.621094 167.695312 284.085938 169.558594 C 296.460938 171.328125 308.722656 177.523438 316.597656 187.859375 C 318.566406 190.414062 320.191406 193.253906 321.460938 196.230469 C 322.757812 199.199219 323.644531 202.355469 324.082031 205.5625 C 324.546875 208.757812 324.605469 212.019531 324.164062 215.191406 C 324.042969 216.707031 323.570312 218.558594 323.222656 220.042969 L 322.605469 222.015625 L 322.390625 222.707031 L 322.140625 223.253906 L 321.640625 224.339844 C 318.90625 230.105469 314.585938 234.691406 309.824219 238.113281 C 307.445312 239.839844 304.898438 241.269531 302.253906 242.382812 C 299.628906 243.503906 296.90625 244.398438 294.175781 244.921875 Z M 294.175781 244.921875 "/></clipPath><clipPath id="140dc72fe8"><path d="M 294.175781 244.921875 C 296.570312 243.445312 298.789062 241.875 300.839844 240.101562 C 302.871094 238.316406 304.738281 236.421875 306.390625 234.417969 C 312.289062 227.195312 315.507812 216.730469 313.289062 207.519531 C 312.789062 205.3125 311.976562 203.1875 310.878906 201.207031 C 309.804688 199.222656 308.507812 197.351562 306.953125 195.6875 C 300.847656 188.890625 291.703125 185.039062 282.296875 184.40625 C 272.84375 183.640625 263.09375 185.8125 254.03125 189.785156 C 252.882812 190.226562 251.773438 190.824219 250.648438 191.34375 C 250.125 191.601562 249.441406 191.910156 249.046875 192.121094 L 247.222656 193.085938 C 246.042969 193.738281 245.105469 194.265625 243.976562 194.9375 C 242.882812 195.578125 241.800781 196.25 240.726562 196.933594 C 236.421875 199.667969 232.296875 202.742188 228.246094 205.980469 C 220.140625 212.476562 212.542969 219.894531 204.910156 227.59375 C 197.242188 235.273438 189.566406 243.300781 181.226562 251.105469 C 172.855469 258.851562 163.753906 266.394531 153.378906 272.707031 C 143.054688 279.050781 131.277344 283.824219 119.03125 286.261719 C 112.90625 287.464844 106.695312 288.152344 100.523438 288.277344 L 99.367188 288.300781 L 98.511719 288.304688 L 95.933594 288.253906 C 95.324219 288.257812 94.34375 288.1875 93.503906 288.136719 C 92.648438 288.078125 91.746094 288.035156 90.929688 287.953125 C 87.710938 287.621094 84.492188 287.1875 81.324219 286.480469 C 68.640625 283.769531 56.503906 277.976562 46.582031 269.453125 C 36.628906 260.992188 28.839844 249.933594 24.304688 237.671875 C 21.976562 231.558594 20.5625 225.140625 19.886719 218.707031 L 19.726562 217.183594 L 19.664062 216.15625 L 19.542969 214.101562 L 19.511719 213.585938 L 19.496094 212.941406 L 19.476562 211.636719 L 19.457031 209.027344 C 19.550781 205.773438 19.765625 202.542969 20.242188 199.328125 C 21.171875 192.910156 22.84375 186.578125 25.355469 180.597656 C 27.882812 174.628906 31.140625 168.984375 35.011719 163.824219 C 38.890625 158.664062 43.433594 154.039062 48.433594 150 C 53.445312 145.96875 59.003906 142.648438 64.835938 140.003906 C 70.675781 137.351562 76.847656 135.46875 83.132812 134.390625 C 84.699219 134.097656 86.28125 133.882812 87.867188 133.738281 C 89.445312 133.535156 91.035156 133.464844 92.621094 133.382812 C 94.207031 133.261719 95.792969 133.335938 97.375 133.316406 L 98.238281 133.320312 L 98.753906 133.351562 L 99.78125 133.410156 L 101.84375 133.53125 L 92.578125 139.09375 C 96.636719 131.496094 101.609375 124.414062 107.441406 118.15625 C 113.253906 111.894531 119.816406 106.359375 126.976562 101.800781 C 134.148438 97.261719 141.863281 93.65625 149.871094 91.082031 C 157.886719 88.519531 166.210938 87.101562 174.503906 86.683594 C 178.652344 86.492188 182.8125 86.523438 186.917969 86.9375 L 189.839844 87.199219 L 192.992188 87.632812 C 195.117188 87.882812 197.125 88.304688 199.128906 88.722656 C 203.148438 89.5625 207.082031 90.734375 210.925781 92.078125 C 212.855469 92.726562 214.722656 93.5625 216.609375 94.296875 C 218.46875 95.117188 220.285156 96.035156 222.101562 96.910156 C 223.867188 97.90625 225.65625 98.835938 227.375 99.882812 C 229.0625 100.988281 230.816406 101.96875 232.425781 103.171875 C 234.054688 104.347656 235.710938 105.460938 237.242188 106.753906 L 239.570312 108.625 C 240.332031 109.265625 241.058594 109.953125 241.800781 110.613281 C 243.292969 111.921875 244.683594 113.34375 246.042969 114.78125 C 247.453125 116.167969 248.703125 117.707031 249.996094 119.1875 C 251.308594 120.648438 252.429688 122.28125 253.644531 123.804688 C 254.796875 125.394531 255.839844 127.050781 256.929688 128.660156 C 254.230469 125.839844 251.480469 123.113281 248.546875 120.609375 C 247.058594 119.382812 245.625 118.113281 244.054688 117.003906 L 241.746094 115.296875 C 240.972656 114.738281 240.15625 114.238281 239.367188 113.703125 C 238.574219 113.175781 237.800781 112.625 236.996094 112.121094 L 234.546875 110.664062 C 232.945312 109.652344 231.230469 108.824219 229.566406 107.941406 C 227.914062 107.035156 226.140625 106.355469 224.449219 105.550781 C 222.726562 104.804688 220.945312 104.1875 219.214844 103.5 L 213.878906 101.808594 C 212.066406 101.359375 210.300781 100.800781 208.480469 100.433594 C 204.855469 99.648438 201.214844 99.035156 197.546875 98.726562 C 195.714844 98.554688 193.882812 98.375 192.121094 98.367188 L 189.472656 98.285156 L 186.574219 98.347656 C 182.914062 98.355469 179.289062 98.785156 175.703125 99.289062 C 168.539062 100.355469 161.5625 102.300781 154.988281 105.09375 C 148.402344 107.851562 142.210938 111.429688 136.589844 115.699219 C 130.941406 119.933594 125.871094 124.875 121.507812 130.332031 C 117.164062 135.800781 113.445312 141.726562 110.570312 148.019531 L 108.035156 153.574219 L 101.304688 153.582031 L 99.238281 153.585938 L 98.210938 153.585938 L 97.695312 153.589844 C 98.195312 153.597656 97.769531 153.59375 97.855469 153.597656 L 97.742188 153.605469 L 97.523438 153.617188 C 96.359375 153.71875 95.1875 153.710938 94.035156 153.882812 C 92.878906 154.015625 91.71875 154.128906 90.578125 154.355469 C 89.429688 154.523438 88.296875 154.761719 87.167969 155.023438 C 82.652344 156.015625 78.285156 157.585938 74.199219 159.6875 C 66.007812 163.847656 58.933594 170.058594 53.683594 177.46875 C 51.089844 181.195312 48.953125 185.21875 47.332031 189.425781 C 45.765625 193.652344 44.640625 198.03125 44.101562 202.5 C 43.8125 204.726562 43.722656 206.992188 43.691406 209.230469 L 43.738281 210.738281 L 43.753906 211.492188 L 43.761719 211.878906 L 43.800781 212.390625 L 43.96875 214.445312 L 44.050781 215.472656 C 44.078125 215.808594 44.027344 215.164062 44.035156 215.265625 L 44.050781 215.371094 L 44.082031 215.578125 L 44.136719 215.996094 C 44.691406 220.476562 45.78125 224.847656 47.371094 229.007812 C 50.515625 237.347656 55.847656 244.808594 62.6875 250.546875 C 69.492188 256.324219 77.746094 260.4375 86.566406 262.363281 C 88.765625 262.875 91.011719 263.179688 93.261719 263.4375 C 93.8125 263.496094 94.289062 263.507812 94.800781 263.554688 C 95.335938 263.589844 95.722656 263.652344 96.492188 263.660156 L 98.554688 263.710938 L 99.070312 263.726562 C 98.550781 263.71875 98.992188 263.722656 98.90625 263.722656 L 99.019531 263.71875 L 99.246094 263.714844 L 100.148438 263.707031 C 104.988281 263.703125 109.757812 263.257812 114.453125 262.433594 C 123.84375 260.769531 132.808594 257.265625 141.40625 252.410156 C 150.011719 247.554688 158.171875 241.273438 166.160156 234.351562 C 174.199219 227.46875 182.070312 219.925781 190.277344 212.386719 C 198.507812 204.871094 207.128906 197.371094 216.585938 190.597656 C 221.308594 187.207031 226.285156 184.074219 231.464844 181.230469 C 232.757812 180.523438 234.066406 179.832031 235.390625 179.167969 C 236.675781 178.515625 238.191406 177.796875 239.464844 177.207031 L 241.347656 176.367188 C 242.195312 175.988281 242.785156 175.765625 243.515625 175.460938 C 244.917969 174.902344 246.285156 174.285156 247.730469 173.8125 C 259.058594 169.679688 271.621094 167.695312 284.085938 169.558594 C 296.460938 171.328125 308.722656 177.523438 316.597656 187.859375 C 318.566406 190.414062 320.191406 193.253906 321.460938 196.230469 C 322.757812 199.199219 323.644531 202.355469 324.082031 205.5625 C 324.546875 208.757812 324.605469 212.019531 324.164062 215.191406 C 324.042969 216.707031 323.570312 218.558594 323.222656 220.042969 L 322.605469 222.015625 L 322.390625 222.707031 L 322.140625 223.253906 L 321.640625 224.339844 C 318.90625 230.105469 314.585938 234.691406 309.824219 238.113281 C 307.445312 239.839844 304.898438 241.269531 302.253906 242.382812 C 299.628906 243.503906 296.90625 244.398438 294.175781 244.921875 "/></clipPath><clipPath id="576ceb59a1"><path d="M 417.183594 146.949219 L 110.871094 -53.085938 L -73.125 227.847656 L 233.191406 427.882812 Z M 417.183594 146.949219 "/></clipPath><radialGradient gradientTransform="matrix(-0.547726,0.83631,-0.837524,-0.546932,238.412959,77.507568)" id="c0fe742ff8" gradientUnits="userSpaceOnUse" r="279.169914" cx="0" fx="0" cy="0" fy="0"><stop style="stop-color:#51ade5;stop-opacity:1;" offset="0"/><stop style="stop-color:#50ace5;stop-opacity:1;" offset="0.00390625"/><stop style="stop-color:#50ace4;stop-opacity:1;" offset="0.0078125"/><stop style="stop-color:#50abe4;stop-opacity:1;" offset="0.0117188"/><stop style="stop-color:#4fabe4;stop-opacity:1;" offset="0.015625"/><stop style="stop-color:#4faae3;stop-opacity:1;" offset="0.0195312"/><stop style="stop-color:#4fa9e2;stop-opacity:1;" offset="0.0234375"/><stop style="stop-color:#4fa8e2;stop-opacity:1;" offset="0.0273438"/><stop style="stop-color:#4fa7e1;stop-opacity:1;" offset="0.03125"/><stop style="stop-color:#4fa7e1;stop-opacity:1;" offset="0.0351562"/><stop style="stop-color:#4ea7e1;stop-opacity:1;" offset="0.0390625"/><stop style="stop-color:#4ea6e0;stop-opacity:1;" offset="0.0429688"/><stop style="stop-color:#4ea6e0;stop-opacity:1;" offset="0.046875"/><stop style="stop-color:#4ea5e0;stop-opacity:1;" offset="0.0507812"/><stop style="stop-color:#4ea5e0;stop-opacity:1;" offset="0.0546875"/><stop style="stop-color:#4ea4df;stop-opacity:1;" offset="0.0585938"/><stop style="stop-color:#4da3df;stop-opacity:1;" offset="0.0625"/><stop style="stop-color:#4da3df;stop-opacity:1;" offset="0.0664062"/><stop style="stop-color:#4ca2de;stop-opacity:1;" offset="0.0703125"/><stop style="stop-color:#4ca1de;stop-opacity:1;" offset="0.0742188"/><stop style="stop-color:#4ca1de;stop-opacity:1;" offset="0.078125"/><stop style="stop-color:#4ca0dd;stop-opacity:1;" offset="0.0820312"/><stop style="stop-color:#4ca0dd;stop-opacity:1;" offset="0.0859375"/><stop style="stop-color:#4c9fdd;stop-opacity:1;" offset="0.0898438"/><stop style="stop-color:#4b9fdc;stop-opacity:1;" offset="0.09375"/><stop style="stop-color:#4b9edc;stop-opacity:1;" offset="0.0976562"/><stop style="stop-color:#4b9edc;stop-opacity:1;" offset="0.101562"/><stop style="stop-color:#4b9ddb;stop-opacity:1;" offset="0.105469"/><stop style="stop-color:#4b9ddb;stop-opacity:1;" offset="0.109375"/><stop style="stop-color:#4b9cda;stop-opacity:1;" offset="0.113281"/><stop style="stop-color:#4a9cda;stop-opacity:1;" offset="0.117188"/><stop style="stop-color:#4a9bda;stop-opacity:1;" offset="0.121094"/><stop style="stop-color:#4a9bd9;stop-opacity:1;" offset="0.125"/><stop style="stop-color:#4a9ad9;stop-opacity:1;" offset="0.128906"/><stop style="stop-color:#4a9ad9;stop-opacity:1;" offset="0.132812"/><stop style="stop-color:#4a99d8;stop-opacity:1;" offset="0.136719"/><stop style="stop-color:#4999d8;stop-opacity:1;" offset="0.140625"/><stop style="stop-color:#4998d7;stop-opacity:1;" offset="0.144531"/><stop style="stop-color:#4997d7;stop-opacity:1;" offset="0.148438"/><stop style="stop-color:#4896d6;stop-opacity:1;" offset="0.152344"/><stop style="stop-color:#4895d6;stop-opacity:1;" offset="0.15625"/><stop style="stop-color:#4895d6;stop-opacity:1;" offset="0.160156"/><stop style="stop-color:#4894d6;stop-opacity:1;" offset="0.164062"/><stop style="stop-color:#4894d5;stop-opacity:1;" offset="0.167969"/><stop style="stop-color:#4893d5;stop-opacity:1;" offset="0.171875"/><stop style="stop-color:#4793d5;stop-opacity:1;" offset="0.175781"/><stop style="stop-color:#4793d4;stop-opacity:1;" offset="0.179688"/><stop style="stop-color:#4792d4;stop-opacity:1;" offset="0.183594"/><stop style="stop-color:#4792d4;stop-opacity:1;" offset="0.1875"/><stop style="stop-color:#4791d3;stop-opacity:1;" offset="0.191406"/><stop style="stop-color:#4791d3;stop-opacity:1;" offset="0.195312"/><stop style="stop-color:#4791d2;stop-opacity:1;" offset="0.199219"/><stop style="stop-color:#4790d2;stop-opacity:1;" offset="0.203125"/><stop style="stop-color:#478fd2;stop-opacity:1;" offset="0.207031"/><stop style="stop-color:#468fd2;stop-opacity:1;" offset="0.210938"/><stop style="stop-color:#468ed1;stop-opacity:1;" offset="0.214844"/><stop style="stop-color:#468ed1;stop-opacity:1;" offset="0.21875"/><stop style="stop-color:#468dd0;stop-opacity:1;" offset="0.222656"/><stop style="stop-color:#468cd0;stop-opacity:1;" offset="0.226562"/><stop style="stop-color:#458bd0;stop-opacity:1;" offset="0.230469"/><stop style="stop-color:#458bd0;stop-opacity:1;" offset="0.234375"/><stop style="stop-color:#458acf;stop-opacity:1;" offset="0.238281"/><stop style="stop-color:#448acf;stop-opacity:1;" offset="0.242188"/><stop style="stop-color:#4489cf;stop-opacity:1;" offset="0.246094"/><stop style="stop-color:#4489ce;stop-opacity:1;" offset="0.25"/><stop style="stop-color:#4488ce;stop-opacity:1;" offset="0.253906"/><stop style="stop-color:#4488ce;stop-opacity:1;" offset="0.257812"/><stop style="stop-color:#4487cd;stop-opacity:1;" offset="0.265625"/><stop style="stop-color:#4486cd;stop-opacity:1;" offset="0.269531"/><stop style="stop-color:#4386cc;stop-opacity:1;" offset="0.273438"/><stop style="stop-color:#4385cb;stop-opacity:1;" offset="0.277344"/><stop style="stop-color:#4385cb;stop-opacity:1;" offset="0.285156"/><stop style="stop-color:#4384ca;stop-opacity:1;" offset="0.289062"/><stop style="stop-color:#4284ca;stop-opacity:1;" offset="0.292969"/><stop style="stop-color:#4283c9;stop-opacity:1;" offset="0.296875"/><stop style="stop-color:#4282c9;stop-opacity:1;" offset="0.304688"/><stop style="stop-color:#4182c9;stop-opacity:1;" offset="0.308594"/><stop style="stop-color:#4181c9;stop-opacity:1;" offset="0.3125"/><stop style="stop-color:#4180c8;stop-opacity:1;" offset="0.316406"/><stop style="stop-color:#417fc8;stop-opacity:1;" offset="0.324219"/><stop style="stop-color:#417fc7;stop-opacity:1;" offset="0.328125"/><stop style="stop-color:#417ec7;stop-opacity:1;" offset="0.332031"/><stop style="stop-color:#417ec7;stop-opacity:1;" offset="0.335938"/><stop style="stop-color:#407dc7;stop-opacity:1;" offset="0.339844"/><stop style="stop-color:#407dc6;stop-opacity:1;" offset="0.34375"/><stop style="stop-color:#407cc6;stop-opacity:1;" offset="0.347656"/><stop style="stop-color:#407cc5;stop-opacity:1;" offset="0.351562"/><stop style="stop-color:#407bc5;stop-opacity:1;" offset="0.355469"/><stop style="stop-color:#407bc5;stop-opacity:1;" offset="0.359375"/><stop style="stop-color:#407ac4;stop-opacity:1;" offset="0.363281"/><stop style="stop-color:#3f7ac4;stop-opacity:1;" offset="0.367188"/><stop style="stop-color:#3f79c4;stop-opacity:1;" offset="0.371094"/><stop style="stop-color:#3e79c3;stop-opacity:1;" offset="0.378906"/><stop style="stop-color:#3e78c3;stop-opacity:1;" offset="0.382812"/><stop style="stop-color:#3e77c2;stop-opacity:1;" offset="0.390625"/><stop style="stop-color:#3e77c2;stop-opacity:1;" offset="0.394531"/><stop style="stop-color:#3e76c1;stop-opacity:1;" offset="0.398438"/><stop style="stop-color:#3e76c1;stop-opacity:1;" offset="0.40625"/><stop style="stop-color:#3e75c1;stop-opacity:1;" offset="0.410156"/><stop style="stop-color:#3d75c0;stop-opacity:1;" offset="0.414062"/><stop style="stop-color:#3d74c0;stop-opacity:1;" offset="0.417969"/><stop style="stop-color:#3d73c0;stop-opacity:1;" offset="0.421875"/><stop style="stop-color:#3d73bf;stop-opacity:1;" offset="0.425781"/><stop style="stop-color:#3d72bf;stop-opacity:1;" offset="0.429688"/><stop style="stop-color:#3d71be;stop-opacity:1;" offset="0.4375"/><stop style="stop-color:#3d71bd;stop-opacity:1;" offset="0.441406"/><stop style="stop-color:#3c70bd;stop-opacity:1;" offset="0.445312"/><stop style="stop-color:#3c6fbd;stop-opacity:1;" offset="0.453125"/><stop style="stop-color:#3b6fbc;stop-opacity:1;" offset="0.457031"/><stop style="stop-color:#3b6ebc;stop-opacity:1;" offset="0.460938"/><stop style="stop-color:#3b6ebb;stop-opacity:1;" offset="0.464844"/><stop style="stop-color:#3b6dbb;stop-opacity:1;" offset="0.472656"/><stop style="stop-color:#3b6dbb;stop-opacity:1;" offset="0.476562"/><stop style="stop-color:#3b6cba;stop-opacity:1;" offset="0.480469"/><stop style="stop-color:#3b6cba;stop-opacity:1;" offset="0.484375"/><stop style="stop-color:#3b6bb9;stop-opacity:1;" offset="0.492188"/><stop style="stop-color:#3a6ab9;stop-opacity:1;" offset="0.496094"/><stop style="stop-color:#3a6ab9;stop-opacity:1;" offset="0.503906"/><stop style="stop-color:#3a69b9;stop-opacity:1;" offset="0.507812"/><stop style="stop-color:#3a69b8;stop-opacity:1;" offset="0.511719"/><stop style="stop-color:#3a68b8;stop-opacity:1;" offset="0.515625"/><stop style="stop-color:#3968b7;stop-opacity:1;" offset="0.519531"/><stop style="stop-color:#3967b7;stop-opacity:1;" offset="0.523438"/><stop style="stop-color:#3967b7;stop-opacity:1;" offset="0.527344"/><stop style="stop-color:#3966b6;stop-opacity:1;" offset="0.53125"/><stop style="stop-color:#3966b6;stop-opacity:1;" offset="0.535156"/><stop style="stop-color:#3965b6;stop-opacity:1;" offset="0.539062"/><stop style="stop-color:#3965b6;stop-opacity:1;" offset="0.542969"/><stop style="stop-color:#3864b5;stop-opacity:1;" offset="0.546875"/><stop style="stop-color:#3864b5;stop-opacity:1;" offset="0.550781"/><stop style="stop-color:#3864b4;stop-opacity:1;" offset="0.554688"/><stop style="stop-color:#3863b4;stop-opacity:1;" offset="0.558594"/><stop style="stop-color:#3862b4;stop-opacity:1;" offset="0.5625"/><stop style="stop-color:#3862b3;stop-opacity:1;" offset="0.566406"/><stop style="stop-color:#3861b3;stop-opacity:1;" offset="0.570312"/><stop style="stop-color:#3860b3;stop-opacity:1;" offset="0.582031"/><stop style="stop-color:#3760b2;stop-opacity:1;" offset="0.585938"/><stop style="stop-color:#375fb1;stop-opacity:1;" offset="0.597656"/><stop style="stop-color:#365fb0;stop-opacity:1;" offset="0.601562"/><stop style="stop-color:#365eb0;stop-opacity:1;" offset="0.605469"/><stop style="stop-color:#365eb0;stop-opacity:1;" offset="0.609375"/><stop style="stop-color:#365daf;stop-opacity:1;" offset="0.613281"/><stop style="stop-color:#365daf;stop-opacity:1;" offset="0.617188"/><stop style="stop-color:#365caf;stop-opacity:1;" offset="0.621094"/><stop style="stop-color:#365cae;stop-opacity:1;" offset="0.625"/><stop style="stop-color:#365bae;stop-opacity:1;" offset="0.628906"/><stop style="stop-color:#365bae;stop-opacity:1;" offset="0.636719"/><stop style="stop-color:#365aad;stop-opacity:1;" offset="0.640625"/><stop style="stop-color:#355aad;stop-opacity:1;" offset="0.644531"/><stop style="stop-color:#3559ad;stop-opacity:1;" offset="0.648438"/><stop style="stop-color:#3558ac;stop-opacity:1;" offset="0.65625"/><stop style="stop-color:#3557ac;stop-opacity:1;" offset="0.664062"/><stop style="stop-color:#3557ac;stop-opacity:1;" offset="0.667969"/><stop style="stop-color:#3456ab;stop-opacity:1;" offset="0.671875"/><stop style="stop-color:#3456ab;stop-opacity:1;" offset="0.679688"/><stop style="stop-color:#3455aa;stop-opacity:1;" offset="0.683594"/><stop style="stop-color:#3455aa;stop-opacity:1;" offset="0.6875"/><stop style="stop-color:#3454a9;stop-opacity:1;" offset="0.691406"/><stop style="stop-color:#3453a9;stop-opacity:1;" offset="0.699219"/><stop style="stop-color:#3352a9;stop-opacity:1;" offset="0.703125"/><stop style="stop-color:#3352a8;stop-opacity:1;" offset="0.71875"/><stop style="stop-color:#3352a7;stop-opacity:1;" offset="0.722656"/><stop style="stop-color:#3351a7;stop-opacity:1;" offset="0.726562"/><stop style="stop-color:#3351a6;stop-opacity:1;" offset="0.730469"/><stop style="stop-color:#3250a6;stop-opacity:1;" offset="0.734375"/><stop style="stop-color:#3250a5;stop-opacity:1;" offset="0.742188"/><stop style="stop-color:#324fa4;stop-opacity:1;" offset="0.75"/><stop style="stop-color:#324ea4;stop-opacity:1;" offset="0.753906"/><stop style="stop-color:#324ea4;stop-opacity:1;" offset="0.757812"/><stop style="stop-color:#324da4;stop-opacity:1;" offset="0.761719"/><stop style="stop-color:#324da4;stop-opacity:1;" offset="0.765625"/><stop style="stop-color:#314ca3;stop-opacity:1;" offset="0.769531"/><stop style="stop-color:#314ca3;stop-opacity:1;" offset="0.773438"/><stop style="stop-color:#314ca3;stop-opacity:1;" offset="0.777344"/><stop style="stop-color:#314ba2;stop-opacity:1;" offset="0.78125"/><stop style="stop-color:#314ba2;stop-opacity:1;" offset="0.785156"/><stop style="stop-color:#314aa2;stop-opacity:1;" offset="0.789062"/><stop style="stop-color:#314aa1;stop-opacity:1;" offset="0.792969"/><stop style="stop-color:#314aa1;stop-opacity:1;" offset="0.796875"/><stop style="stop-color:#3149a1;stop-opacity:1;" offset="0.800781"/><stop style="stop-color:#3149a1;stop-opacity:1;" offset="0.804688"/><stop style="stop-color:#3149a0;stop-opacity:1;" offset="0.808594"/><stop style="stop-color:#3048a0;stop-opacity:1;" offset="0.8125"/><stop style="stop-color:#30489f;stop-opacity:1;" offset="0.816406"/><stop style="stop-color:#30479f;stop-opacity:1;" offset="0.820312"/><stop style="stop-color:#30469f;stop-opacity:1;" offset="0.828125"/><stop style="stop-color:#30469e;stop-opacity:1;" offset="0.835938"/><stop style="stop-color:#2f459e;stop-opacity:1;" offset="0.84375"/><stop style="stop-color:#2f459d;stop-opacity:1;" offset="0.847656"/><stop style="stop-color:#2f459d;stop-opacity:1;" offset="0.851562"/><stop style="stop-color:#2f449d;stop-opacity:1;" offset="0.855469"/><stop style="stop-color:#2f449d;stop-opacity:1;" offset="0.859375"/><stop style="stop-color:#2f449c;stop-opacity:1;" offset="0.863281"/><stop style="stop-color:#2f439c;stop-opacity:1;" offset="0.871094"/><stop style="stop-color:#2f429b;stop-opacity:1;" offset="0.878906"/><stop style="stop-color:#2f429b;stop-opacity:1;" offset="0.882812"/><stop style="stop-color:#2f419a;stop-opacity:1;" offset="0.886719"/><stop style="stop-color:#2f419a;stop-opacity:1;" offset="0.890625"/><stop style="stop-color:#2e419a;stop-opacity:1;" offset="0.894531"/><stop style="stop-color:#2e4099;stop-opacity:1;" offset="0.898438"/><stop style="stop-color:#2e4099;stop-opacity:1;" offset="0.902344"/><stop style="stop-color:#2e3f98;stop-opacity:1;" offset="0.90625"/><stop style="stop-color:#2e3e98;stop-opacity:1;" offset="0.917969"/><stop style="stop-color:#2e3e97;stop-opacity:1;" offset="0.921875"/><stop style="stop-color:#2e3e97;stop-opacity:1;" offset="0.925781"/><stop style="stop-color:#2d3d97;stop-opacity:1;" offset="0.933594"/><stop style="stop-color:#2d3c96;stop-opacity:1;" offset="0.9375"/><stop style="stop-color:#2d3c96;stop-opacity:1;" offset="0.941406"/><stop style="stop-color:#2d3b96;stop-opacity:1;" offset="0.945312"/><stop style="stop-color:#2d3b95;stop-opacity:1;" offset="0.949219"/><stop style="stop-color:#2d3a95;stop-opacity:1;" offset="0.960938"/><stop style="stop-color:#2d3a94;stop-opacity:1;" offset="0.964844"/><stop style="stop-color:#2c3a94;stop-opacity:1;" offset="0.96875"/><stop style="stop-color:#2c3993;stop-opacity:1;" offset="0.976562"/><stop style="stop-color:#2c3993;stop-opacity:1;" offset="0.980469"/><stop style="stop-color:#2c3992;stop-opacity:1;" offset="0.984375"/><stop style="stop-color:#2c3892;stop-opacity:1;" offset="1"/></radialGradient><clipPath id="86b69d3802"><path d="M 53.097656 127.542969 L 356 127.542969 L 356 276.964844 L 53.097656 276.964844 Z M 53.097656 127.542969 "/></clipPath><clipPath id="4306e2acaf"><path d="M 236.707031 257.007812 C 236.707031 257.007812 237.183594 257.308594 238.113281 257.890625 C 239.023438 258.496094 240.445312 259.285156 242.253906 260.308594 C 245.917969 262.308594 251.527344 264.863281 258.910156 266.660156 C 266.257812 268.394531 275.578125 269.226562 285.539062 267.316406 C 286.859375 267.046875 288.328125 266.84375 289.582031 266.511719 C 290.78125 266.160156 291.996094 265.808594 293.230469 265.449219 C 294.445312 265.167969 295.730469 264.550781 297 264.09375 C 298.277344 263.605469 299.578125 263.144531 300.816406 262.46875 C 305.898438 260.164062 310.839844 256.929688 315.339844 252.9375 C 324.375 245.035156 331.730469 233.746094 334.457031 220.757812 C 334.722656 219.128906 334.996094 217.492188 335.265625 215.84375 C 335.460938 214.1875 335.515625 212.503906 335.671875 210.835938 L 335.707031 210.363281 C 335.699219 210.539062 335.742188 209.75 335.695312 210.71875 L 335.679688 209.976562 L 335.652344 208.488281 L 335.59375 205.492188 C 335.648438 203.28125 335.246094 202.027344 335.066406 200.417969 L 334.746094 198.089844 L 334.128906 195.585938 L 333.542969 193.066406 C 333.378906 192.21875 332.996094 191.425781 332.742188 190.601562 C 331.71875 187.292969 330.238281 184.113281 328.574219 181.039062 C 325.160156 174.921875 320.589844 169.332031 315.058594 164.785156 C 309.523438 160.25 303.078125 156.761719 296.183594 154.609375 C 294.433594 154.167969 292.683594 153.722656 290.925781 153.28125 L 285.546875 152.484375 C 283.738281 152.324219 281.90625 152.34375 280.09375 152.234375 L 279.410156 152.199219 C 278.96875 152.203125 279.820312 152.183594 279.652344 152.191406 L 279.441406 152.199219 L 277.351562 152.277344 L 274 152.410156 L 273.160156 152.441406 C 272.90625 152.457031 272.703125 152.496094 272.472656 152.519531 L 271.125 152.679688 L 268.429688 152.976562 C 266.589844 153.210938 264.585938 153.636719 262.671875 153.945312 C 260.742188 154.351562 258.828125 154.867188 256.898438 155.308594 L 251.183594 157.042969 C 235.941406 162.0625 221.546875 170.847656 208.019531 180.839844 C 204.636719 183.355469 201.3125 185.960938 198.035156 188.628906 C 194.75 191.253906 191.433594 194.007812 188.242188 196.734375 C 181.773438 202.234375 175.449219 207.90625 169.050781 213.425781 C 162.683594 218.929688 156.289062 224.515625 149.84375 229.640625 C 143.285156 234.851562 136.488281 240.003906 128.878906 244.074219 C 121.359375 248.167969 112.9375 251.226562 104.3125 252.035156 C 103.246094 252.179688 102.152344 252.15625 101.085938 252.21875 L 99.488281 252.273438 C 99.8125 252.265625 98.816406 252.285156 98.859375 252.277344 L 98.691406 252.265625 L 97.6875 252.199219 C 96.796875 252.140625 95.90625 252.078125 95.023438 252.019531 C 94.011719 251.917969 92.769531 251.714844 91.671875 251.542969 C 89.3125 251.246094 87.453125 250.59375 85.449219 250.0625 C 83.511719 249.414062 81.621094 248.683594 79.828125 247.835938 C 72.671875 244.367188 66.796875 239.464844 62.507812 233.902344 C 58.269531 228.289062 55.492188 222.128906 54.21875 216.105469 C 52.929688 210.117188 53.066406 204.15625 53.972656 199.3125 C 54.820312 194.238281 56.386719 189.871094 58.171875 186.132812 C 59.957031 182.394531 61.992188 179.328125 63.972656 176.871094 C 65.945312 174.40625 67.800781 172.496094 69.398438 171.066406 C 70.175781 170.328125 70.910156 169.730469 71.550781 169.226562 C 72.175781 168.710938 72.726562 168.304688 73.179688 167.992188 C 74.070312 167.351562 74.527344 167.023438 74.527344 167.023438 C 74.527344 167.023438 74.15625 167.445312 73.433594 168.265625 C 72.707031 169.074219 71.695312 170.339844 70.464844 172.019531 C 68.003906 175.355469 64.867188 180.679688 62.855469 187.894531 C 61.90625 191.496094 61.164062 195.59375 61.183594 199.949219 C 61.15625 204.5 61.75 208.933594 63.46875 213.464844 C 65.179688 217.9375 67.894531 222.324219 71.628906 226.042969 C 75.386719 229.726562 80.097656 232.753906 85.351562 234.527344 C 85.984375 234.8125 86.6875 234.894531 87.351562 235.09375 C 88.027344 235.25 88.683594 235.503906 89.375 235.597656 C 90.730469 235.777344 92.207031 236.136719 93.359375 236.101562 C 94 236.121094 94.5 236.199219 95.246094 236.210938 C 96.132812 236.179688 97.019531 236.144531 97.914062 236.109375 L 98.582031 236.085938 L 98.917969 236.070312 L 99.085938 236.066406 C 99.242188 236.0625 98.355469 236.066406 98.796875 236.054688 L 99.878906 235.886719 C 100.601562 235.757812 101.328125 235.726562 102.050781 235.53125 C 107.828125 234.339844 113.652344 231.789062 119.34375 227.960938 C 125.054688 224.210938 130.695312 219.429688 136.414062 214.101562 C 142.230469 208.648438 148.082031 203.101562 154.089844 197.210938 C 160.074219 191.339844 166.285156 185.367188 172.765625 179.367188 C 179.230469 173.34375 186.054688 167.371094 193.347656 161.6875 C 207.839844 150.285156 224.398438 139.878906 243.3125 133.46875 C 252.835938 130.367188 262.554688 128.363281 273.140625 127.796875 L 276.492188 127.691406 L 278.167969 127.640625 L 278.585938 127.628906 L 278.796875 127.621094 C 278.777344 127.625 279.753906 127.609375 279.457031 127.617188 L 280.445312 127.671875 C 283.078125 127.847656 285.71875 127.933594 288.328125 128.242188 C 290.925781 128.679688 293.53125 129.078125 296.097656 129.597656 C 298.632812 130.289062 301.164062 130.984375 303.667969 131.722656 C 323.59375 138.359375 339.753906 153.316406 348.164062 171.015625 C 350.253906 175.445312 352.015625 179.992188 353.1875 184.648438 C 353.480469 185.8125 353.890625 186.941406 354.074219 188.121094 L 354.675781 191.636719 C 354.863281 192.804688 355.050781 193.96875 355.238281 195.128906 C 355.351562 196.355469 355.410156 197.625 355.488281 198.863281 C 355.601562 201.28125 355.832031 204.027344 355.628906 205.824219 L 355.46875 208.8125 L 355.390625 210.300781 L 355.351562 211.042969 C 355.304688 212.140625 355.320312 211.46875 355.304688 211.765625 L 355.269531 211.980469 L 355.210938 212.402344 C 354.867188 214.652344 354.59375 216.894531 354.160156 219.089844 C 353.621094 221.265625 353.097656 223.429688 352.5 225.542969 C 349.917969 233.980469 345.898438 241.628906 340.964844 248.128906 C 336.015625 254.621094 330.261719 260.050781 324.121094 264.28125 C 317.976562 268.496094 311.554688 271.714844 305.117188 273.636719 C 303.546875 274.21875 301.925781 274.574219 300.339844 274.945312 C 298.734375 275.292969 297.257812 275.761719 295.589844 275.941406 C 293.976562 276.167969 292.386719 276.390625 290.820312 276.609375 C 289.300781 276.773438 287.984375 276.738281 286.589844 276.8125 C 274.742188 277.285156 264.804688 274.625 257.320312 271.367188 C 249.804688 268.085938 244.730469 264.183594 241.449219 261.484375 C 239.8125 260.089844 238.636719 258.96875 237.878906 258.183594 C 237.105469 257.40625 236.707031 257.007812 236.707031 257.007812 Z M 236.707031 257.007812 "/></clipPath><clipPath id="3b3bc33d0a"><path d="M 236.707031 257.007812 C 236.707031 257.007812 237.183594 257.308594 238.113281 257.890625 C 239.023438 258.496094 240.445312 259.285156 242.253906 260.308594 C 245.917969 262.308594 251.527344 264.863281 258.910156 266.660156 C 266.257812 268.394531 275.578125 269.226562 285.539062 267.316406 C 286.859375 267.046875 288.328125 266.84375 289.582031 266.511719 C 290.78125 266.160156 291.996094 265.808594 293.230469 265.449219 C 294.445312 265.167969 295.730469 264.550781 297 264.09375 C 298.277344 263.605469 299.578125 263.144531 300.816406 262.46875 C 305.898438 260.164062 310.839844 256.929688 315.339844 252.9375 C 324.375 245.035156 331.730469 233.746094 334.457031 220.757812 C 334.722656 219.128906 334.996094 217.492188 335.265625 215.84375 C 335.460938 214.1875 335.515625 212.503906 335.671875 210.835938 L 335.707031 210.363281 C 335.699219 210.539062 335.742188 209.75 335.695312 210.71875 L 335.679688 209.976562 L 335.652344 208.488281 L 335.59375 205.492188 C 335.648438 203.28125 335.246094 202.027344 335.066406 200.417969 L 334.746094 198.089844 L 334.128906 195.585938 L 333.542969 193.066406 C 333.378906 192.21875 332.996094 191.425781 332.742188 190.601562 C 331.71875 187.292969 330.238281 184.113281 328.574219 181.039062 C 325.160156 174.921875 320.589844 169.332031 315.058594 164.785156 C 309.523438 160.25 303.078125 156.761719 296.183594 154.609375 C 294.433594 154.167969 292.683594 153.722656 290.925781 153.28125 L 285.546875 152.484375 C 283.738281 152.324219 281.90625 152.34375 280.09375 152.234375 L 279.410156 152.199219 C 278.96875 152.203125 279.820312 152.183594 279.652344 152.191406 L 279.441406 152.199219 L 277.351562 152.277344 L 274 152.410156 L 273.160156 152.441406 C 272.90625 152.457031 272.703125 152.496094 272.472656 152.519531 L 271.125 152.679688 L 268.429688 152.976562 C 266.589844 153.210938 264.585938 153.636719 262.671875 153.945312 C 260.742188 154.351562 258.828125 154.867188 256.898438 155.308594 L 251.183594 157.042969 C 235.941406 162.0625 221.546875 170.847656 208.019531 180.839844 C 204.636719 183.355469 201.3125 185.960938 198.035156 188.628906 C 194.75 191.253906 191.433594 194.007812 188.242188 196.734375 C 181.773438 202.234375 175.449219 207.90625 169.050781 213.425781 C 162.683594 218.929688 156.289062 224.515625 149.84375 229.640625 C 143.285156 234.851562 136.488281 240.003906 128.878906 244.074219 C 121.359375 248.167969 112.9375 251.226562 104.3125 252.035156 C 103.246094 252.179688 102.152344 252.15625 101.085938 252.21875 L 99.488281 252.273438 C 99.8125 252.265625 98.816406 252.285156 98.859375 252.277344 L 98.691406 252.265625 L 97.6875 252.199219 C 96.796875 252.140625 95.90625 252.078125 95.023438 252.019531 C 94.011719 251.917969 92.769531 251.714844 91.671875 251.542969 C 89.3125 251.246094 87.453125 250.59375 85.449219 250.0625 C 83.511719 249.414062 81.621094 248.683594 79.828125 247.835938 C 72.671875 244.367188 66.796875 239.464844 62.507812 233.902344 C 58.269531 228.289062 55.492188 222.128906 54.21875 216.105469 C 52.929688 210.117188 53.066406 204.15625 53.972656 199.3125 C 54.820312 194.238281 56.386719 189.871094 58.171875 186.132812 C 59.957031 182.394531 61.992188 179.328125 63.972656 176.871094 C 65.945312 174.40625 67.800781 172.496094 69.398438 171.066406 C 70.175781 170.328125 70.910156 169.730469 71.550781 169.226562 C 72.175781 168.710938 72.726562 168.304688 73.179688 167.992188 C 74.070312 167.351562 74.527344 167.023438 74.527344 167.023438 C 74.527344 167.023438 74.15625 167.445312 73.433594 168.265625 C 72.707031 169.074219 71.695312 170.339844 70.464844 172.019531 C 68.003906 175.355469 64.867188 180.679688 62.855469 187.894531 C 61.90625 191.496094 61.164062 195.59375 61.183594 199.949219 C 61.15625 204.5 61.75 208.933594 63.46875 213.464844 C 65.179688 217.9375 67.894531 222.324219 71.628906 226.042969 C 75.386719 229.726562 80.097656 232.753906 85.351562 234.527344 C 85.984375 234.8125 86.6875 234.894531 87.351562 235.09375 C 88.027344 235.25 88.683594 235.503906 89.375 235.597656 C 90.730469 235.777344 92.207031 236.136719 93.359375 236.101562 C 94 236.121094 94.5 236.199219 95.246094 236.210938 C 96.132812 236.179688 97.019531 236.144531 97.914062 236.109375 L 98.582031 236.085938 L 98.917969 236.070312 L 99.085938 236.066406 C 99.242188 236.0625 98.355469 236.066406 98.796875 236.054688 L 99.878906 235.886719 C 100.601562 235.757812 101.328125 235.726562 102.050781 235.53125 C 107.828125 234.339844 113.652344 231.789062 119.34375 227.960938 C 125.054688 224.210938 130.695312 219.429688 136.414062 214.101562 C 142.230469 208.648438 148.082031 203.101562 154.089844 197.210938 C 160.074219 191.339844 166.285156 185.367188 172.765625 179.367188 C 179.230469 173.34375 186.054688 167.371094 193.347656 161.6875 C 207.839844 150.285156 224.398438 139.878906 243.3125 133.46875 C 252.835938 130.367188 262.554688 128.363281 273.140625 127.796875 L 276.492188 127.691406 L 278.167969 127.640625 L 278.585938 127.628906 L 278.796875 127.621094 C 278.777344 127.625 279.753906 127.609375 279.457031 127.617188 L 280.445312 127.671875 C 283.078125 127.847656 285.71875 127.933594 288.328125 128.242188 C 290.925781 128.679688 293.53125 129.078125 296.097656 129.597656 C 298.632812 130.289062 301.164062 130.984375 303.667969 131.722656 C 323.59375 138.359375 339.753906 153.316406 348.164062 171.015625 C 350.253906 175.445312 352.015625 179.992188 353.1875 184.648438 C 353.480469 185.8125 353.890625 186.941406 354.074219 188.121094 L 354.675781 191.636719 C 354.863281 192.804688 355.050781 193.96875 355.238281 195.128906 C 355.351562 196.355469 355.410156 197.625 355.488281 198.863281 C 355.601562 201.28125 355.832031 204.027344 355.628906 205.824219 L 355.46875 208.8125 L 355.390625 210.300781 L 355.351562 211.042969 C 355.304688 212.140625 355.320312 211.46875 355.304688 211.765625 L 355.269531 211.980469 L 355.210938 212.402344 C 354.867188 214.652344 354.59375 216.894531 354.160156 219.089844 C 353.621094 221.265625 353.097656 223.429688 352.5 225.542969 C 349.917969 233.980469 345.898438 241.628906 340.964844 248.128906 C 336.015625 254.621094 330.261719 260.050781 324.121094 264.28125 C 317.976562 268.496094 311.554688 271.714844 305.117188 273.636719 C 303.546875 274.21875 301.925781 274.574219 300.339844 274.945312 C 298.734375 275.292969 297.257812 275.761719 295.589844 275.941406 C 293.976562 276.167969 292.386719 276.390625 290.820312 276.609375 C 289.300781 276.773438 287.984375 276.738281 286.589844 276.8125 C 274.742188 277.285156 264.804688 274.625 257.320312 271.367188 C 249.804688 268.085938 244.730469 264.183594 241.449219 261.484375 C 239.8125 260.089844 238.636719 258.96875 237.878906 258.183594 C 237.105469 257.40625 236.707031 257.007812 236.707031 257.007812 "/></clipPath><clipPath id="6c7a564c39"><path d="M 424.492188 172.445312 L 143.671875 -10.941406 L -15.734375 232.445312 L 265.089844 415.832031 Z M 424.492188 172.445312 "/></clipPath><radialGradient gradientTransform="matrix(-0.547726,0.83631,-0.837524,-0.546932,238.412959,77.507568)" id="abfe9116e8" gradientUnits="userSpaceOnUse" r="279.169914" cx="0" fx="0" cy="0" fy="0"><stop style="stop-color:#00adef;stop-opacity:1;" offset="0"/><stop style="stop-color:#01adee;stop-opacity:1;" offset="0.0078125"/><stop style="stop-color:#01acee;stop-opacity:1;" offset="0.0117188"/><stop style="stop-color:#01acee;stop-opacity:1;" offset="0.015625"/><stop style="stop-color:#02acee;stop-opacity:1;" offset="0.0195312"/><stop style="stop-color:#02acee;stop-opacity:1;" offset="0.0234375"/><stop style="stop-color:#02acee;stop-opacity:1;" offset="0.0273438"/><stop style="stop-color:#02abed;stop-opacity:1;" offset="0.03125"/><stop style="stop-color:#03abed;stop-opacity:1;" offset="0.0351562"/><stop style="stop-color:#03abed;stop-opacity:1;" offset="0.046875"/><stop style="stop-color:#03aaed;stop-opacity:1;" offset="0.0507812"/><stop style="stop-color:#03aaec;stop-opacity:1;" offset="0.0546875"/><stop style="stop-color:#04aaec;stop-opacity:1;" offset="0.0585938"/><stop style="stop-color:#04aaec;stop-opacity:1;" offset="0.0625"/><stop style="stop-color:#04aaec;stop-opacity:1;" offset="0.0664062"/><stop style="stop-color:#05a9eb;stop-opacity:1;" offset="0.0703125"/><stop style="stop-color:#05a9eb;stop-opacity:1;" offset="0.0820312"/><stop style="stop-color:#06a9eb;stop-opacity:1;" offset="0.0859375"/><stop style="stop-color:#06a8eb;stop-opacity:1;" offset="0.0898438"/><stop style="stop-color:#06a8ea;stop-opacity:1;" offset="0.101562"/><stop style="stop-color:#07a7ea;stop-opacity:1;" offset="0.105469"/><stop style="stop-color:#07a7ea;stop-opacity:1;" offset="0.117188"/><stop style="stop-color:#07a7ea;stop-opacity:1;" offset="0.121094"/><stop style="stop-color:#08a7e9;stop-opacity:1;" offset="0.125"/><stop style="stop-color:#08a6e9;stop-opacity:1;" offset="0.128906"/><stop style="stop-color:#08a6e9;stop-opacity:1;" offset="0.140625"/><stop style="stop-color:#08a5e9;stop-opacity:1;" offset="0.144531"/><stop style="stop-color:#09a5e8;stop-opacity:1;" offset="0.148438"/><stop style="stop-color:#09a5e8;stop-opacity:1;" offset="0.152344"/><stop style="stop-color:#09a5e8;stop-opacity:1;" offset="0.15625"/><stop style="stop-color:#0aa5e8;stop-opacity:1;" offset="0.160156"/><stop style="stop-color:#0aa4e8;stop-opacity:1;" offset="0.164062"/><stop style="stop-color:#0aa4e8;stop-opacity:1;" offset="0.167969"/><stop style="stop-color:#0ba4e7;stop-opacity:1;" offset="0.171875"/><stop style="stop-color:#0ba4e7;stop-opacity:1;" offset="0.183594"/><stop style="stop-color:#0ba3e7;stop-opacity:1;" offset="0.1875"/><stop style="stop-color:#0ca3e6;stop-opacity:1;" offset="0.191406"/><stop style="stop-color:#0da2e6;stop-opacity:1;" offset="0.203125"/><stop style="stop-color:#0da2e6;stop-opacity:1;" offset="0.214844"/><stop style="stop-color:#0ea2e5;stop-opacity:1;" offset="0.21875"/><stop style="stop-color:#0ea1e5;stop-opacity:1;" offset="0.222656"/><stop style="stop-color:#0ea1e5;stop-opacity:1;" offset="0.226562"/><stop style="stop-color:#0ea1e5;stop-opacity:1;" offset="0.230469"/><stop style="stop-color:#0ea1e4;stop-opacity:1;" offset="0.234375"/><stop style="stop-color:#0fa0e4;stop-opacity:1;" offset="0.238281"/><stop style="stop-color:#10a0e4;stop-opacity:1;" offset="0.25"/><stop style="stop-color:#10a0e3;stop-opacity:1;" offset="0.253906"/><stop style="stop-color:#109fe3;stop-opacity:1;" offset="0.261719"/><stop style="stop-color:#109fe3;stop-opacity:1;" offset="0.269531"/><stop style="stop-color:#119ee3;stop-opacity:1;" offset="0.273438"/><stop style="stop-color:#119ee2;stop-opacity:1;" offset="0.28125"/><stop style="stop-color:#129ee2;stop-opacity:1;" offset="0.289062"/><stop style="stop-color:#129de2;stop-opacity:1;" offset="0.296875"/><stop style="stop-color:#139de1;stop-opacity:1;" offset="0.304688"/><stop style="stop-color:#139ce1;stop-opacity:1;" offset="0.3125"/><stop style="stop-color:#149ce1;stop-opacity:1;" offset="0.320312"/><stop style="stop-color:#149ce0;stop-opacity:1;" offset="0.328125"/><stop style="stop-color:#149ce0;stop-opacity:1;" offset="0.332031"/><stop style="stop-color:#149be0;stop-opacity:1;" offset="0.335938"/><stop style="stop-color:#149adf;stop-opacity:1;" offset="0.34375"/><stop style="stop-color:#159adf;stop-opacity:1;" offset="0.347656"/><stop style="stop-color:#1699df;stop-opacity:1;" offset="0.355469"/><stop style="stop-color:#1699de;stop-opacity:1;" offset="0.363281"/><stop style="stop-color:#1799de;stop-opacity:1;" offset="0.371094"/><stop style="stop-color:#1798de;stop-opacity:1;" offset="0.378906"/><stop style="stop-color:#1798dd;stop-opacity:1;" offset="0.386719"/><stop style="stop-color:#1897dd;stop-opacity:1;" offset="0.394531"/><stop style="stop-color:#1897dd;stop-opacity:1;" offset="0.402344"/><stop style="stop-color:#1996dc;stop-opacity:1;" offset="0.410156"/><stop style="stop-color:#1995db;stop-opacity:1;" offset="0.425781"/><stop style="stop-color:#1a95db;stop-opacity:1;" offset="0.433594"/><stop style="stop-color:#1a95db;stop-opacity:1;" offset="0.4375"/><stop style="stop-color:#1b95db;stop-opacity:1;" offset="0.441406"/><stop style="stop-color:#1b94da;stop-opacity:1;" offset="0.449219"/><stop style="stop-color:#1c94da;stop-opacity:1;" offset="0.457031"/><stop style="stop-color:#1c93da;stop-opacity:1;" offset="0.464844"/><stop style="stop-color:#1c93d9;stop-opacity:1;" offset="0.472656"/><stop style="stop-color:#1d92d9;stop-opacity:1;" offset="0.480469"/><stop style="stop-color:#1d91d8;stop-opacity:1;" offset="0.496094"/><stop style="stop-color:#1e91d8;stop-opacity:1;" offset="0.503906"/><stop style="stop-color:#1f90d8;stop-opacity:1;" offset="0.515625"/><stop style="stop-color:#1f90d7;stop-opacity:1;" offset="0.519531"/><stop style="stop-color:#2090d7;stop-opacity:1;" offset="0.53125"/><stop style="stop-color:#208fd7;stop-opacity:1;" offset="0.535156"/><stop style="stop-color:#208fd6;stop-opacity:1;" offset="0.539062"/><stop style="stop-color:#208fd6;stop-opacity:1;" offset="0.542969"/><stop style="stop-color:#208fd6;stop-opacity:1;" offset="0.546875"/><stop style="stop-color:#208ed6;stop-opacity:1;" offset="0.550781"/><stop style="stop-color:#208ed6;stop-opacity:1;" offset="0.554688"/><stop style="stop-color:#218ed6;stop-opacity:1;" offset="0.558594"/><stop style="stop-color:#218ed5;stop-opacity:1;" offset="0.5625"/><stop style="stop-color:#218dd5;stop-opacity:1;" offset="0.566406"/><stop style="stop-color:#228cd5;stop-opacity:1;" offset="0.578125"/><stop style="stop-color:#228cd4;stop-opacity:1;" offset="0.582031"/><stop style="stop-color:#228cd4;stop-opacity:1;" offset="0.585938"/><stop style="stop-color:#228cd4;stop-opacity:1;" offset="0.589844"/><stop style="stop-color:#238cd4;stop-opacity:1;" offset="0.59375"/><stop style="stop-color:#238cd4;stop-opacity:1;" offset="0.597656"/><stop style="stop-color:#238bd4;stop-opacity:1;" offset="0.601562"/><stop style="stop-color:#248bd3;stop-opacity:1;" offset="0.605469"/><stop style="stop-color:#248bd3;stop-opacity:1;" offset="0.609375"/><stop style="stop-color:#248ad3;stop-opacity:1;" offset="0.613281"/><stop style="stop-color:#248ad3;stop-opacity:1;" offset="0.617188"/><stop style="stop-color:#248ad2;stop-opacity:1;" offset="0.621094"/><stop style="stop-color:#2589d2;stop-opacity:1;" offset="0.632812"/><stop style="stop-color:#2689d2;stop-opacity:1;" offset="0.640625"/><stop style="stop-color:#2688d1;stop-opacity:1;" offset="0.648438"/><stop style="stop-color:#2788d1;stop-opacity:1;" offset="0.65625"/><stop style="stop-color:#2787d1;stop-opacity:1;" offset="0.664062"/><stop style="stop-color:#2787d0;stop-opacity:1;" offset="0.671875"/><stop style="stop-color:#2886d0;stop-opacity:1;" offset="0.679688"/><stop style="stop-color:#2886d0;stop-opacity:1;" offset="0.6875"/><stop style="stop-color:#2985cf;stop-opacity:1;" offset="0.695312"/><stop style="stop-color:#2984ce;stop-opacity:1;" offset="0.710938"/><stop style="stop-color:#2a84ce;stop-opacity:1;" offset="0.71875"/><stop style="stop-color:#2a83ce;stop-opacity:1;" offset="0.726562"/><stop style="stop-color:#2b83cd;stop-opacity:1;" offset="0.734375"/><stop style="stop-color:#2b82cd;stop-opacity:1;" offset="0.742188"/><stop style="stop-color:#2c82cd;stop-opacity:1;" offset="0.75"/><stop style="stop-color:#2c82cd;stop-opacity:1;" offset="0.757812"/><stop style="stop-color:#2c81cc;stop-opacity:1;" offset="0.761719"/><stop style="stop-color:#2d80cc;stop-opacity:1;" offset="0.773438"/><stop style="stop-color:#2d80cc;stop-opacity:1;" offset="0.777344"/><stop style="stop-color:#2d80cb;stop-opacity:1;" offset="0.78125"/><stop style="stop-color:#2d80cb;stop-opacity:1;" offset="0.785156"/><stop style="stop-color:#2d7fcb;stop-opacity:1;" offset="0.789062"/><stop style="stop-color:#2d7fcb;stop-opacity:1;" offset="0.792969"/><stop style="stop-color:#2e7fcb;stop-opacity:1;" offset="0.796875"/><stop style="stop-color:#2e7fcb;stop-opacity:1;" offset="0.800781"/><stop style="stop-color:#2e7fca;stop-opacity:1;" offset="0.804688"/><stop style="stop-color:#2e7eca;stop-opacity:1;" offset="0.808594"/><stop style="stop-color:#2f7eca;stop-opacity:1;" offset="0.8125"/><stop style="stop-color:#2f7dc9;stop-opacity:1;" offset="0.816406"/><stop style="stop-color:#307dc9;stop-opacity:1;" offset="0.824219"/><stop style="stop-color:#307cc9;stop-opacity:1;" offset="0.832031"/><stop style="stop-color:#307cc8;stop-opacity:1;" offset="0.839844"/><stop style="stop-color:#317cc8;stop-opacity:1;" offset="0.847656"/><stop style="stop-color:#317bc8;stop-opacity:1;" offset="0.851562"/><stop style="stop-color:#317bc8;stop-opacity:1;" offset="0.859375"/><stop style="stop-color:#327ac7;stop-opacity:1;" offset="0.867188"/><stop style="stop-color:#327ac7;stop-opacity:1;" offset="0.882812"/><stop style="stop-color:#3379c6;stop-opacity:1;" offset="0.886719"/><stop style="stop-color:#3379c6;stop-opacity:1;" offset="0.890625"/><stop style="stop-color:#3379c6;stop-opacity:1;" offset="0.894531"/><stop style="stop-color:#3479c5;stop-opacity:1;" offset="0.898438"/><stop style="stop-color:#3478c5;stop-opacity:1;" offset="0.910156"/><stop style="stop-color:#3577c5;stop-opacity:1;" offset="0.917969"/><stop style="stop-color:#3577c5;stop-opacity:1;" offset="0.925781"/><stop style="stop-color:#3576c4;stop-opacity:1;" offset="0.933594"/><stop style="stop-color:#3576c4;stop-opacity:1;" offset="0.941406"/><stop style="stop-color:#3575c4;stop-opacity:1;" offset="0.945312"/><stop style="stop-color:#3675c4;stop-opacity:1;" offset="0.949219"/><stop style="stop-color:#3675c4;stop-opacity:1;" offset="0.953125"/><stop style="stop-color:#3774c3;stop-opacity:1;" offset="0.957031"/><stop style="stop-color:#3774c3;stop-opacity:1;" offset="0.964844"/><stop style="stop-color:#3773c3;stop-opacity:1;" offset="0.972656"/><stop style="stop-color:#3873c2;stop-opacity:1;" offset="0.976562"/><stop style="stop-color:#3872c2;stop-opacity:1;" offset="0.980469"/><stop style="stop-color:#3872c2;stop-opacity:1;" offset="0.988281"/><stop style="stop-color:#3872c2;stop-opacity:1;" offset="0.992188"/><stop style="stop-color:#3872c1;stop-opacity:1;" offset="1"/></radialGradient></defs><g id="e3f3e3ea6a"><g clip-rule="nonzero" clip-path="url(#11945b6c2d)"><g clip-rule="nonzero" clip-path="url(#bb98554ae5)"><g clip-rule="nonzero" clip-path="url(#140dc72fe8)"><g clip-rule="nonzero" clip-path="url(#576ceb59a1)"><path style=" stroke:none;fill-rule:nonzero;fill:url(#c0fe742ff8);" d="M 417.140625 147 L 110.867188 -53.007812 L -73.089844 227.867188 L 233.183594 427.875 Z M 417.140625 147 "/></g></g></g></g><g clip-rule="nonzero" clip-path="url(#86b69d3802)"><g clip-rule="nonzero" clip-path="url(#4306e2acaf)"><g clip-rule="nonzero" clip-path="url(#3b3bc33d0a)"><g clip-rule="nonzero" clip-path="url(#6c7a564c39)"><path style=" stroke:none;fill-rule:nonzero;fill:url(#abfe9116e8);" d="M 424.34375 172.351562 L 143.789062 -10.863281 L -15.417969 232.222656 L 265.140625 415.4375 Z M 424.34375 172.351562 "/></g></g></g></g><g style="fill:#004aad;fill-opacity:1;"><g transform="translate(22.725005, 209.952481)"><path style="stroke:none" d="M 6.421875 0.234375 C 5.421875 0.234375 4.539062 0 3.78125 -0.46875 C 3.019531 -0.945312 2.425781 -1.664062 2 -2.625 C 1.570312 -3.582031 1.359375 -4.765625 1.359375 -6.171875 C 1.359375 -7.585938 1.582031 -8.773438 2.03125 -9.734375 C 2.476562 -10.703125 3.09375 -11.421875 3.875 -11.890625 C 4.664062 -12.367188 5.582031 -12.609375 6.625 -12.609375 C 7.445312 -12.609375 8.1875 -12.453125 8.84375 -12.140625 C 9.5 -11.828125 10.066406 -11.316406 10.546875 -10.609375 L 10.78125 -10.65625 L 10.78125 -17.34375 L 12.609375 -17.34375 L 12.609375 0 L 10.78125 0 L 10.78125 -1.8125 L 10.546875 -1.84375 C 10.140625 -1.238281 9.585938 -0.738281 8.890625 -0.34375 C 8.203125 0.0390625 7.378906 0.234375 6.421875 0.234375 Z M 6.984375 -1.40625 C 8.140625 -1.40625 9.0625 -1.796875 9.75 -2.578125 C 10.4375 -3.367188 10.78125 -4.566406 10.78125 -6.171875 C 10.78125 -7.796875 10.4375 -9 9.75 -9.78125 C 9.0625 -10.570312 8.140625 -10.96875 6.984375 -10.96875 C 5.796875 -10.96875 4.878906 -10.582031 4.234375 -9.8125 C 3.597656 -9.039062 3.28125 -7.828125 3.28125 -6.171875 C 3.28125 -2.992188 4.515625 -1.40625 6.984375 -1.40625 Z M 6.984375 -1.40625 "/></g></g></g></svg>