<svg xmlns="http://www.w3.org/2000/svg" width="500" height="500" version="1.2" viewBox="0 0 375 375">
  <defs>
    <clipPath id="a">
      <path d="M28.285 28.238h289.008v191.25H28.285Zm0 0"/>
    </clipPath>
    <clipPath id="b">
      <path d="M288.5 178.355c2.266-1.398 4.367-2.89 6.309-4.566 1.921-1.695 3.691-3.492 5.253-5.39 5.583-6.848 8.63-16.77 6.532-25.5a22.803 22.803 0 0 0-2.285-5.981c-1.016-1.883-2.243-3.66-3.715-5.234-5.778-6.446-14.434-10.094-23.336-10.692-8.95-.726-18.18 1.328-26.758 5.098-1.09.418-2.137.98-3.203 1.476-.496.243-1.14.54-1.512.735l-1.73.918a98.887 98.887 0 0 0-3.07 1.754 95.5 95.5 0 0 0-3.079 1.89c-4.074 2.594-7.98 5.508-11.816 8.578-7.668 6.157-14.86 13.188-22.086 20.489-7.262 7.28-14.524 14.89-22.418 22.289-7.926 7.344-16.54 14.492-26.36 20.476-9.773 6.016-20.921 10.535-32.515 12.848-5.797 1.14-11.676 1.793-17.516 1.91l-1.093.024-.813.003-2.441-.046c-.575.004-1.504-.067-2.297-.114-.813-.054-1.664-.097-2.438-.175-3.047-.313-6.093-.723-9.09-1.395-12.007-2.57-23.496-8.063-32.89-16.14-9.422-8.02-16.793-18.505-21.086-30.13-2.203-5.792-3.543-11.875-4.184-17.976l-.148-1.441-.059-.973-.117-1.95-.027-.488-.016-.613-.02-1.238-.019-2.473c.09-3.086.297-6.144.746-9.195.879-6.082 2.465-12.086 4.84-17.754a75.939 75.939 0 0 1 9.14-15.902c3.669-4.891 7.973-9.274 12.704-13.106 4.746-3.82 10.008-6.965 15.527-9.473a70.837 70.837 0 0 1 17.32-5.324 51.023 51.023 0 0 1 4.48-.617c1.497-.191 3-.258 4.5-.336 1.5-.113 3-.043 4.5-.062l.817.004.489.027.972.058 1.953.114-8.77 5.273c3.84-7.2 8.548-13.914 14.067-19.847 5.504-5.938 11.715-11.184 18.492-15.504a94.91 94.91 0 0 1 21.672-10.16c7.586-2.434 15.465-3.774 23.317-4.172 3.93-.184 7.863-.153 11.75.242l2.765.25 2.985.41c2.011.234 3.91.637 5.808 1.031 3.805.797 7.528 1.906 11.168 3.18 1.828.617 3.594 1.41 5.38 2.105 1.76.774 3.476 1.645 5.198 2.477 1.672.945 3.368 1.824 4.993 2.816 1.597 1.051 3.253 1.98 4.78 3.117 1.544 1.118 3.11 2.172 4.56 3.395l2.202 1.777c.723.61 1.407 1.258 2.11 1.883 1.414 1.242 2.73 2.59 4.02 3.953 1.331 1.313 2.515 2.774 3.738 4.176 1.242 1.387 2.304 2.934 3.457 4.379 1.086 1.504 2.078 3.078 3.11 4.598-2.56-2.668-5.161-5.254-7.938-7.63-1.41-1.16-2.766-2.366-4.254-3.417l-2.18-1.617c-.734-.532-1.512-1.004-2.254-1.512-.754-.5-1.484-1.024-2.246-1.5l-2.32-1.383c-1.512-.957-3.137-1.738-4.711-2.578-1.567-.86-3.242-1.504-4.844-2.266-1.633-.707-3.316-1.293-4.957-1.945l-5.05-1.602c-1.716-.43-3.388-.957-5.11-1.304-3.43-.742-6.88-1.325-10.348-1.617-1.738-.165-3.472-.336-5.137-.34l-2.507-.078-2.743.054c-3.464.012-6.898.418-10.289.895-6.78 1.011-13.386 2.855-19.609 5.504a79.787 79.787 0 0 0-17.418 10.054 78.72 78.72 0 0 0-14.273 13.871c-4.11 5.184-7.633 10.801-10.356 16.766l-2.398 5.266-6.371.008-1.954.003h-.976l-.488.004c.476.004.074.004.152.008l-.106.008-.207.012c-1.101.093-2.21.086-3.304.25-1.094.129-2.188.23-3.27.445-1.086.16-2.16.39-3.226.637a50.609 50.609 0 0 0-12.278 4.422c-7.754 3.941-14.453 9.832-19.418 16.851a53.594 53.594 0 0 0-6.015 11.34c-1.48 4.004-2.547 8.156-3.055 12.39-.273 2.114-.36 4.258-.387 6.38l.043 1.433.016.715.004.363.039.489.234 2.917c.028.32-.023-.292-.011-.195l.011.098.082.597a52.746 52.746 0 0 0 3.063 12.333c2.976 7.906 8.023 14.976 14.5 20.417a52.24 52.24 0 0 0 22.601 11.2c2.082.488 4.207.777 6.336 1.02.52.054.973.07 1.457.113.508.03.875.09 1.602.097l1.953.051.488.012c-.496-.004-.078 0-.156-.004h.106l.214-.004.856-.008a78.85 78.85 0 0 0 13.539-1.207c8.887-1.578 17.375-4.902 25.516-9.504 8.14-4.605 15.867-10.558 23.43-17.121 7.609-6.523 15.058-13.672 22.827-20.82 7.793-7.121 15.953-14.235 24.903-20.653a137.604 137.604 0 0 1 14.082-8.879 108.582 108.582 0 0 1 3.718-1.957c1.22-.62 2.653-1.3 3.856-1.859l1.785-.797c.8-.36 1.36-.57 2.05-.86 1.329-.527 2.622-1.112 3.99-1.562 10.722-3.914 22.616-5.797 34.413-4.03 11.715 1.675 23.32 7.55 30.774 17.35 1.867 2.419 3.402 5.11 4.605 7.934a33.497 33.497 0 0 1 2.48 8.844c.442 3.031.497 6.121.079 9.129-.117 1.437-.563 3.191-.895 4.601l-.582 1.868-.203.656-.234.516-.477 1.03c-2.59 5.47-6.676 9.813-11.183 13.06a35.85 35.85 0 0 1-7.165 4.042c-2.484 1.067-5.062 1.914-7.648 2.41Zm0 0"/>
    </clipPath>
    <clipPath id="c">
      <path d="M288.5 178.355c2.266-1.398 4.367-2.89 6.309-4.566 1.921-1.695 3.691-3.492 5.253-5.39 5.583-6.848 8.63-16.77 6.532-25.5a22.803 22.803 0 0 0-2.285-5.981c-1.016-1.883-2.243-3.66-3.715-5.234-5.778-6.446-14.434-10.094-23.336-10.692-8.95-.726-18.18 1.328-26.758 5.098-1.09.418-2.137.98-3.203 1.476-.496.243-1.14.54-1.512.735l-1.73.918a98.887 98.887 0 0 0-3.07 1.754 95.5 95.5 0 0 0-3.079 1.89c-4.074 2.594-7.98 5.508-11.816 8.578-7.668 6.157-14.86 13.188-22.086 20.489-7.262 7.28-14.524 14.89-22.418 22.289-7.926 7.344-16.54 14.492-26.36 20.476-9.773 6.016-20.921 10.535-32.515 12.848-5.797 1.14-11.676 1.793-17.516 1.91l-1.093.024-.813.003-2.441-.046c-.575.004-1.504-.067-2.297-.114-.813-.054-1.664-.097-2.438-.175-3.047-.313-6.093-.723-9.09-1.395-12.007-2.57-23.496-8.063-32.89-16.14-9.422-8.02-16.793-18.505-21.086-30.13-2.203-5.792-3.543-11.875-4.184-17.976l-.148-1.441-.059-.973-.117-1.95-.027-.488-.016-.613-.02-1.238-.019-2.473c.09-3.086.297-6.144.746-9.195.879-6.082 2.465-12.086 4.84-17.754a75.939 75.939 0 0 1 9.14-15.902c3.669-4.891 7.973-9.274 12.704-13.106 4.746-3.82 10.008-6.965 15.527-9.473a70.837 70.837 0 0 1 17.32-5.324 51.023 51.023 0 0 1 4.48-.617c1.497-.191 3-.258 4.5-.336 1.5-.113 3-.043 4.5-.062l.817.004.489.027.972.058 1.953.114-8.77 5.273c3.84-7.2 8.548-13.914 14.067-19.847 5.504-5.938 11.715-11.184 18.492-15.504a94.91 94.91 0 0 1 21.672-10.16c7.586-2.434 15.465-3.774 23.317-4.172 3.93-.184 7.863-.153 11.75.242l2.765.25 2.985.41c2.011.234 3.91.637 5.808 1.031 3.805.797 7.528 1.906 11.168 3.18 1.828.617 3.594 1.41 5.38 2.105 1.76.774 3.476 1.645 5.198 2.477 1.672.945 3.368 1.824 4.993 2.816 1.597 1.051 3.253 1.98 4.78 3.117 1.544 1.118 3.11 2.172 4.56 3.395l2.202 1.777c.723.61 1.407 1.258 2.11 1.883 1.414 1.242 2.73 2.59 4.02 3.953 1.331 1.313 2.515 2.774 3.738 4.176 1.242 1.387 2.304 2.934 3.457 4.379 1.086 1.504 2.078 3.078 3.11 4.598-2.56-2.668-5.161-5.254-7.938-7.63-1.41-1.16-2.766-2.366-4.254-3.417l-2.18-1.617c-.734-.532-1.512-1.004-2.254-1.512-.754-.5-1.484-1.024-2.246-1.5l-2.32-1.383c-1.512-.957-3.137-1.738-4.711-2.578-1.567-.86-3.242-1.504-4.844-2.266-1.633-.707-3.316-1.293-4.957-1.945l-5.05-1.602c-1.716-.43-3.388-.957-5.11-1.304-3.43-.742-6.88-1.325-10.348-1.617-1.738-.165-3.472-.336-5.137-.34l-2.507-.078-2.743.054c-3.464.012-6.898.418-10.289.895-6.78 1.011-13.386 2.855-19.609 5.504a79.787 79.787 0 0 0-17.418 10.054 78.72 78.72 0 0 0-14.273 13.871c-4.11 5.184-7.633 10.801-10.356 16.766l-2.398 5.266-6.371.008-1.954.003h-.976l-.488.004c.476.004.074.004.152.008l-.106.008-.207.012c-1.101.093-2.21.086-3.304.25-1.094.129-2.188.23-3.27.445-1.086.16-2.16.39-3.226.637a50.609 50.609 0 0 0-12.278 4.422c-7.754 3.941-14.453 9.832-19.418 16.851a53.594 53.594 0 0 0-6.015 11.34c-1.48 4.004-2.547 8.156-3.055 12.39-.273 2.114-.36 4.258-.387 6.38l.043 1.433.016.715.004.363.039.489.234 2.917c.028.32-.023-.292-.011-.195l.011.098.082.597a52.746 52.746 0 0 0 3.063 12.333c2.976 7.906 8.023 14.976 14.5 20.417a52.24 52.24 0 0 0 22.601 11.2c2.082.488 4.207.777 6.336 1.02.52.054.973.07 1.457.113.508.03.875.09 1.602.097l1.953.051.488.012c-.496-.004-.078 0-.156-.004h.106l.214-.004.856-.008a78.85 78.85 0 0 0 13.539-1.207c8.887-1.578 17.375-4.902 25.516-9.504 8.14-4.605 15.867-10.558 23.43-17.121 7.609-6.523 15.058-13.672 22.827-20.82 7.793-7.121 15.953-14.235 24.903-20.653a137.604 137.604 0 0 1 14.082-8.879 108.582 108.582 0 0 1 3.718-1.957c1.22-.62 2.653-1.3 3.856-1.859l1.785-.797c.8-.36 1.36-.57 2.05-.86 1.329-.527 2.622-1.112 3.99-1.562 10.722-3.914 22.616-5.797 34.413-4.03 11.715 1.675 23.32 7.55 30.774 17.35 1.867 2.419 3.402 5.11 4.605 7.934a33.497 33.497 0 0 1 2.48 8.844c.442 3.031.497 6.121.079 9.129-.117 1.437-.563 3.191-.895 4.601l-.582 1.868-.203.656-.234.516-.477 1.03c-2.59 5.47-6.676 9.813-11.183 13.06a35.85 35.85 0 0 1-7.165 4.042c-2.484 1.067-5.062 1.914-7.648 2.41"/>
    </clipPath>
    <clipPath id="d">
      <path d="m404.938 85.48-289.95-189.625-174.164 266.313 289.95 189.625Zm0 0"/>
    </clipPath>
    <clipPath id="f">
      <path d="M60.3 67.086H347V208.73H60.3Zm0 0"/>
    </clipPath>
    <clipPath id="g">
      <path d="m234.102 189.813 1.332.835c.863.575 2.207 1.325 3.918 2.293 3.468 1.899 8.777 4.317 15.765 6.024 6.953 1.64 15.778 2.43 25.207.617 1.25-.254 2.64-.445 3.828-.762 1.133-.332 2.286-.668 3.453-1.007 1.149-.262 2.368-.848 3.57-1.286 1.208-.46 2.438-.898 3.61-1.539 4.813-2.187 9.488-5.25 13.75-9.035 8.547-7.492 15.512-18.191 18.094-30.508l.766-4.656c.183-1.57.238-3.164.382-4.746l.036-.45c-.008.169.035-.581-.012.34l-.012-.706-.031-1.41-.055-2.84c.055-2.098-.328-3.282-.496-4.809l-.305-2.207-.586-2.375-.554-2.387c-.157-.804-.516-1.554-.758-2.336-.969-3.136-2.367-6.152-3.942-9.066-3.234-5.8-7.558-11.098-12.792-15.41a53.353 53.353 0 0 0-17.868-9.64c-1.656-.423-3.316-.845-4.976-1.263l-5.094-.754c-1.71-.152-3.445-.132-5.164-.238l-.645-.035c-.418.004.387-.016.227-.008l-.2.008-.394.016-1.582.062-3.172.121-.793.031c-.242.016-.433.051-.656.075l-1.273.152-2.551.281c-1.742.223-3.637.625-5.453.918-1.824.383-3.637.875-5.461 1.293l-5.41 1.645c-14.426 4.754-28.051 13.086-40.86 22.558a270.689 270.689 0 0 0-9.449 7.383 371.643 371.643 0 0 0-9.27 7.684c-6.12 5.215-12.109 10.59-18.167 15.82-6.028 5.219-12.079 10.516-18.18 15.375-6.207 4.938-12.64 9.824-19.844 13.68-7.117 3.883-15.09 6.781-23.254 7.547-1.011.136-2.043.117-3.054.172l-1.512.054c.305-.008-.637.012-.594.004l-.16-.012-.953-.062c-.84-.059-1.684-.113-2.52-.168-.957-.098-2.133-.293-3.172-.453-2.234-.281-3.992-.899-5.89-1.403-1.832-.617-3.625-1.308-5.32-2.113-6.774-3.289-12.336-7.933-16.395-13.207-4.012-5.32-6.64-11.164-7.848-16.875-1.218-5.672-1.09-11.324-.23-15.914.8-4.812 2.285-8.953 3.972-12.496a44.796 44.796 0 0 1 5.489-8.777c1.87-2.336 3.625-4.149 5.14-5.508a28.788 28.788 0 0 1 2.036-1.738 23.042 23.042 0 0 1 1.539-1.172l1.277-.918-1.031 1.18c-.692.765-1.649 1.964-2.813 3.554-2.328 3.164-5.3 8.211-7.203 15.05-.898 3.415-1.602 7.298-1.582 11.427-.027 4.312.535 8.52 2.164 12.812a34.027 34.027 0 0 0 7.723 11.926c3.554 3.488 8.015 6.36 12.988 8.039.598.27 1.266.352 1.895.54.64.148 1.257.386 1.914.476 1.28.172 2.683.511 3.77.476.609.02 1.081.094 1.788.106.84-.032 1.68-.063 2.524-.098l.632-.023.32-.012.16-.008c.145 0-.69.004-.276-.008l1.027-.16c.684-.121 1.367-.148 2.055-.336 5.468-1.129 10.98-3.547 16.367-7.176 5.406-3.554 10.746-8.09 16.16-13.136 5.504-5.172 11.043-10.43 16.734-16.012a843.243 843.243 0 0 1 17.672-16.918c6.121-5.707 12.578-11.367 19.485-16.758 13.718-10.812 29.394-20.676 47.293-26.75 9.02-2.941 18.214-4.84 28.238-5.379l3.172-.097 1.586-.047.398-.012.195-.008c-.015 0 .907-.012.625-.004l.938.051c2.492.168 4.988.25 7.46.54 2.462.413 4.927.796 7.356 1.288a328 328 0 0 1 7.164 2.016c18.864 6.289 34.16 20.465 42.118 37.246 1.98 4.2 3.648 8.508 4.757 12.922.278 1.101.664 2.176.84 3.293l.57 3.332c.176 1.105.356 2.21.528 3.312.11 1.16.168 2.364.238 3.535.11 2.297.324 4.899.133 6.602l-.148 2.832-.079 1.41-.035.703c-.043 1.04-.027.407-.043.688l-.031.199-.059.402c-.324 2.133-.586 4.258-.996 6.34-.507 2.063-1.004 4.113-1.57 6.117-2.445 7.996-6.246 15.25-10.918 21.41-4.684 6.157-10.133 11.301-15.945 15.313-5.813 3.992-11.895 7.047-17.985 8.867-1.488.555-3.023.89-4.523 1.242-1.524.329-2.918.774-4.496.946-1.527.215-3.031.422-4.516.633-1.437.156-2.683.12-4.004.19-11.218.446-20.62-2.073-27.707-5.16-7.113-3.113-11.918-6.812-15.023-9.37-1.547-1.32-2.664-2.383-3.38-3.13l-1.108-1.113Zm0 0"/>
    </clipPath>
    <clipPath id="h">
      <path d="m234.102 189.813 1.332.835c.863.575 2.207 1.325 3.918 2.293 3.468 1.899 8.777 4.317 15.765 6.024 6.953 1.64 15.778 2.43 25.207.617 1.25-.254 2.64-.445 3.828-.762 1.133-.332 2.286-.668 3.453-1.007 1.149-.262 2.368-.848 3.57-1.286 1.208-.46 2.438-.898 3.61-1.539 4.813-2.187 9.488-5.25 13.75-9.035 8.547-7.492 15.512-18.191 18.094-30.508l.766-4.656c.183-1.57.238-3.164.382-4.746l.036-.45c-.008.169.035-.581-.012.34l-.012-.706-.031-1.41-.055-2.84c.055-2.098-.328-3.282-.496-4.809l-.305-2.207-.586-2.375-.554-2.387c-.157-.804-.516-1.554-.758-2.336-.969-3.136-2.367-6.152-3.942-9.066-3.234-5.8-7.558-11.098-12.792-15.41a53.353 53.353 0 0 0-17.868-9.64c-1.656-.423-3.316-.845-4.976-1.263l-5.094-.754c-1.71-.152-3.445-.132-5.164-.238l-.645-.035c-.418.004.387-.016.227-.008l-.2.008-.394.016-1.582.062-3.172.121-.793.031c-.242.016-.433.051-.656.075l-1.273.152-2.551.281c-1.742.223-3.637.625-5.453.918-1.824.383-3.637.875-5.461 1.293l-5.41 1.645c-14.426 4.754-28.051 13.086-40.86 22.558a270.689 270.689 0 0 0-9.449 7.383 371.643 371.643 0 0 0-9.27 7.684c-6.12 5.215-12.109 10.59-18.167 15.82-6.028 5.219-12.079 10.516-18.18 15.375-6.207 4.938-12.64 9.824-19.844 13.68-7.117 3.883-15.09 6.781-23.254 7.547-1.011.136-2.043.117-3.054.172l-1.512.054c.305-.008-.637.012-.594.004l-.16-.012-.953-.062c-.84-.059-1.684-.113-2.52-.168-.957-.098-2.133-.293-3.172-.453-2.234-.281-3.992-.899-5.89-1.403-1.832-.617-3.625-1.308-5.32-2.113-6.774-3.289-12.336-7.933-16.395-13.207-4.012-5.32-6.64-11.164-7.848-16.875-1.218-5.672-1.09-11.324-.23-15.914.8-4.812 2.285-8.953 3.972-12.496a44.796 44.796 0 0 1 5.489-8.777c1.87-2.336 3.625-4.149 5.14-5.508a28.788 28.788 0 0 1 2.036-1.738 23.042 23.042 0 0 1 1.539-1.172l1.277-.918-1.031 1.18c-.692.765-1.649 1.964-2.813 3.554-2.328 3.164-5.3 8.211-7.203 15.05-.898 3.415-1.602 7.298-1.582 11.427-.027 4.312.535 8.52 2.164 12.812a34.027 34.027 0 0 0 7.723 11.926c3.554 3.488 8.015 6.36 12.988 8.039.598.27 1.266.352 1.895.54.64.148 1.257.386 1.914.476 1.28.172 2.683.511 3.77.476.609.02 1.081.094 1.788.106.84-.032 1.68-.063 2.524-.098l.632-.023.32-.012.16-.008c.145 0-.69.004-.276-.008l1.027-.16c.684-.121 1.367-.148 2.055-.336 5.468-1.129 10.98-3.547 16.367-7.176 5.406-3.554 10.746-8.09 16.16-13.136 5.504-5.172 11.043-10.43 16.734-16.012a843.243 843.243 0 0 1 17.672-16.918c6.121-5.707 12.578-11.367 19.485-16.758 13.718-10.812 29.394-20.676 47.293-26.75 9.02-2.941 18.214-4.84 28.238-5.379l3.172-.097 1.586-.047.398-.012.195-.008c-.015 0 .907-.012.625-.004l.938.051c2.492.168 4.988.25 7.46.54 2.462.413 4.927.796 7.356 1.288a328 328 0 0 1 7.164 2.016c18.864 6.289 34.16 20.465 42.118 37.246 1.98 4.2 3.648 8.508 4.757 12.922.278 1.101.664 2.176.84 3.293l.57 3.332c.176 1.105.356 2.21.528 3.312.11 1.16.168 2.364.238 3.535.11 2.297.324 4.899.133 6.602l-.148 2.832-.079 1.41-.035.703c-.043 1.04-.027.407-.043.688l-.031.199-.059.402c-.324 2.133-.586 4.258-.996 6.34-.507 2.063-1.004 4.113-1.57 6.117-2.445 7.996-6.246 15.25-10.918 21.41-4.684 6.157-10.133 11.301-15.945 15.313-5.813 3.992-11.895 7.047-17.985 8.867-1.488.555-3.023.89-4.523 1.242-1.524.329-2.918.774-4.496.946-1.527.215-3.031.422-4.516.633-1.437.156-2.683.12-4.004.19-11.218.446-20.62-2.073-27.707-5.16-7.113-3.113-11.918-6.812-15.023-9.37-1.547-1.32-2.664-2.383-3.38-3.13l-1.108-1.113"/>
    </clipPath>
    <clipPath id="i">
      <path d="M411.852 109.652 146.035-64.19-4.852 166.527l265.82 173.844Zm0 0"/>
    </clipPath>
    <radialGradient id="e" cx="0" cy="0" r="264.447" fx="0" fy="0" gradientTransform="rotate(123.184 112.543 73.574) skewX(-.001)" gradientUnits="userSpaceOnUse">
      <stop offset="0" style="stop-color:#51ade5;stop-opacity:1"/>
      <stop offset=".004" style="stop-color:#50ace5;stop-opacity:1"/>
      <stop offset=".008" style="stop-color:#50ace4;stop-opacity:1"/>
      <stop offset=".012" style="stop-color:#50abe4;stop-opacity:1"/>
      <stop offset=".016" style="stop-color:#4fabe4;stop-opacity:1"/>
      <stop offset=".02" style="stop-color:#4faae3;stop-opacity:1"/>
      <stop offset=".023" style="stop-color:#4fa9e2;stop-opacity:1"/>
      <stop offset=".027" style="stop-color:#4fa8e2;stop-opacity:1"/>
      <stop offset=".031" style="stop-color:#4fa7e1;stop-opacity:1"/>
      <stop offset=".035" style="stop-color:#4fa7e1;stop-opacity:1"/>
      <stop offset=".039" style="stop-color:#4ea7e1;stop-opacity:1"/>
      <stop offset=".043" style="stop-color:#4ea6e0;stop-opacity:1"/>
      <stop offset=".047" style="stop-color:#4ea6e0;stop-opacity:1"/>
      <stop offset=".051" style="stop-color:#4ea5e0;stop-opacity:1"/>
      <stop offset=".055" style="stop-color:#4ea5e0;stop-opacity:1"/>
      <stop offset=".059" style="stop-color:#4ea4df;stop-opacity:1"/>
      <stop offset=".063" style="stop-color:#4da3df;stop-opacity:1"/>
      <stop offset=".066" style="stop-color:#4da3df;stop-opacity:1"/>
      <stop offset=".07" style="stop-color:#4ca2de;stop-opacity:1"/>
      <stop offset=".074" style="stop-color:#4ca1de;stop-opacity:1"/>
      <stop offset=".078" style="stop-color:#4ca1de;stop-opacity:1"/>
      <stop offset=".082" style="stop-color:#4ca0dd;stop-opacity:1"/>
      <stop offset=".086" style="stop-color:#4ca0dd;stop-opacity:1"/>
      <stop offset=".09" style="stop-color:#4c9fdd;stop-opacity:1"/>
      <stop offset=".094" style="stop-color:#4b9fdc;stop-opacity:1"/>
      <stop offset=".098" style="stop-color:#4b9edc;stop-opacity:1"/>
      <stop offset=".102" style="stop-color:#4b9edc;stop-opacity:1"/>
      <stop offset=".105" style="stop-color:#4b9ddb;stop-opacity:1"/>
      <stop offset=".109" style="stop-color:#4b9ddb;stop-opacity:1"/>
      <stop offset=".113" style="stop-color:#4b9cda;stop-opacity:1"/>
      <stop offset=".117" style="stop-color:#4a9cda;stop-opacity:1"/>
      <stop offset=".121" style="stop-color:#4a9bda;stop-opacity:1"/>
      <stop offset=".125" style="stop-color:#4a9bd9;stop-opacity:1"/>
      <stop offset=".129" style="stop-color:#4a9ad9;stop-opacity:1"/>
      <stop offset=".133" style="stop-color:#4a9ad9;stop-opacity:1"/>
      <stop offset=".137" style="stop-color:#4a99d8;stop-opacity:1"/>
      <stop offset=".141" style="stop-color:#4999d8;stop-opacity:1"/>
      <stop offset=".145" style="stop-color:#4998d7;stop-opacity:1"/>
      <stop offset=".148" style="stop-color:#4997d7;stop-opacity:1"/>
      <stop offset=".152" style="stop-color:#4896d6;stop-opacity:1"/>
      <stop offset=".156" style="stop-color:#4895d6;stop-opacity:1"/>
      <stop offset=".16" style="stop-color:#4895d6;stop-opacity:1"/>
      <stop offset=".164" style="stop-color:#4894d6;stop-opacity:1"/>
      <stop offset=".168" style="stop-color:#4894d5;stop-opacity:1"/>
      <stop offset=".172" style="stop-color:#4893d5;stop-opacity:1"/>
      <stop offset=".176" style="stop-color:#4793d5;stop-opacity:1"/>
      <stop offset=".18" style="stop-color:#4793d4;stop-opacity:1"/>
      <stop offset=".184" style="stop-color:#4792d4;stop-opacity:1"/>
      <stop offset=".188" style="stop-color:#4792d4;stop-opacity:1"/>
      <stop offset=".191" style="stop-color:#4791d3;stop-opacity:1"/>
      <stop offset=".195" style="stop-color:#4791d3;stop-opacity:1"/>
      <stop offset=".199" style="stop-color:#4791d2;stop-opacity:1"/>
      <stop offset=".203" style="stop-color:#4790d2;stop-opacity:1"/>
      <stop offset=".207" style="stop-color:#478fd2;stop-opacity:1"/>
      <stop offset=".211" style="stop-color:#468fd2;stop-opacity:1"/>
      <stop offset=".215" style="stop-color:#468ed1;stop-opacity:1"/>
      <stop offset=".219" style="stop-color:#468ed1;stop-opacity:1"/>
      <stop offset=".223" style="stop-color:#468dd0;stop-opacity:1"/>
      <stop offset=".227" style="stop-color:#468cd0;stop-opacity:1"/>
      <stop offset=".23" style="stop-color:#458bd0;stop-opacity:1"/>
      <stop offset=".234" style="stop-color:#458bd0;stop-opacity:1"/>
      <stop offset=".238" style="stop-color:#458acf;stop-opacity:1"/>
      <stop offset=".242" style="stop-color:#448acf;stop-opacity:1"/>
      <stop offset=".246" style="stop-color:#4489cf;stop-opacity:1"/>
      <stop offset=".25" style="stop-color:#4489ce;stop-opacity:1"/>
      <stop offset=".254" style="stop-color:#4488ce;stop-opacity:1"/>
      <stop offset=".258" style="stop-color:#4488ce;stop-opacity:1"/>
      <stop offset=".266" style="stop-color:#4487cd;stop-opacity:1"/>
      <stop offset=".27" style="stop-color:#4486cd;stop-opacity:1"/>
      <stop offset=".273" style="stop-color:#4386cc;stop-opacity:1"/>
      <stop offset=".277" style="stop-color:#4385cb;stop-opacity:1"/>
      <stop offset=".285" style="stop-color:#4385cb;stop-opacity:1"/>
      <stop offset=".289" style="stop-color:#4384ca;stop-opacity:1"/>
      <stop offset=".293" style="stop-color:#4284ca;stop-opacity:1"/>
      <stop offset=".297" style="stop-color:#4283c9;stop-opacity:1"/>
      <stop offset=".305" style="stop-color:#4282c9;stop-opacity:1"/>
      <stop offset=".309" style="stop-color:#4182c9;stop-opacity:1"/>
      <stop offset=".313" style="stop-color:#4181c9;stop-opacity:1"/>
      <stop offset=".316" style="stop-color:#4180c8;stop-opacity:1"/>
      <stop offset=".324" style="stop-color:#417fc8;stop-opacity:1"/>
      <stop offset=".328" style="stop-color:#417fc7;stop-opacity:1"/>
      <stop offset=".332" style="stop-color:#417ec7;stop-opacity:1"/>
      <stop offset=".336" style="stop-color:#417ec7;stop-opacity:1"/>
      <stop offset=".34" style="stop-color:#407dc7;stop-opacity:1"/>
      <stop offset=".344" style="stop-color:#407dc6;stop-opacity:1"/>
      <stop offset=".348" style="stop-color:#407cc6;stop-opacity:1"/>
      <stop offset=".352" style="stop-color:#407cc5;stop-opacity:1"/>
      <stop offset=".355" style="stop-color:#407bc5;stop-opacity:1"/>
      <stop offset=".359" style="stop-color:#407bc5;stop-opacity:1"/>
      <stop offset=".363" style="stop-color:#407ac4;stop-opacity:1"/>
      <stop offset=".367" style="stop-color:#3f7ac4;stop-opacity:1"/>
      <stop offset=".371" style="stop-color:#3f79c4;stop-opacity:1"/>
      <stop offset=".379" style="stop-color:#3e79c3;stop-opacity:1"/>
      <stop offset=".383" style="stop-color:#3e78c3;stop-opacity:1"/>
      <stop offset=".391" style="stop-color:#3e77c2;stop-opacity:1"/>
      <stop offset=".395" style="stop-color:#3e77c2;stop-opacity:1"/>
      <stop offset=".398" style="stop-color:#3e76c1;stop-opacity:1"/>
      <stop offset=".406" style="stop-color:#3e76c1;stop-opacity:1"/>
      <stop offset=".41" style="stop-color:#3e75c1;stop-opacity:1"/>
      <stop offset=".414" style="stop-color:#3d75c0;stop-opacity:1"/>
      <stop offset=".418" style="stop-color:#3d74c0;stop-opacity:1"/>
      <stop offset=".422" style="stop-color:#3d73c0;stop-opacity:1"/>
      <stop offset=".426" style="stop-color:#3d73bf;stop-opacity:1"/>
      <stop offset=".43" style="stop-color:#3d72bf;stop-opacity:1"/>
      <stop offset=".438" style="stop-color:#3d71be;stop-opacity:1"/>
      <stop offset=".441" style="stop-color:#3d71bd;stop-opacity:1"/>
      <stop offset=".445" style="stop-color:#3c70bd;stop-opacity:1"/>
      <stop offset=".453" style="stop-color:#3c6fbd;stop-opacity:1"/>
      <stop offset=".457" style="stop-color:#3b6fbc;stop-opacity:1"/>
      <stop offset=".461" style="stop-color:#3b6ebc;stop-opacity:1"/>
      <stop offset=".465" style="stop-color:#3b6ebb;stop-opacity:1"/>
      <stop offset=".473" style="stop-color:#3b6dbb;stop-opacity:1"/>
      <stop offset=".477" style="stop-color:#3b6dbb;stop-opacity:1"/>
      <stop offset=".48" style="stop-color:#3b6cba;stop-opacity:1"/>
      <stop offset=".484" style="stop-color:#3b6cba;stop-opacity:1"/>
      <stop offset=".492" style="stop-color:#3b6bb9;stop-opacity:1"/>
      <stop offset=".496" style="stop-color:#3a6ab9;stop-opacity:1"/>
      <stop offset=".504" style="stop-color:#3a6ab9;stop-opacity:1"/>
      <stop offset=".508" style="stop-color:#3a69b9;stop-opacity:1"/>
      <stop offset=".512" style="stop-color:#3a69b8;stop-opacity:1"/>
      <stop offset=".516" style="stop-color:#3a68b8;stop-opacity:1"/>
      <stop offset=".52" style="stop-color:#3968b7;stop-opacity:1"/>
      <stop offset=".523" style="stop-color:#3967b7;stop-opacity:1"/>
      <stop offset=".527" style="stop-color:#3967b7;stop-opacity:1"/>
      <stop offset=".531" style="stop-color:#3966b6;stop-opacity:1"/>
      <stop offset=".535" style="stop-color:#3966b6;stop-opacity:1"/>
      <stop offset=".539" style="stop-color:#3965b6;stop-opacity:1"/>
      <stop offset=".543" style="stop-color:#3965b6;stop-opacity:1"/>
      <stop offset=".547" style="stop-color:#3864b5;stop-opacity:1"/>
      <stop offset=".551" style="stop-color:#3864b5;stop-opacity:1"/>
      <stop offset=".555" style="stop-color:#3864b4;stop-opacity:1"/>
      <stop offset=".559" style="stop-color:#3863b4;stop-opacity:1"/>
      <stop offset=".563" style="stop-color:#3862b4;stop-opacity:1"/>
      <stop offset=".566" style="stop-color:#3862b3;stop-opacity:1"/>
      <stop offset=".57" style="stop-color:#3861b3;stop-opacity:1"/>
      <stop offset=".582" style="stop-color:#3860b3;stop-opacity:1"/>
      <stop offset=".586" style="stop-color:#3760b2;stop-opacity:1"/>
      <stop offset=".598" style="stop-color:#375fb1;stop-opacity:1"/>
      <stop offset=".602" style="stop-color:#365fb0;stop-opacity:1"/>
      <stop offset=".605" style="stop-color:#365eb0;stop-opacity:1"/>
      <stop offset=".609" style="stop-color:#365eb0;stop-opacity:1"/>
      <stop offset=".613" style="stop-color:#365daf;stop-opacity:1"/>
      <stop offset=".617" style="stop-color:#365daf;stop-opacity:1"/>
      <stop offset=".621" style="stop-color:#365caf;stop-opacity:1"/>
      <stop offset=".625" style="stop-color:#365cae;stop-opacity:1"/>
      <stop offset=".629" style="stop-color:#365bae;stop-opacity:1"/>
      <stop offset=".637" style="stop-color:#365bae;stop-opacity:1"/>
      <stop offset=".641" style="stop-color:#365aad;stop-opacity:1"/>
      <stop offset=".645" style="stop-color:#355aad;stop-opacity:1"/>
      <stop offset=".648" style="stop-color:#3559ad;stop-opacity:1"/>
      <stop offset=".656" style="stop-color:#3558ac;stop-opacity:1"/>
      <stop offset=".664" style="stop-color:#3557ac;stop-opacity:1"/>
      <stop offset=".668" style="stop-color:#3557ac;stop-opacity:1"/>
      <stop offset=".672" style="stop-color:#3456ab;stop-opacity:1"/>
      <stop offset=".68" style="stop-color:#3456ab;stop-opacity:1"/>
      <stop offset=".684" style="stop-color:#3455aa;stop-opacity:1"/>
      <stop offset=".688" style="stop-color:#3455aa;stop-opacity:1"/>
      <stop offset=".691" style="stop-color:#3454a9;stop-opacity:1"/>
      <stop offset=".699" style="stop-color:#3453a9;stop-opacity:1"/>
      <stop offset=".703" style="stop-color:#3352a9;stop-opacity:1"/>
      <stop offset=".719" style="stop-color:#3352a8;stop-opacity:1"/>
      <stop offset=".723" style="stop-color:#3352a7;stop-opacity:1"/>
      <stop offset=".727" style="stop-color:#3351a7;stop-opacity:1"/>
      <stop offset=".73" style="stop-color:#3351a6;stop-opacity:1"/>
      <stop offset=".734" style="stop-color:#3250a6;stop-opacity:1"/>
      <stop offset=".742" style="stop-color:#3250a5;stop-opacity:1"/>
      <stop offset=".75" style="stop-color:#324fa4;stop-opacity:1"/>
      <stop offset=".754" style="stop-color:#324ea4;stop-opacity:1"/>
      <stop offset=".758" style="stop-color:#324ea4;stop-opacity:1"/>
      <stop offset=".762" style="stop-color:#324da4;stop-opacity:1"/>
      <stop offset=".766" style="stop-color:#324da4;stop-opacity:1"/>
      <stop offset=".77" style="stop-color:#314ca3;stop-opacity:1"/>
      <stop offset=".773" style="stop-color:#314ca3;stop-opacity:1"/>
      <stop offset=".777" style="stop-color:#314ca3;stop-opacity:1"/>
      <stop offset=".781" style="stop-color:#314ba2;stop-opacity:1"/>
      <stop offset=".785" style="stop-color:#314ba2;stop-opacity:1"/>
      <stop offset=".789" style="stop-color:#314aa2;stop-opacity:1"/>
      <stop offset=".793" style="stop-color:#314aa1;stop-opacity:1"/>
      <stop offset=".797" style="stop-color:#314aa1;stop-opacity:1"/>
      <stop offset=".801" style="stop-color:#3149a1;stop-opacity:1"/>
      <stop offset=".805" style="stop-color:#3149a1;stop-opacity:1"/>
      <stop offset=".809" style="stop-color:#3149a0;stop-opacity:1"/>
      <stop offset=".813" style="stop-color:#3048a0;stop-opacity:1"/>
      <stop offset=".816" style="stop-color:#30489f;stop-opacity:1"/>
      <stop offset=".82" style="stop-color:#30479f;stop-opacity:1"/>
      <stop offset=".828" style="stop-color:#30469f;stop-opacity:1"/>
      <stop offset=".836" style="stop-color:#30469e;stop-opacity:1"/>
      <stop offset=".844" style="stop-color:#2f459e;stop-opacity:1"/>
      <stop offset=".848" style="stop-color:#2f459d;stop-opacity:1"/>
      <stop offset=".852" style="stop-color:#2f459d;stop-opacity:1"/>
      <stop offset=".855" style="stop-color:#2f449d;stop-opacity:1"/>
      <stop offset=".859" style="stop-color:#2f449d;stop-opacity:1"/>
      <stop offset=".863" style="stop-color:#2f449c;stop-opacity:1"/>
      <stop offset=".871" style="stop-color:#2f439c;stop-opacity:1"/>
      <stop offset=".879" style="stop-color:#2f429b;stop-opacity:1"/>
      <stop offset=".883" style="stop-color:#2f429b;stop-opacity:1"/>
      <stop offset=".887" style="stop-color:#2f419a;stop-opacity:1"/>
      <stop offset=".891" style="stop-color:#2f419a;stop-opacity:1"/>
      <stop offset=".895" style="stop-color:#2e419a;stop-opacity:1"/>
      <stop offset=".898" style="stop-color:#2e4099;stop-opacity:1"/>
      <stop offset=".902" style="stop-color:#2e4099;stop-opacity:1"/>
      <stop offset=".906" style="stop-color:#2e3f98;stop-opacity:1"/>
      <stop offset=".918" style="stop-color:#2e3e98;stop-opacity:1"/>
      <stop offset=".922" style="stop-color:#2e3e97;stop-opacity:1"/>
      <stop offset=".926" style="stop-color:#2e3e97;stop-opacity:1"/>
      <stop offset=".934" style="stop-color:#2d3d97;stop-opacity:1"/>
      <stop offset=".938" style="stop-color:#2d3c96;stop-opacity:1"/>
      <stop offset=".941" style="stop-color:#2d3c96;stop-opacity:1"/>
      <stop offset=".945" style="stop-color:#2d3b96;stop-opacity:1"/>
      <stop offset=".949" style="stop-color:#2d3b95;stop-opacity:1"/>
      <stop offset=".961" style="stop-color:#2d3a95;stop-opacity:1"/>
      <stop offset=".965" style="stop-color:#2d3a94;stop-opacity:1"/>
      <stop offset=".969" style="stop-color:#2c3a94;stop-opacity:1"/>
      <stop offset=".977" style="stop-color:#2c3993;stop-opacity:1"/>
      <stop offset=".98" style="stop-color:#2c3993;stop-opacity:1"/>
      <stop offset=".984" style="stop-color:#2c3992;stop-opacity:1"/>
      <stop offset="1" style="stop-color:#2c3892;stop-opacity:1"/>
    </radialGradient>
    <radialGradient id="j" cx="0" cy="0" r="264.447" fx="0" fy="0" gradientTransform="rotate(123.184 112.543 73.574) skewX(-.001)" gradientUnits="userSpaceOnUse">
      <stop offset="0" style="stop-color:#00adef;stop-opacity:1"/>
      <stop offset=".008" style="stop-color:#01adee;stop-opacity:1"/>
      <stop offset=".012" style="stop-color:#01acee;stop-opacity:1"/>
      <stop offset=".016" style="stop-color:#01acee;stop-opacity:1"/>
      <stop offset=".02" style="stop-color:#02acee;stop-opacity:1"/>
      <stop offset=".023" style="stop-color:#02acee;stop-opacity:1"/>
      <stop offset=".027" style="stop-color:#02acee;stop-opacity:1"/>
      <stop offset=".031" style="stop-color:#02abed;stop-opacity:1"/>
      <stop offset=".035" style="stop-color:#03abed;stop-opacity:1"/>
      <stop offset=".047" style="stop-color:#03abed;stop-opacity:1"/>
      <stop offset=".051" style="stop-color:#03aaed;stop-opacity:1"/>
      <stop offset=".055" style="stop-color:#03aaec;stop-opacity:1"/>
      <stop offset=".059" style="stop-color:#04aaec;stop-opacity:1"/>
      <stop offset=".063" style="stop-color:#04aaec;stop-opacity:1"/>
      <stop offset=".066" style="stop-color:#04aaec;stop-opacity:1"/>
      <stop offset=".07" style="stop-color:#05a9eb;stop-opacity:1"/>
      <stop offset=".082" style="stop-color:#05a9eb;stop-opacity:1"/>
      <stop offset=".086" style="stop-color:#06a9eb;stop-opacity:1"/>
      <stop offset=".09" style="stop-color:#06a8eb;stop-opacity:1"/>
      <stop offset=".102" style="stop-color:#06a8ea;stop-opacity:1"/>
      <stop offset=".105" style="stop-color:#07a7ea;stop-opacity:1"/>
      <stop offset=".117" style="stop-color:#07a7ea;stop-opacity:1"/>
      <stop offset=".121" style="stop-color:#07a7ea;stop-opacity:1"/>
      <stop offset=".125" style="stop-color:#08a7e9;stop-opacity:1"/>
      <stop offset=".129" style="stop-color:#08a6e9;stop-opacity:1"/>
      <stop offset=".141" style="stop-color:#08a6e9;stop-opacity:1"/>
      <stop offset=".145" style="stop-color:#08a5e9;stop-opacity:1"/>
      <stop offset=".148" style="stop-color:#09a5e8;stop-opacity:1"/>
      <stop offset=".152" style="stop-color:#09a5e8;stop-opacity:1"/>
      <stop offset=".156" style="stop-color:#09a5e8;stop-opacity:1"/>
      <stop offset=".16" style="stop-color:#0aa5e8;stop-opacity:1"/>
      <stop offset=".164" style="stop-color:#0aa4e8;stop-opacity:1"/>
      <stop offset=".168" style="stop-color:#0aa4e8;stop-opacity:1"/>
      <stop offset=".172" style="stop-color:#0ba4e7;stop-opacity:1"/>
      <stop offset=".184" style="stop-color:#0ba4e7;stop-opacity:1"/>
      <stop offset=".188" style="stop-color:#0ba3e7;stop-opacity:1"/>
      <stop offset=".191" style="stop-color:#0ca3e6;stop-opacity:1"/>
      <stop offset=".203" style="stop-color:#0da2e6;stop-opacity:1"/>
      <stop offset=".215" style="stop-color:#0da2e6;stop-opacity:1"/>
      <stop offset=".219" style="stop-color:#0ea2e5;stop-opacity:1"/>
      <stop offset=".223" style="stop-color:#0ea1e5;stop-opacity:1"/>
      <stop offset=".227" style="stop-color:#0ea1e5;stop-opacity:1"/>
      <stop offset=".23" style="stop-color:#0ea1e5;stop-opacity:1"/>
      <stop offset=".234" style="stop-color:#0ea1e4;stop-opacity:1"/>
      <stop offset=".238" style="stop-color:#0fa0e4;stop-opacity:1"/>
      <stop offset=".25" style="stop-color:#10a0e4;stop-opacity:1"/>
      <stop offset=".254" style="stop-color:#10a0e3;stop-opacity:1"/>
      <stop offset=".262" style="stop-color:#109fe3;stop-opacity:1"/>
      <stop offset=".27" style="stop-color:#109fe3;stop-opacity:1"/>
      <stop offset=".273" style="stop-color:#119ee3;stop-opacity:1"/>
      <stop offset=".281" style="stop-color:#119ee2;stop-opacity:1"/>
      <stop offset=".289" style="stop-color:#129ee2;stop-opacity:1"/>
      <stop offset=".297" style="stop-color:#129de2;stop-opacity:1"/>
      <stop offset=".305" style="stop-color:#139de1;stop-opacity:1"/>
      <stop offset=".313" style="stop-color:#139ce1;stop-opacity:1"/>
      <stop offset=".32" style="stop-color:#149ce1;stop-opacity:1"/>
      <stop offset=".328" style="stop-color:#149ce0;stop-opacity:1"/>
      <stop offset=".332" style="stop-color:#149ce0;stop-opacity:1"/>
      <stop offset=".336" style="stop-color:#149be0;stop-opacity:1"/>
      <stop offset=".344" style="stop-color:#149adf;stop-opacity:1"/>
      <stop offset=".348" style="stop-color:#159adf;stop-opacity:1"/>
      <stop offset=".355" style="stop-color:#1699df;stop-opacity:1"/>
      <stop offset=".363" style="stop-color:#1699de;stop-opacity:1"/>
      <stop offset=".371" style="stop-color:#1799de;stop-opacity:1"/>
      <stop offset=".379" style="stop-color:#1798de;stop-opacity:1"/>
      <stop offset=".387" style="stop-color:#1798dd;stop-opacity:1"/>
      <stop offset=".395" style="stop-color:#1897dd;stop-opacity:1"/>
      <stop offset=".402" style="stop-color:#1897dd;stop-opacity:1"/>
      <stop offset=".41" style="stop-color:#1996dc;stop-opacity:1"/>
      <stop offset=".426" style="stop-color:#1995db;stop-opacity:1"/>
      <stop offset=".434" style="stop-color:#1a95db;stop-opacity:1"/>
      <stop offset=".438" style="stop-color:#1a95db;stop-opacity:1"/>
      <stop offset=".441" style="stop-color:#1b95db;stop-opacity:1"/>
      <stop offset=".449" style="stop-color:#1b94da;stop-opacity:1"/>
      <stop offset=".457" style="stop-color:#1c94da;stop-opacity:1"/>
      <stop offset=".465" style="stop-color:#1c93da;stop-opacity:1"/>
      <stop offset=".473" style="stop-color:#1c93d9;stop-opacity:1"/>
      <stop offset=".48" style="stop-color:#1d92d9;stop-opacity:1"/>
      <stop offset=".496" style="stop-color:#1d91d8;stop-opacity:1"/>
      <stop offset=".504" style="stop-color:#1e91d8;stop-opacity:1"/>
      <stop offset=".516" style="stop-color:#1f90d8;stop-opacity:1"/>
      <stop offset=".52" style="stop-color:#1f90d7;stop-opacity:1"/>
      <stop offset=".531" style="stop-color:#2090d7;stop-opacity:1"/>
      <stop offset=".535" style="stop-color:#208fd7;stop-opacity:1"/>
      <stop offset=".539" style="stop-color:#208fd6;stop-opacity:1"/>
      <stop offset=".543" style="stop-color:#208fd6;stop-opacity:1"/>
      <stop offset=".547" style="stop-color:#208fd6;stop-opacity:1"/>
      <stop offset=".551" style="stop-color:#208ed6;stop-opacity:1"/>
      <stop offset=".555" style="stop-color:#208ed6;stop-opacity:1"/>
      <stop offset=".559" style="stop-color:#218ed6;stop-opacity:1"/>
      <stop offset=".563" style="stop-color:#218ed5;stop-opacity:1"/>
      <stop offset=".566" style="stop-color:#218dd5;stop-opacity:1"/>
      <stop offset=".578" style="stop-color:#228cd5;stop-opacity:1"/>
      <stop offset=".582" style="stop-color:#228cd4;stop-opacity:1"/>
      <stop offset=".586" style="stop-color:#228cd4;stop-opacity:1"/>
      <stop offset=".59" style="stop-color:#228cd4;stop-opacity:1"/>
      <stop offset=".594" style="stop-color:#238cd4;stop-opacity:1"/>
      <stop offset=".598" style="stop-color:#238cd4;stop-opacity:1"/>
      <stop offset=".602" style="stop-color:#238bd4;stop-opacity:1"/>
      <stop offset=".605" style="stop-color:#248bd3;stop-opacity:1"/>
      <stop offset=".609" style="stop-color:#248bd3;stop-opacity:1"/>
      <stop offset=".613" style="stop-color:#248ad3;stop-opacity:1"/>
      <stop offset=".617" style="stop-color:#248ad3;stop-opacity:1"/>
      <stop offset=".621" style="stop-color:#248ad2;stop-opacity:1"/>
      <stop offset=".633" style="stop-color:#2589d2;stop-opacity:1"/>
      <stop offset=".641" style="stop-color:#2689d2;stop-opacity:1"/>
      <stop offset=".648" style="stop-color:#2688d1;stop-opacity:1"/>
      <stop offset=".656" style="stop-color:#2788d1;stop-opacity:1"/>
      <stop offset=".664" style="stop-color:#2787d1;stop-opacity:1"/>
      <stop offset=".672" style="stop-color:#2787d0;stop-opacity:1"/>
      <stop offset=".68" style="stop-color:#2886d0;stop-opacity:1"/>
      <stop offset=".688" style="stop-color:#2886d0;stop-opacity:1"/>
      <stop offset=".695" style="stop-color:#2985cf;stop-opacity:1"/>
      <stop offset=".711" style="stop-color:#2984ce;stop-opacity:1"/>
      <stop offset=".719" style="stop-color:#2a84ce;stop-opacity:1"/>
      <stop offset=".727" style="stop-color:#2a83ce;stop-opacity:1"/>
      <stop offset=".734" style="stop-color:#2b83cd;stop-opacity:1"/>
      <stop offset=".742" style="stop-color:#2b82cd;stop-opacity:1"/>
      <stop offset=".75" style="stop-color:#2c82cd;stop-opacity:1"/>
      <stop offset=".758" style="stop-color:#2c82cd;stop-opacity:1"/>
      <stop offset=".762" style="stop-color:#2c81cc;stop-opacity:1"/>
      <stop offset=".773" style="stop-color:#2d80cc;stop-opacity:1"/>
      <stop offset=".777" style="stop-color:#2d80cc;stop-opacity:1"/>
      <stop offset=".781" style="stop-color:#2d80cb;stop-opacity:1"/>
      <stop offset=".785" style="stop-color:#2d80cb;stop-opacity:1"/>
      <stop offset=".789" style="stop-color:#2d7fcb;stop-opacity:1"/>
      <stop offset=".793" style="stop-color:#2d7fcb;stop-opacity:1"/>
      <stop offset=".797" style="stop-color:#2e7fcb;stop-opacity:1"/>
      <stop offset=".801" style="stop-color:#2e7fcb;stop-opacity:1"/>
      <stop offset=".805" style="stop-color:#2e7fca;stop-opacity:1"/>
      <stop offset=".809" style="stop-color:#2e7eca;stop-opacity:1"/>
      <stop offset=".813" style="stop-color:#2f7eca;stop-opacity:1"/>
      <stop offset=".816" style="stop-color:#2f7dc9;stop-opacity:1"/>
      <stop offset=".824" style="stop-color:#307dc9;stop-opacity:1"/>
      <stop offset=".832" style="stop-color:#307cc9;stop-opacity:1"/>
      <stop offset=".84" style="stop-color:#307cc8;stop-opacity:1"/>
      <stop offset=".848" style="stop-color:#317cc8;stop-opacity:1"/>
      <stop offset=".852" style="stop-color:#317bc8;stop-opacity:1"/>
      <stop offset=".859" style="stop-color:#317bc8;stop-opacity:1"/>
      <stop offset=".867" style="stop-color:#327ac7;stop-opacity:1"/>
      <stop offset=".883" style="stop-color:#327ac7;stop-opacity:1"/>
      <stop offset=".887" style="stop-color:#3379c6;stop-opacity:1"/>
      <stop offset=".891" style="stop-color:#3379c6;stop-opacity:1"/>
      <stop offset=".895" style="stop-color:#3379c6;stop-opacity:1"/>
      <stop offset=".898" style="stop-color:#3479c5;stop-opacity:1"/>
      <stop offset=".91" style="stop-color:#3478c5;stop-opacity:1"/>
      <stop offset=".918" style="stop-color:#3577c5;stop-opacity:1"/>
      <stop offset=".926" style="stop-color:#3577c5;stop-opacity:1"/>
      <stop offset=".934" style="stop-color:#3576c4;stop-opacity:1"/>
      <stop offset=".941" style="stop-color:#3576c4;stop-opacity:1"/>
      <stop offset=".945" style="stop-color:#3575c4;stop-opacity:1"/>
      <stop offset=".949" style="stop-color:#3675c4;stop-opacity:1"/>
      <stop offset=".953" style="stop-color:#3675c4;stop-opacity:1"/>
      <stop offset=".957" style="stop-color:#3774c3;stop-opacity:1"/>
      <stop offset=".965" style="stop-color:#3774c3;stop-opacity:1"/>
      <stop offset=".973" style="stop-color:#3773c3;stop-opacity:1"/>
      <stop offset=".977" style="stop-color:#3873c2;stop-opacity:1"/>
      <stop offset=".98" style="stop-color:#3872c2;stop-opacity:1"/>
      <stop offset=".988" style="stop-color:#3872c2;stop-opacity:1"/>
      <stop offset=".992" style="stop-color:#3872c2;stop-opacity:1"/>
      <stop offset="1" style="stop-color:#3872c1;stop-opacity:1"/>
    </radialGradient>
  </defs>
  <g clip-path="url(#a)">
    <g clip-path="url(#b)">
      <g clip-path="url(#c)">
        <g clip-path="url(#d)">
          <path d="M404.895 85.527 114.985-104.07-59.142 162.19l289.907 189.594Zm0 0" style="stroke:none;fill-rule:nonzero;fill:url(#e)"/>
        </g>
      </g>
    </g>
  </g>
  <g clip-path="url(#f)">
    <g clip-path="url(#g)">
      <g clip-path="url(#h)">
        <g clip-path="url(#i)">
          <path d="M411.715 109.563 146.148-64.118-4.55 166.316l265.567 173.68Zm0 0" style="stroke:none;fill-rule:nonzero;fill:url(#j)"/>
        </g>
      </g>
    </g>
  </g>
  <g style="fill:#2c3892;fill-opacity:1">
    <path d="M43.125 1.422c-10.031 0-17.871-3.117-23.516-9.36-5.648-6.238-8.468-14.847-8.468-25.828v-49.156h10.296v48.453c0 8.45 1.852 14.844 5.563 19.188 3.719 4.344 9.094 6.515 16.125 6.515 14.445 0 21.672-8.566 21.672-25.703v-48.453h10.437v49.156c0 10.98-2.843 19.59-8.53 25.828-5.688 6.243-13.548 9.36-23.579 9.36Zm0 0" style="stroke:none" transform="translate(11.612 316.824)"/>
  </g>
  <g style="fill:#2c3892;fill-opacity:1">
    <path d="M37.547 0c-6.793 0-12.063-1.93-15.813-5.797-3.75-3.875-5.625-9.328-5.625-16.36v-30.202H3.203v-9.125H9.36c2.844 0 4.817-.473 5.922-1.422 1.102-.946 1.817-2.801 2.14-5.563l.938-8.297h7.703v15.282H45.97v9.125H26.062v29.734c0 8.688 3.989 13.031 11.97 13.031h8.765V0Zm0 0" style="stroke:none" transform="translate(96.767 316.824)"/>
  </g>
  <g style="fill:#2c3892;fill-opacity:1">
    <path d="M11.016 0v-61.484h9.953V0ZM7.937-79.375c0-2.29.727-4.164 2.188-5.625 1.469-1.457 3.426-2.188 5.875-2.188 2.445 0 4.379.731 5.797 2.188 1.426 1.46 2.14 3.336 2.14 5.625 0 2.21-.714 4.047-2.14 5.516-1.418 1.46-3.352 2.187-5.797 2.187-2.45 0-4.406-.726-5.875-2.187-1.46-1.47-2.188-3.305-2.188-5.516Zm0 0" style="stroke:none" transform="translate(148.167 316.824)"/>
  </g>
  <g style="fill:#2c3892;fill-opacity:1">
    <path d="M11.016 0v-87.672h9.953V0Zm0 0" style="stroke:none" transform="translate(178.96 316.824)"/>
  </g>
  <g style="fill:#2c3892;fill-opacity:1">
    <path d="M11.016 0v-61.484h9.953V0ZM7.937-79.375c0-2.29.727-4.164 2.188-5.625 1.469-1.457 3.426-2.188 5.875-2.188 2.445 0 4.379.731 5.797 2.188 1.426 1.46 2.14 3.336 2.14 5.625 0 2.21-.714 4.047-2.14 5.516-1.418 1.46-3.352 2.187-5.797 2.187-2.45 0-4.406-.726-5.875-2.187-1.46-1.47-2.188-3.305-2.188-5.516Zm0 0" style="stroke:none" transform="translate(209.753 316.824)"/>
  </g>
  <g style="fill:#2c3892;fill-opacity:1">
    <path d="M4.031 0 27.61-31.281 5.22-61.484h11.953l9.61 13.03 7.343 10.188 7.453-10.187 9.594-13.031h11.86L40.64-31.281 64.203 0H52.125L41.703-13.984l-7.469-10.297-7.578 10.297L16.11 0Zm0 0" style="stroke:none" transform="translate(240.546 316.824)"/>
  </g>
  <g style="fill:#2c3892;fill-opacity:1">
    <path d="M8.89 23.688v-9.36h6.032c3.945 0 6.828-.574 8.64-1.719 1.82-1.136 3.368-3.402 4.641-6.796l2.828-7.235-29.14-60.062h11.14l13.86 29.03 9 19.063 7.468-19.062 11.485-29.031H65.39L37.203 9.594c-1.43 3.707-3.07 6.586-4.922 8.64-1.855 2.063-4.086 3.485-6.687 4.266-2.606.79-5.844 1.188-9.719 1.188Zm0 0" style="stroke:none" transform="translate(307.699 316.824)"/>
  </g>
</svg>
